<?xml version="1.0" encoding="utf-8"?>
<!-- Generator: Adobe Illustrator 19.0.0, SVG Export Plug-In . SVG Version: 6.00 Build 0)  -->
<svg version="1.1" id="Ebene_1" xmlns="http://www.w3.org/2000/svg" xmlns:xlink="http://www.w3.org/1999/xlink" x="0px" y="0px"
	 viewBox="0 0 311.8 311.8" style="enable-background:new 0 0 311.8 311.8;" xml:space="preserve">
<style type="text/css">
	.st0{clip-path:url(#SVGID_2_);fill-rule:evenodd;clip-rule:evenodd;fill:#FFFFFF;}
	.st1{fill-rule:evenodd;clip-rule:evenodd;fill:#FFFFFF;}
	.st2{clip-path:url(#SVGID_4_);fill:none;stroke:#000000;stroke-width:12.25;stroke-miterlimit:10;}
	.st3{fill-rule:evenodd;clip-rule:evenodd;fill:#D9D9D9;}
	.st4{fill:none;stroke:#262626;stroke-width:4.5;stroke-miterlimit:10;}
	.st5{fill-rule:evenodd;clip-rule:evenodd;fill:#404040;}
	.st6{fill:none;stroke:#262626;stroke-width:4.5;stroke-linecap:round;stroke-miterlimit:10;stroke-dasharray:9,9;}
	.st7{fill:none;stroke:#000000;stroke-width:9.25;stroke-miterlimit:10;}
	.st8{clip-path:url(#SVGID_6_);}
	.st9{clip-path:url(#SVGID_8_);}
</style>
<g>
	<defs>
		<rect id="SVGID_1_" y="0" width="311.8" height="311.8"/>
	</defs>
	<clipPath id="SVGID_2_">
		<use xlink:href="#SVGID_1_"  style="overflow:visible;"/>
	</clipPath>
	<rect y="0" class="st0" width="311.8" height="311.8"/>
</g>
<path class="st1" d="M5.9,37.3c0-17.2,14-31.2,31.2-31.2h237.4c17.2,0,31.2,14,31.2,31.2v237.4c0,17.2-14,31.2-31.2,31.2H37
	c-17.2,0-31.2-14-31.2-31.2V37.3z"/>
<g>
	<defs>
		<rect id="SVGID_3_" y="0" width="311.8" height="311.8"/>
	</defs>
	<clipPath id="SVGID_4_">
		<use xlink:href="#SVGID_3_"  style="overflow:visible;"/>
	</clipPath>
	<path class="st2" d="M5.9,37.3c0-17.2,14-31.2,31.2-31.2h237.4c17.2,0,31.2,14,31.2,31.2v237.4c0,17.2-14,31.2-31.2,31.2H37
		c-17.2,0-31.2-14-31.2-31.2V37.3z"/>
</g>
<path class="st3" d="M34.8,76.7c0-4.1,3.3-7.5,7.5-7.5h32.9c4.1,0,7.5,3.3,7.5,7.5v33.9c0,4.1-3.3,7.5-7.5,7.5H42.3
	c-4.1,0-7.5-3.3-7.5-7.5V76.7z"/>
<path class="st4" d="M34.8,76.7c0-4.1,3.3-7.5,7.5-7.5h32.9c4.1,0,7.5,3.3,7.5,7.5v33.9c0,4.1-3.3,7.5-7.5,7.5H42.3
	c-4.1,0-7.5-3.3-7.5-7.5V76.7z"/>
<polygon class="st5" points="34.8,219.1 69.6,184.3 69.6,201.7 242.2,201.7 242.2,184.3 277,219.1 242.2,253.9 242.2,236.5 
	69.6,236.5 69.6,253.9 "/>
<path class="st3" d="M103.7,70.6c0-5.6,4.5-10.1,10.1-10.1h44.8c5.6,0,10.1,4.5,10.1,10.1v46.1c0,5.6-4.5,10.1-10.1,10.1h-44.8
	c-5.6,0-10.1-4.5-10.1-10.1V70.6z"/>
<path class="st6" d="M103.7,70.6c0-5.6,4.5-10.1,10.1-10.1h44.8c5.6,0,10.1,4.5,10.1,10.1v46.1c0,5.6-4.5,10.1-10.1,10.1h-44.8
	c-5.6,0-10.1-4.5-10.1-10.1V70.6z"/>
<path class="st3" d="M189.7,61.6c0-7.5,6.1-13.6,13.6-13.6h60c7.5,0,13.6,6.1,13.6,13.6v60.9c0,7.5-6.1,13.6-13.6,13.6h-60
	c-7.5,0-13.6-6.1-13.6-13.6V61.6z"/>
<path class="st6" d="M189.7,61.6c0-7.5,6.1-13.6,13.6-13.6h60c7.5,0,13.6,6.1,13.6,13.6v60.9c0,7.5-6.1,13.6-13.6,13.6h-60
	c-7.5,0-13.6-6.1-13.6-13.6V61.6z"/>
<circle class="st1" cx="155.9" cy="214.9" r="58.9"/>
<circle class="st7" cx="155.9" cy="214.9" r="58.9"/>
<g>
	<defs>
		<rect id="SVGID_5_" x="113" y="170.9" width="87.8" height="87.8"/>
	</defs>
	<clipPath id="SVGID_6_">
		<use xlink:href="#SVGID_5_"  style="overflow:visible;"/>
	</clipPath>
	<g class="st8">
		<defs>
			<rect id="SVGID_7_" x="113" y="170.9" width="87.8" height="87.8"/>
		</defs>
		<clipPath id="SVGID_8_">
			<use xlink:href="#SVGID_7_"  style="overflow:visible;"/>
		</clipPath>
		<path class="st9" d="M158.9,240.2v-6.3l6.3-15c0.1,0,0.1,0.1,0.2,0.1l7.7,3.1l2.8,18.1H158.9z M157.1,219.4c-2.4,0-4.9-0.3-7.2-1
			c1.1-0.9,1.8-2.2,1.8-3.6v-0.1c3.5,1.4,7.4,1.4,10.9,0v0.1c0,1.4,0.7,2.7,1.8,3.6C161.9,219.1,159.5,219.5,157.1,219.4z
			 M155.3,240.2h-16.9l2.8-18.1l7.6-3.1c0.1,0,0.1-0.1,0.2-0.1l6.3,15L155.3,240.2z M146.2,201.4V195h21.7v6.3
			c0,6-4.9,10.9-10.9,10.9C151.1,212.2,146.2,207.4,146.2,201.4z M141.9,217.9c-3.7,1.3-7.2,3.1-10.3,5.5c-2.1,1.7-3.4,4.2-3.4,6.8
			v15.9l0.8,0.5c1.9,1.3,5.1,2.2,9.1,3v-5.8h17.2v7.3c0.7,0,1.4,0,2.1,0c0.5,0,1,0,1.6,0v-7.3h17.2v5.9c4.2-0.7,7.5-1.8,9.2-3.1
			l0.7-0.5v-15.9c0-2.7-1.3-5.1-3.4-6.8c-3.1-2.4-6.6-4.3-10.3-5.5l-5.6-2.3c-0.3-0.1-0.6-0.5-0.6-0.8v-2.2
			c3.4-2.7,5.4-6.9,5.4-11.3V195h0.9c1,0,1.8-0.8,1.8-1.8c0-1-0.8-1.8-1.8-1.8h-0.9c-0.3-5-3.2-9.5-7.6-11.8l-1.4,5.7
			c-0.1,0.4-0.5,0.7-0.9,0.7h-0.2c-0.5-0.1-0.8-0.6-0.7-1.1c0,0,0,0,0,0c0,0,0,0,0-0.1l1.7-6.8c-0.3-1.2-1.4-2-2.6-2.1h-5.4
			c-1.2,0-2.3,0.9-2.6,2.1l1.7,6.8c0.1,0.5-0.2,1-0.6,1.1l-0.1,0h-0.2c-0.4,0-0.8-0.3-0.9-0.7l-1.4-5.7c-4.4,2.4-7.3,6.8-7.6,11.8
			h-0.9c-1,0-1.8,0.8-1.8,1.8c0,1,0.8,1.8,1.8,1.8h0.9l0,6.3c0,4.4,2,8.5,5.4,11.3v2.2c0,0.4-0.2,0.7-0.6,0.8L141.9,217.9z"/>
	</g>
</g>
</svg>
