<svg width="1430" height="1430" xmlns="http://www.w3.org/2000/svg" xmlns:xlink="http://www.w3.org/1999/xlink" xml:space="preserve" overflow="hidden"><defs><clipPath id="clip0"><rect x="-1" y="0" width="1430" height="1430"/></clipPath><clipPath id="clip1"><rect x="446" y="628" width="290" height="290"/></clipPath><clipPath id="clip2"><rect x="446" y="628" width="290" height="290"/></clipPath><clipPath id="clip3"><rect x="446" y="628" width="290" height="290"/></clipPath></defs><g clip-path="url(#clip0)" transform="translate(1 0)"><path d="M27.0002 170.841C27.0002 91.9519 90.9523 27.9998 169.841 27.9998L1258.16 27.9998C1337.05 27.9998 1401 91.9519 1401 170.841L1401 1259.16C1401 1338.05 1337.05 1402 1258.16 1402L169.841 1402C90.9523 1402 27.0002 1338.05 27.0002 1259.16Z" stroke="#000000" stroke-width="56.1458" stroke-miterlimit="8" fill="#FFFFFF" fill-rule="evenodd"/><path d="M160.5 274.66C160.5 255.794 175.794 240.5 194.66 240.5L345.34 240.5C364.206 240.5 379.5 255.794 379.5 274.66L379.5 430.34C379.5 449.206 364.206 464.5 345.34 464.5L194.66 464.5C175.794 464.5 160.5 449.206 160.5 430.34Z" stroke="#262626" stroke-width="20.625" stroke-miterlimit="8" fill="#D9D9D9" fill-rule="evenodd"/><path d="M475.5 246.982C475.5 221.311 496.311 200.5 521.982 200.5L727.018 200.5C752.689 200.5 773.5 221.311 773.5 246.982L773.5 458.018C773.5 483.689 752.689 504.5 727.018 504.5L521.982 504.5C496.311 504.5 475.5 483.689 475.5 458.018Z" stroke="#262626" stroke-width="20.625" stroke-linecap="round" stroke-miterlimit="8" stroke-dasharray="41.25 41.25" fill="#D9D9D9" fill-rule="evenodd"/><path d="M870.5 204.736C870.5 170.364 898.364 142.5 932.736 142.5L1207.26 142.5C1241.64 142.5 1269.5 170.364 1269.5 204.736L1269.5 484.264C1269.5 518.636 1241.64 546.5 1207.26 546.5L932.736 546.5C898.364 546.5 870.5 518.636 870.5 484.264Z" stroke="#262626" stroke-width="20.625" stroke-linecap="round" stroke-miterlimit="8" stroke-dasharray="41.25 41.25" fill="#D9D9D9" fill-rule="evenodd"/><path d="M538.194 753.225 889.806 753.225 889.806 1231.78 538.194 1231.78 538.194 753.225ZM496 1274 932 1274 932 711 496 711 496 1274Z" fill="#404040" fill-rule="evenodd"/><path d="M728 852 848 852 848 881 728 881Z" fill="#404040" fill-rule="evenodd"/><path d="M598 929 848.001 929 848.001 957 598 957Z" fill="#404040" fill-rule="evenodd"/><path d="M598 997 848.001 997 848.001 1026 598 1026Z" fill="#404040" fill-rule="evenodd"/><path d="M598 1069 848.001 1069 848.001 1097 598 1097Z" fill="#404040" fill-rule="evenodd"/><path d="M598 1140 848.001 1140 848.001 1168 598 1168Z" fill="#404040" fill-rule="evenodd"/><path d="M910 1017.25 1182.5 1017.25 1182.5 949 1319 1085.5 1182.5 1222 1182.5 1153.75 910 1153.75Z" fill="#404040" fill-rule="evenodd"/><path d="M518 1153.75 244.5 1153.75 244.5 1222 108 1085.5 244.5 949 244.5 1017.25 518 1017.25Z" fill="#404040" fill-rule="evenodd"/><path d="M414 796C414 698.246 493.245 619 591 619 688.754 619 768 698.246 768 796 768 893.755 688.754 973 591 973 493.245 973 414 893.755 414 796Z" stroke="#000000" stroke-width="27.5" stroke-miterlimit="8" fill="#FFFFFF" fill-rule="evenodd"/><g clip-path="url(#clip1)"><g clip-path="url(#clip2)"><g clip-path="url(#clip3)"><path d="M634.248 792.369C646.892 796.885 658.933 802.002 668.868 810.13 673.082 813.442 675.491 818.258 675.491 823.677L680.909 870.339C681.21 872.446 680.307 874.553 678.501 875.757L678.501 875.757C673.383 879.069 667.965 881.778 662.245 883.585L662.245 893.218 670.373 893.218C675.491 891.111 680.608 888.702 685.124 885.692L685.124 885.692C690.543 882.079 693.553 875.456 692.65 868.833L687.833 823.376C687.532 814.646 683.619 806.518 676.695 801.099 665.556 791.767 652.31 786.047 638.462 781.23L623.711 775.209C622.507 774.607 621.905 773.704 621.905 772.5L621.905 765.275C633.345 756.244 639.968 742.396 639.968 727.645L639.968 716.807C641.774 718.012 643.881 718.313 645.988 718.614L640.871 703.562C640.269 701.454 639.667 699.347 639.366 697.24 636.957 680.08 626.722 668.039 612.573 660.513 611.369 659.91 609.863 659.91 608.659 660.814L605.95 662.921 602.94 658.706C602.036 657.502 600.832 656.298 599.327 655.997 596.618 655.395 593.908 655.094 591.199 655.094 567.417 655.094 547.548 673.758 543.333 698.143L543.333 700.25 543.333 700.25 543.333 705.368C543.333 711.991 542.129 718.313 539.42 724.333L534.302 736.375C534.302 736.375 537.914 735.472 543.935 733.666 545.441 746.008 551.762 757.147 561.396 764.673L561.396 772.199C561.396 773.403 560.794 774.607 559.589 774.908L544.838 780.929C530.991 785.746 517.745 791.466 506.606 800.798 499.682 806.217 495.468 814.345 495.167 823.075L490.049 868.833C489.146 875.456 492.156 882.079 497.575 885.692 502.091 888.702 507.208 891.111 512.326 893.218L520.755 893.218 520.755 883.886C515.035 881.778 509.617 879.37 504.499 876.058 502.693 874.854 501.789 872.747 502.091 870.64L507.208 824.279 507.208 823.677C507.208 818.258 509.918 813.442 514.132 810.13 524.067 802.002 536.108 796.885 548.752 792.369L553.569 790.864C562.299 796.282 576.147 799.594 591.5 799.594 606.853 799.594 620.701 796.282 629.732 790.864L634.248 792.369ZM555.375 730.053C575.846 723.129 605.348 711.088 618.594 694.229 621.303 698.444 624.313 702.357 627.625 706.271L627.625 727.344C627.625 747.213 611.369 763.469 591.5 763.469 572.534 763.469 556.88 749.019 555.375 730.053ZM567.417 784.241C571.029 781.531 573.437 777.016 573.437 772.199L573.437 771.898C584.877 776.715 598.123 776.715 609.562 771.898L609.562 772.199C609.562 776.715 611.67 781.23 615.282 784.241 607.455 786.649 599.327 787.853 591.199 787.552 583.372 787.552 575.244 786.348 567.417 784.241Z"/><path d="M656.525 824.58C656.525 820.366 653.214 817.054 648.999 817.054L648.999 817.054 534.302 817.054C530.087 817.054 526.776 820.366 526.776 824.58L526.776 824.58 526.776 899.54 503.897 899.54 503.897 903.453C503.897 907.668 507.208 910.979 511.423 910.979L671.878 910.979C676.093 910.979 679.404 907.668 679.404 903.453L679.404 899.54 656.525 899.54 656.525 824.58ZM575.846 874.252 571.631 878.467 554.773 861.608 571.631 844.75 575.846 848.965 563.202 861.608 575.846 874.252ZM587.285 880.574 581.867 878.166 596.016 844.148 601.434 846.556 587.285 880.574ZM611.369 878.768 607.154 874.553 619.798 861.909 607.154 849.266 611.369 845.051 628.227 861.909 611.369 878.768Z"/></g></g></g></g></svg>