<svg width="1430" height="1430" xmlns="http://www.w3.org/2000/svg" xmlns:xlink="http://www.w3.org/1999/xlink" xml:space="preserve" overflow="hidden"><defs><clipPath id="clip0"><rect x="-1" y="0" width="1430" height="1430"/></clipPath></defs><g clip-path="url(#clip0)" transform="translate(1 0)"><path d="M27.0002 170.841C27.0002 91.9519 90.9523 27.9998 169.841 27.9998L1258.16 27.9998C1337.05 27.9998 1401 91.9519 1401 170.841L1401 1259.16C1401 1338.05 1337.05 1402 1258.16 1402L169.841 1402C90.9523 1402 27.0002 1338.05 27.0002 1259.16Z" stroke="#000000" stroke-width="56.1458" stroke-miterlimit="8" fill="#FFFFFF" fill-rule="evenodd"/><path d="M17.1861-0.218714 20.6759 274-13.6963 274.437-17.1861 0.218714ZM54.8294 256.376 4.58333 360.149-48.2873 257.688Z" fill="#262626" transform="matrix(-1 0 0 1 910.583 517)"/><path d="M910 330 1068 430.317 1068 595.683 910 696 752 595.683 752 430.317Z" stroke="#0D0D0D" stroke-width="27.5" stroke-linecap="round" stroke-linejoin="round" stroke-miterlimit="10" fill="#FFFFFF" fill-rule="evenodd"/><path d="M910.5 513.5 910.5 696.599" stroke="#0D0D0D" stroke-width="20.625" stroke-miterlimit="8" fill="none" fill-rule="evenodd"/><path d="M0 0 159.674 94.9122" stroke="#0D0D0D" stroke-width="20.625" stroke-miterlimit="8" fill="none" fill-rule="evenodd" transform="matrix(-1 0 0 1 1066.17 428.5)"/><path d="M755.5 428.5 913.346 523.412" stroke="#0D0D0D" stroke-width="20.625" stroke-miterlimit="8" fill="none" fill-rule="evenodd"/><path d="M742.831 872C791.583 872 835.72 892.422 867.669 925.44L884.57 946.61 897.733 935.387C921.771 918.603 950.749 908.803 981.942 908.803 1054.73 908.803 1115.45 962.159 1129.5 1033.09L1131.58 1054.46 1164.04 1054.46C1226.98 1054.46 1278 1107.18 1278 1172.23L1278 1172.23C1278 1237.27 1226.98 1290 1164.04 1290L606.958 1290C551.888 1290 505.941 1249.63 495.315 1195.96L493 1172.23 495.315 1148.49C502.905 1110.16 528.516 1078.61 562.6 1063.71L567.047 1062.28 566.284 1054.46C566.284 953.688 645.327 872 742.831 872Z" stroke="#000000" stroke-width="27.5" stroke-miterlimit="8" fill-rule="evenodd"/><path d="M360.994 269C393.848 269 420.48 295.796 420.48 328.852 420.48 345.379 413.822 360.342 403.057 371.173L391.983 378.686 392.224 378.734C421.475 391.183 442 420.326 442 454.292L441.999 491 279 491 279 454.292C279 420.326 299.525 391.183 328.777 378.734L329.778 378.531 318.932 371.173C308.167 360.342 301.509 345.379 301.509 328.852 301.509 295.796 328.141 269 360.994 269Z" fill-rule="evenodd"/><path d="M351.22 235.865C351.22 195.794 351.22 195.794 351.22 195.794 250.519 195.794 168.287 279.459 168.287 382.5 168.287 451.194 204.786 511.081 259.314 543.667 205.225 575.371 205.225 575.371 205.225 575.371 148.499 530.896 112 460.882 112 382.5 112 248.195 219.297 138.549 351.22 138.549 351.22 102 351.22 102 351.22 102 464.673 168.933 464.673 168.933 464.673 168.933L351.22 235.865ZM496.775 189.629C443.126 221.334 443.126 221.334 443.126 221.334 497.214 253.919 533.713 313.806 533.713 382.5 533.713 485.541 451.921 569.207 351.22 569.207 351.22 529.135 351.22 529.135 351.22 529.135 237.327 596.068 237.327 596.068 237.327 596.068 351.22 663 351.22 663 351.22 663 351.22 626.451 351.22 626.451 351.22 626.451 482.703 626.451 590 517.246 590 382.5 590 304.119 553.501 234.104 496.775 189.629Z" fill-rule="evenodd"/><path d="M742.477 1149.53C733.382 1165.29 738.779 1185.43 754.532 1194.52 770.285 1203.62 790.429 1198.22 799.524 1182.47 808.619 1166.72 803.222 1146.57 787.468 1137.48 771.715 1128.38 751.572 1133.78 742.477 1149.53ZM687.214 1131.12 698.901 1110.88 717.219 1121.45 718.736 1119.56C720.277 1117.82 721.894 1116.17 723.578 1114.62L726.452 1112.21 715.878 1093.9 736.122 1082.21 746.665 1100.48 752.908 1098.48 759.312 1097.09 759.312 1076 782.688 1076 782.688 1097.15 786.378 1097.79C788.614 1098.3 790.838 1098.91 793.041 1099.65L795.303 1100.53 805.878 1082.21 826.122 1093.9 815.546 1112.22 817.442 1113.74C819.18 1115.28 820.827 1116.89 822.383 1118.58L824.785 1121.45 843.099 1110.88 854.786 1131.12 836.525 1141.66 838.522 1147.91 839.914 1154.31 861 1154.31 861 1177.69 839.854 1177.69 839.21 1181.38C838.705 1183.61 838.087 1185.84 837.352 1188.04L836.469 1190.3 854.786 1200.88 843.099 1221.12 824.782 1210.55 823.264 1212.44C821.724 1214.18 820.107 1215.83 818.423 1217.38L815.549 1219.79 826.122 1238.1 805.878 1249.79 795.335 1231.53 789.093 1233.52 782.688 1234.91 782.688 1256 759.312 1256 759.312 1234.85 755.622 1234.21C753.386 1233.71 751.163 1233.09 748.959 1232.35L746.697 1231.47 736.122 1249.79 715.878 1238.1 726.454 1219.78 724.558 1218.26C722.821 1216.72 721.173 1215.11 719.618 1213.42L717.215 1210.55 698.901 1221.12 687.214 1200.88 705.475 1190.33 703.479 1184.09 702.086 1177.69 681 1177.69 681 1154.31 702.147 1154.31 702.791 1150.62C703.295 1148.39 703.914 1146.16 704.648 1143.96L705.531 1141.7Z" fill="#FFFFFF" fill-rule="evenodd"/><path d="M928.018 1069.09C915.589 1090.53 922.965 1117.94 944.494 1130.32 966.023 1142.7 993.553 1135.36 1005.98 1113.92 1018.41 1092.47 1011.04 1065.06 989.507 1052.68 967.978 1040.3 940.448 1047.64 928.018 1069.09ZM852.492 1044.03 868.465 1016.47 893.499 1030.87 895.573 1028.29C897.679 1025.92 899.888 1023.68 902.189 1021.56L906.117 1018.29 891.667 993.366 919.333 977.458 933.742 1002.31 942.274 999.597 951.027 997.701 951.027 969 982.973 969 982.973 997.783 988.017 998.659C991.073 999.347 994.112 1000.19 997.123 1001.19L1000.21 1002.39 1014.67 977.458 1042.33 993.366 1027.88 1018.3 1030.47 1020.36C1032.85 1022.46 1035.1 1024.66 1037.22 1026.95L1040.51 1030.86 1065.53 1016.47 1081.51 1044.03 1056.55 1058.38 1059.28 1066.87 1061.18 1075.59 1090 1075.59 1090 1107.41 1061.1 1107.41 1060.22 1112.43C1059.53 1115.48 1058.69 1118.5 1057.68 1121.5L1056.47 1124.58 1081.51 1138.97 1065.53 1166.53 1040.5 1152.13 1038.43 1154.71C1036.32 1157.08 1034.11 1159.32 1031.81 1161.44L1027.88 1164.71 1042.33 1189.63 1014.67 1205.54 1000.26 1180.69 991.726 1183.4 982.973 1185.3 982.973 1214 951.027 1214 951.027 1185.22 945.984 1184.34C942.928 1183.65 939.889 1182.81 936.878 1181.81L933.786 1180.61 919.333 1205.54 891.667 1189.63 906.12 1164.7 903.53 1162.64C901.155 1160.54 898.903 1158.34 896.778 1156.05L893.494 1152.14 868.465 1166.53 852.492 1138.97 877.45 1124.62 874.721 1116.13 872.818 1107.41 844 1107.41 844 1075.59 872.9 1075.59 873.78 1070.57C874.47 1067.53 875.316 1064.5 876.319 1061.5L877.526 1058.42Z" fill="#FFFFFF" fill-rule="evenodd"/></g></svg>