<?xml version="1.0" encoding="utf-8"?>
<!-- Generator: Adobe Illustrator 19.0.0, SVG Export Plug-In . SVG Version: 6.00 Build 0)  -->
<svg version="1.1" id="Ebene_1" xmlns="http://www.w3.org/2000/svg" xmlns:xlink="http://www.w3.org/1999/xlink" x="0px" y="0px"
	 viewBox="0 0 311.8 311.8" style="enable-background:new 0 0 311.8 311.8;" xml:space="preserve">
<style type="text/css">
	.st0{clip-path:url(#SVGID_2_);fill-rule:evenodd;clip-rule:evenodd;fill:#FFFFFF;}
	.st1{clip-path:url(#SVGID_4_);fill:none;stroke:#000000;stroke-width:12.24;stroke-miterlimit:10;}
	.st2{fill:#262626;}
	.st3{clip-path:url(#SVGID_6_);fill-rule:evenodd;clip-rule:evenodd;fill:#FFFFFF;}
	
		.st4{clip-path:url(#SVGID_8_);fill:none;stroke:#0D0D0D;stroke-width:6;stroke-linecap:round;stroke-linejoin:round;stroke-miterlimit:10;}
	.st5{fill:none;stroke:#0D0D0D;stroke-width:4.56;stroke-miterlimit:10;}
	.st6{fill-rule:evenodd;clip-rule:evenodd;}
	.st7{fill:none;stroke:#000000;stroke-width:6;stroke-miterlimit:10;}
	.st8{fill-rule:evenodd;clip-rule:evenodd;fill:#FFFFFF;}
</style>
<g>
	<defs>
		<rect id="SVGID_1_" y="0" width="311.8" height="311.8"/>
	</defs>
	<clipPath id="SVGID_2_">
		<use xlink:href="#SVGID_1_"  style="overflow:visible;"/>
	</clipPath>
	<rect y="0" class="st0" width="311.8" height="311.8"/>
</g>
<g>
	<defs>
		<rect id="SVGID_3_" y="0" width="311.8" height="311.8"/>
	</defs>
	<clipPath id="SVGID_4_">
		<use xlink:href="#SVGID_3_"  style="overflow:visible;"/>
	</clipPath>
	<path class="st1" d="M5.9,37.3c0-17.2,14-31.2,31.2-31.2h237.4c17.2,0,31.2,14,31.2,31.2v237.4c0,17.2-14,31.2-31.2,31.2H37
		c-17.2,0-31.2-14-31.2-31.2V37.3z"/>
</g>
<path class="st2" d="M186.6,168.6l11.1,22.8l11.6-22.5L186.6,168.6z M194.9,112.8l-0.8,59.7l7.6,0.1l0.8-59.7L194.9,112.8z"/>
<g>
	<defs>
		<polyline id="SVGID_5_" points="0,0 311.8,0 311.8,311.8 0,311.8 		"/>
	</defs>
	<clipPath id="SVGID_6_">
		<use xlink:href="#SVGID_5_"  style="overflow:visible;"/>
	</clipPath>
	<polygon class="st3" points="198.6,71.9 233,93.8 233,129.9 198.6,151.8 164.2,129.9 164.2,93.8 	"/>
</g>
<g>
	<defs>
		<polyline id="SVGID_7_" points="0,0 311.8,0 311.8,311.8 0,311.8 		"/>
	</defs>
	<clipPath id="SVGID_8_">
		<use xlink:href="#SVGID_7_"  style="overflow:visible;"/>
	</clipPath>
	<polygon class="st4" points="198.6,71.9 233,93.8 233,129.9 198.6,151.8 164.2,129.9 164.2,93.8 	"/>
</g>
<line class="st5" x1="198.6" y1="111.8" x2="198.6" y2="151.8"/>
<line class="st5" x1="232.6" y1="93.4" x2="197.8" y2="114.1"/>
<line class="st5" x1="164.6" y1="93.4" x2="199.1" y2="114.1"/>
<path class="st6" d="M162,190.3c10.6,0,20.3,4.5,27.2,11.7l3.7,4.6l2.9-2.4c5.2-3.7,11.6-5.8,18.4-5.8c15.9,0,29.1,11.6,32.2,27.1
	l0.5,4.7h7.1c13.7,0,24.9,11.5,24.9,25.7c0,14.2-11.1,25.7-24.9,25.7H132.4c-12,0-22-8.8-24.4-20.5l-0.5-5.2l0.5-5.2
	c1.7-8.4,7.2-15.2,14.7-18.5l1-0.3l-0.2-1.7C123.5,208.1,140.8,190.3,162,190.3z"/>
<path class="st7" d="M162,190.3c10.6,0,20.3,4.5,27.2,11.7l3.7,4.6l2.9-2.4c5.2-3.7,11.6-5.8,18.4-5.8c15.9,0,29.1,11.6,32.2,27.1
	l0.5,4.7h7.1c13.7,0,24.9,11.5,24.9,25.7c0,14.2-11.1,25.7-24.9,25.7H132.4c-12,0-22-8.8-24.4-20.5l-0.5-5.2l0.5-5.2
	c1.7-8.4,7.2-15.2,14.7-18.5l1-0.3l-0.2-1.7C123.5,208.1,140.8,190.3,162,190.3z"/>
<path class="st6" d="M78.8,58.7c7.2,0,13,5.8,13,13c0,3.6-1.5,6.9-3.8,9.2l-2.4,1.6l0.1,0C92,85.3,96.5,91.6,96.5,99v8H60.8v-8
	c0-7.4,4.5-13.7,10.9-16.5l0.2,0l-2.4-1.6c-2.4-2.4-3.8-5.6-3.8-9.2C65.8,64.5,71.6,58.7,78.8,58.7z"/>
<path class="st6" d="M108.4,41.4c-11.7,6.9-11.7,6.9-11.7,6.9c11.8,7.1,19.8,20.2,19.8,35.1c0,22.5-17.9,40.7-39.9,40.7
	c0-8.7,0-8.7,0-8.7C51.7,130,51.7,130,51.7,130c24.9,14.6,24.9,14.6,24.9,14.6c0-8,0-8,0-8c28.7,0,52.2-23.8,52.2-53.2
	C128.8,66.4,120.8,51.1,108.4,41.4z M76.6,51.5c0-8.7,0-8.7,0-8.7c-22,0-40,18.2-40,40.7c0,15,8,28,19.9,35.1
	c-11.8,6.9-11.8,6.9-11.8,6.9c-12.4-9.7-20.4-25-20.4-42c0-29.3,23.4-53.2,52.2-53.2c0-8,0-8,0-8c24.8,14.6,24.8,14.6,24.8,14.6
	L76.6,51.5z"/>
<path class="st8" d="M149.8,246.8l2.6-4.4l4,2.3l0.3-0.4c0.3-0.4,0.7-0.7,1.1-1.1l0.6-0.5l-2.3-4l4.4-2.6l2.3,4l1.4-0.4l1.4-0.3
	v-4.6h5.1v4.6l0.8,0.1c0.5,0.1,1,0.2,1.5,0.4l0.5,0.2l2.3-4l4.4,2.6l-2.3,4l0.4,0.3c0.4,0.3,0.7,0.7,1.1,1.1l0.5,0.6l4-2.3l2.6,4.4
	l-4,2.3l0.4,1.4l0.3,1.4h4.6v5.1h-4.6l-0.1,0.8c-0.1,0.5-0.3,1-0.4,1.5l-0.2,0.5l4,2.3l-2.6,4.4l-4-2.3l-0.3,0.4
	c-0.3,0.4-0.7,0.7-1.1,1.1l-0.6,0.5l2.3,4l-4.4,2.6l-2.3-4l-1.4,0.4l-1.4,0.3v4.6h-5.1v-4.6l-0.8-0.1c-0.5-0.1-1-0.2-1.5-0.4
	l-0.5-0.2l-2.3,4l-4.4-2.6l2.3-4l-0.4-0.3c-0.4-0.3-0.7-0.7-1.1-1.1l-0.5-0.6l-4,2.3l-2.6-4.4l4-2.3l-0.4-1.4l-0.3-1.4h-4.6v-5.1
	h4.6l0.1-0.8c0.1-0.5,0.3-1,0.4-1.5l0.2-0.5L149.8,246.8z M161.9,250.8c-2,3.4-0.8,7.8,2.7,9.8c3.4,2,7.9,0.8,9.9-2.6
	c2-3.4,0.8-7.8-2.7-9.8C168.3,246.2,163.9,247.4,161.9,250.8z"/>
<path class="st8" d="M186.1,227.8l3.5-6l5.4,3.1l0.4-0.6c0.5-0.5,0.9-1,1.4-1.5l0.9-0.7l-3.1-5.4l6-3.5l3.1,5.4l1.9-0.6l1.9-0.4
	v-6.3h7v6.3l1.1,0.2c0.7,0.1,1.3,0.3,2,0.6l0.7,0.3l3.1-5.4l6,3.5l-3.1,5.4l0.6,0.5c0.5,0.5,1,0.9,1.5,1.4l0.7,0.9l5.4-3.1l3.5,6
	l-5.4,3.1l0.6,1.9l0.4,1.9h6.3v7h-6.3l-0.2,1.1c-0.2,0.7-0.3,1.3-0.6,2l-0.3,0.7l5.4,3.1l-3.5,6l-5.4-3.1l-0.4,0.6
	c-0.5,0.5-0.9,1-1.4,1.5l-0.8,0.7l3.1,5.4l-6,3.5l-3.1-5.4l-1.9,0.6l-1.9,0.4v6.3h-7v-6.3l-1.1-0.2c-0.7-0.2-1.3-0.3-2-0.6l-0.7-0.3
	l-3.1,5.4l-6-3.5l3.1-5.4l-0.6-0.5c-0.5-0.5-1-0.9-1.5-1.4l-0.7-0.9l-5.4,3.1l-3.5-6l5.4-3.1l-0.6-1.9l-0.4-1.9h-6.3v-7h6.3l0.2-1.1
	c0.2-0.7,0.3-1.3,0.6-2l0.3-0.7L186.1,227.8z M202.5,233.3c-2.7,4.7-1.1,10.7,3.6,13.4c4.7,2.7,10.7,1.1,13.4-3.6
	c2.7-4.7,1.1-10.7-3.6-13.4C211.2,227,205.2,228.6,202.5,233.3z"/>
</svg>
