<svg width="1430" height="1430" xmlns="http://www.w3.org/2000/svg" xmlns:xlink="http://www.w3.org/1999/xlink" xml:space="preserve" overflow="hidden"><defs><clipPath id="clip0"><rect x="-1" y="0" width="1430" height="1430"/></clipPath></defs><g clip-path="url(#clip0)" transform="translate(1 0)"><path d="M27.0002 170.841C27.0002 91.9519 90.9523 27.9998 169.841 27.9998L1258.16 27.9998C1337.05 27.9998 1401 91.9519 1401 170.841L1401 1259.16C1401 1338.05 1337.05 1402 1258.16 1402L169.841 1402C90.9523 1402 27.0002 1338.05 27.0002 1259.16Z" stroke="#000000" stroke-width="56.1458" stroke-miterlimit="8" fill="#FFFFFF" fill-rule="evenodd"/><path d="M533.531 727C597.25 727 654.937 753.139 696.694 795.398L718.784 822.494 735.988 808.129C767.406 786.648 805.28 774.105 846.05 774.105 941.179 774.105 1020.55 842.395 1038.9 933.177L1041.63 960.526 1084.06 960.526C1166.32 960.526 1233 1028.01 1233 1111.26L1233 1111.26C1233 1194.51 1166.32 1262 1084.06 1262L355.944 1262C283.967 1262 223.915 1210.33 210.026 1141.64L207 1111.26 210.026 1080.88C219.946 1031.82 253.419 991.441 297.968 972.372L303.78 970.546 302.782 960.526C302.782 831.553 406.092 727 533.531 727Z" stroke="#000000" stroke-width="27.5" stroke-miterlimit="8" fill-rule="evenodd"/><path d="M849.598 1151.49C838.877 1151.49 830.185 1160.18 830.185 1170.9 830.185 1181.61 838.877 1190.3 849.598 1190.3 860.32 1190.3 869.012 1181.61 869.012 1170.9 869.012 1160.18 860.32 1151.49 849.598 1151.49ZM549.734 1123.64 890.267 1123.64C898.404 1123.64 905 1130.24 905 1138.37L905 1197.27C905 1205.41 898.404 1212 890.267 1212L549.734 1212C541.597 1212 535 1205.41 535 1197.27L535 1138.37C535 1130.24 541.597 1123.64 549.734 1123.64ZM849.598 1024.39C838.877 1024.39 830.185 1033.08 830.185 1043.8 830.185 1054.51 838.877 1063.2 849.598 1063.2 860.32 1063.2 869.012 1054.51 869.012 1043.8 869.012 1033.08 860.32 1024.39 849.598 1024.39ZM549.734 996.542 890.267 996.542C898.404 996.542 905 1003.14 905 1011.27L905 1070.17C905 1078.31 898.404 1084.9 890.267 1084.9L549.734 1084.9C541.597 1084.9 535 1078.31 535 1070.17L535 1011.27C535 1003.14 541.597 996.542 549.734 996.542ZM849.598 894.85C838.877 894.85 830.185 903.537 830.185 914.255 830.185 924.972 838.877 933.659 849.598 933.659 860.32 933.659 869.012 924.972 869.012 914.255 869.012 903.537 860.32 894.85 849.598 894.85ZM549.734 867 890.267 867C898.404 867 905 873.593 905 881.726L905 940.63C905 948.764 898.404 955.357 890.267 955.357L549.734 955.357C541.597 955.357 535 948.764 535 940.63L535 881.726C535 873.593 541.597 867 549.734 867Z" fill="#FFFFFF" fill-rule="evenodd"/><path d="M614.5 804.5 779.5 1262.38" stroke="#000000" stroke-width="46.9792" stroke-miterlimit="8" fill="none" fill-rule="evenodd"/><path d="M741.125 481.45 741.469 623.987 700.22 624.087 699.875 481.55ZM782.669 603.263 721.094 727.162 658.92 603.562Z" fill="#262626"/><path d="M720 142 891 250.571 891 431.429 720 540 549 431.429 549 250.571Z" stroke="#0D0D0D" stroke-width="27.5" stroke-linecap="round" stroke-linejoin="round" stroke-miterlimit="10" fill="#FFFFFF" fill-rule="evenodd"/><path d="M720.5 341.5 720.5 540.185" stroke="#0D0D0D" stroke-width="20.625" stroke-miterlimit="8" fill="none" fill-rule="evenodd"/><path d="M0 0 173.267 102.991" stroke="#0D0D0D" stroke-width="20.625" stroke-miterlimit="8" fill="none" fill-rule="evenodd" transform="matrix(-1 0 0 1 889.766 249.5)"/><path d="M551.5 249.5 722.782 352.492" stroke="#0D0D0D" stroke-width="20.625" stroke-miterlimit="8" fill="none" fill-rule="evenodd"/></g></svg>