<?xml version="1.0" encoding="utf-8"?>
<!-- Generator: Adobe Illustrator 19.0.0, SVG Export Plug-In . SVG Version: 6.00 Build 0)  -->
<svg version="1.1" id="Ebene_1" xmlns="http://www.w3.org/2000/svg" xmlns:xlink="http://www.w3.org/1999/xlink" x="0px" y="0px"
	 viewBox="0 0 311.8 311.8" style="enable-background:new 0 0 311.8 311.8;" xml:space="preserve">
<style type="text/css">
	.st0{clip-path:url(#SVGID_2_);fill-rule:evenodd;clip-rule:evenodd;fill:#FFFFFF;}
	.st1{clip-path:url(#SVGID_4_);fill:none;stroke:#000000;stroke-width:12.24;stroke-miterlimit:10;}
	.st2{fill-rule:evenodd;clip-rule:evenodd;}
	.st3{fill:none;stroke:#000000;stroke-width:6;stroke-miterlimit:10;}
	.st4{fill-rule:evenodd;clip-rule:evenodd;fill:#FFFFFF;}
	.st5{fill:none;stroke:#000000;stroke-width:10.2;stroke-miterlimit:10;}
	.st6{fill:#262626;}
	.st7{clip-path:url(#SVGID_6_);fill-rule:evenodd;clip-rule:evenodd;fill:#FFFFFF;}
	
		.st8{clip-path:url(#SVGID_8_);fill:none;stroke:#0D0D0D;stroke-width:6;stroke-linecap:round;stroke-linejoin:round;stroke-miterlimit:10;}
	.st9{fill:none;stroke:#0D0D0D;stroke-width:4.56;stroke-miterlimit:10;}
</style>
<g>
	<defs>
		<rect id="SVGID_1_" y="0" width="311.8" height="311.8"/>
	</defs>
	<clipPath id="SVGID_2_">
		<use xlink:href="#SVGID_1_"  style="overflow:visible;"/>
	</clipPath>
	<rect y="0" class="st0" width="311.8" height="311.8"/>
</g>
<g>
	<defs>
		<rect id="SVGID_3_" y="0" width="311.8" height="311.8"/>
	</defs>
	<clipPath id="SVGID_4_">
		<use xlink:href="#SVGID_3_"  style="overflow:visible;"/>
	</clipPath>
	<path class="st1" d="M5.9,37.3c0-17.2,14-31.2,31.2-31.2h237.4c17.2,0,31.2,14,31.2,31.2v237.4c0,17.2-14,31.2-31.2,31.2H37
		c-17.2,0-31.2-14-31.2-31.2V37.3z"/>
</g>
<path class="st2" d="M116.4,158.5c13.9,0,26.5,5.7,35.6,14.9l4.8,5.9l3.8-3.1c6.9-4.7,15.1-7.4,24-7.4c20.8,0,38.1,14.9,42.1,34.8
	l0.6,6h9.3c18,0,32.5,14.7,32.5,32.9s-14.6,32.9-32.5,32.9H77.6c-15.7,0-28.8-11.3-31.8-26.3l-0.7-6.6l0.7-6.6
	c2.2-10.7,9.5-19.5,19.2-23.7l1.3-0.4l-0.2-2.2C66,181.4,88.6,158.5,116.4,158.5z"/>
<path class="st3" d="M116.4,158.5c13.9,0,26.5,5.7,35.6,14.9l4.8,5.9l3.8-3.1c6.9-4.7,15.1-7.4,24-7.4c20.8,0,38.1,14.9,42.1,34.8
	l0.6,6h9.3c18,0,32.5,14.7,32.5,32.9s-14.6,32.9-32.5,32.9H77.6c-15.7,0-28.8-11.3-31.8-26.3l-0.7-6.6l0.7-6.6
	c2.2-10.7,9.5-19.5,19.2-23.7l1.3-0.4l-0.2-2.2C66,181.4,88.6,158.5,116.4,158.5z"/>
<path class="st4" d="M120,189.2h74.2c1.8,0,3.2,1.4,3.2,3.2v12.9c0,1.8-1.4,3.2-3.2,3.2H120c-1.8,0-3.2-1.4-3.2-3.2v-12.9
	C116.8,190.7,118.2,189.2,120,189.2z M185.3,195.3c-2.3,0-4.2,1.9-4.2,4.2c0,2.3,1.9,4.2,4.2,4.2c2.3,0,4.2-1.9,4.2-4.2
	C189.6,197.2,187.7,195.3,185.3,195.3z M120,217.5h74.2c1.8,0,3.2,1.4,3.2,3.2v12.8c0,1.8-1.4,3.2-3.2,3.2H120
	c-1.8,0-3.2-1.4-3.2-3.2v-12.8C116.8,218.9,118.2,217.5,120,217.5z M185.3,223.6c-2.3,0-4.2,1.9-4.2,4.2c0,2.3,1.9,4.2,4.2,4.2
	c2.3,0,4.2-1.9,4.2-4.2C189.6,225.5,187.7,223.6,185.3,223.6z M120,245.2h74.2c1.8,0,3.2,1.4,3.2,3.2v12.8c0,1.8-1.4,3.2-3.2,3.2
	H120c-1.8,0-3.2-1.4-3.2-3.2v-12.8C116.8,246.6,118.2,245.2,120,245.2z M185.3,251.3c-2.3,0-4.2,1.9-4.2,4.2s1.9,4.2,4.2,4.2
	c2.3,0,4.2-1.9,4.2-4.2S187.7,251.3,185.3,251.3z"/>
<line class="st5" x1="134" y1="175.6" x2="170" y2="275.5"/>
<path class="st6" d="M170.7,131.5l-13.4,27l-13.6-27L170.7,131.5z M161.6,104.9l0.1,31.1l-9,0l-0.1-31.1L161.6,104.9z"/>
<g>
	<defs>
		<polyline id="SVGID_5_" points="0,0 311.8,0 311.8,311.8 0,311.8 		"/>
	</defs>
	<clipPath id="SVGID_6_">
		<use xlink:href="#SVGID_5_"  style="overflow:visible;"/>
	</clipPath>
	<polygon class="st7" points="157.1,31.1 194.5,54.8 194.5,94 157.1,117.7 119.8,94 119.8,54.8 	"/>
</g>
<g>
	<defs>
		<polyline id="SVGID_7_" points="0,0 311.8,0 311.8,311.8 0,311.8 		"/>
	</defs>
	<clipPath id="SVGID_8_">
		<use xlink:href="#SVGID_7_"  style="overflow:visible;"/>
	</clipPath>
	<polygon class="st8" points="157.1,31.1 194.5,54.8 194.5,94 157.1,117.7 119.8,94 119.8,54.8 	"/>
</g>
<line class="st9" x1="157.1" y1="74.4" x2="157.1" y2="117.8"/>
<line class="st9" x1="193.9" y1="54.2" x2="156.1" y2="76.7"/>
<line class="st9" x1="120.2" y1="54.2" x2="157.6" y2="76.7"/>
</svg>
