<svg width="1430" height="1430" xmlns="http://www.w3.org/2000/svg" xmlns:xlink="http://www.w3.org/1999/xlink" xml:space="preserve" overflow="hidden"><defs><clipPath id="clip0"><rect x="-1" y="0" width="1430" height="1430"/></clipPath><clipPath id="clip1"><rect x="225" y="521" width="394" height="394"/></clipPath><clipPath id="clip2"><rect x="225" y="521" width="394" height="394"/></clipPath><clipPath id="clip3"><rect x="225" y="521" width="394" height="394"/></clipPath></defs><g clip-path="url(#clip0)" transform="translate(1 0)"><path d="M27.0002 170.841C27.0002 91.9519 90.9523 27.9998 169.841 27.9998L1258.16 27.9998C1337.05 27.9998 1401 91.9519 1401 170.841L1401 1259.16C1401 1338.05 1337.05 1402 1258.16 1402L169.841 1402C90.9523 1402 27.0002 1338.05 27.0002 1259.16Z" stroke="#000000" stroke-width="56.1458" stroke-miterlimit="8" fill="#FFFFFF" fill-rule="evenodd"/><rect x="394" y="183" width="773" height="1073" stroke="#404040" stroke-width="13.75" stroke-miterlimit="8" stroke-dasharray="13.75 13.75" fill="none"/><path d="M935.75 832 935.75 877.343 908.25 877.344 908.25 832ZM963.25 863.593 922 946.094 880.75 863.594Z" fill="#262626"/><path d="M801.5 632.467C801.5 612.051 818.051 595.5 838.467 595.5L1007.53 595.5C1027.95 595.5 1044.5 612.051 1044.5 632.467L1044.5 795.533C1044.5 815.949 1027.95 832.5 1007.53 832.5L838.467 832.5C818.051 832.5 801.5 815.949 801.5 795.533Z" stroke="#262626" stroke-width="20.625" stroke-miterlimit="8" fill="#BFBFBF" fill-rule="evenodd"/><path d="M801.5 983.467C801.5 963.051 818.051 946.5 838.467 946.5L1007.53 946.5C1027.95 946.5 1044.5 963.051 1044.5 983.467L1044.5 1146.53C1044.5 1166.95 1027.95 1183.5 1007.53 1183.5L838.467 1183.5C818.051 1183.5 801.5 1166.95 801.5 1146.53Z" stroke="#262626" stroke-width="20.625" stroke-miterlimit="8" fill="#7F7F7F" fill-rule="evenodd"/><path d="M803.5 282.843C803.5 262.771 819.771 246.5 839.843 246.5L1010.16 246.5C1030.23 246.5 1046.5 262.771 1046.5 282.843L1046.5 443.157C1046.5 463.229 1030.23 479.5 1010.16 479.5L839.843 479.5C819.771 479.5 803.5 463.229 803.5 443.157Z" stroke="#262626" stroke-width="20.625" stroke-miterlimit="8" fill="#D9D9D9" fill-rule="evenodd"/><path d="M13.7477-0.253427 14.6282 47.513-12.8671 48.0198-13.7477 0.253427ZM41.8701 33.2585 2.14767 116.505-40.6159 34.779Z" fill="#262626" transform="matrix(-1 0 0 1 924.148 479)"/><path d="M145 717C145 567.883 265.883 447 415 447 564.117 447 685 567.883 685 717 685 866.117 564.117 987 415 987 265.883 987 145 866.117 145 717Z" stroke="#000000" stroke-width="42.3958" stroke-miterlimit="8" fill="#FFFFFF" fill-rule="evenodd"/><g clip-path="url(#clip1)"><g clip-path="url(#clip2)"><g clip-path="url(#clip3)"><path d="M561.097 614.747 532.031 606.969 524.253 577.903 561.097 541.06C538.991 532.872 514.428 537.375 496.825 553.341 479.631 569.306 472.263 593.459 478.813 615.975L319.975 774.813C297.46 768.672 273.306 776.041 257.75 793.234 242.194 810.428 237.281 834.991 245.469 857.097L282.313 820.253 310.969 828.031 318.747 857.097 281.903 893.941C304.01 902.128 328.572 897.625 346.175 881.659 363.369 865.694 370.738 841.541 364.188 819.025L523.025 660.188C545.541 666.328 569.694 658.959 585.25 641.766 600.806 624.572 605.719 600.009 597.531 577.903L561.097 614.747Z" fill="#3B3838"/></g></g></g><path d="M224 526 605.829 907.831" stroke="#000000" stroke-width="58.4375" stroke-miterlimit="8" fill="none" fill-rule="evenodd"/></g></svg>