<?xml version="1.0" encoding="utf-8"?>
<!-- Generator: Adobe Illustrator 19.0.0, SVG Export Plug-In . SVG Version: 6.00 Build 0)  -->
<svg version="1.1" id="Ebene_1" xmlns="http://www.w3.org/2000/svg" xmlns:xlink="http://www.w3.org/1999/xlink" x="0px" y="0px"
	 viewBox="0 0 311.8 311.8" style="enable-background:new 0 0 311.8 311.8;" xml:space="preserve">
<style type="text/css">
	.st0{clip-path:url(#SVGID_2_);fill-rule:evenodd;clip-rule:evenodd;fill:#FFFFFF;}
	.st1{fill-rule:evenodd;clip-rule:evenodd;fill:#FFFFFF;}
	.st2{clip-path:url(#SVGID_4_);fill:none;stroke:#000000;stroke-width:12.25;stroke-miterlimit:10;}
	.st3{fill:none;stroke:#404040;stroke-width:3;stroke-miterlimit:10;stroke-dasharray:3,3;}
	.st4{fill:#262626;}
	.st5{fill-rule:evenodd;clip-rule:evenodd;fill:#BFBFBF;}
	.st6{fill:none;stroke:#262626;stroke-width:4.5;stroke-miterlimit:10;}
	.st7{fill-rule:evenodd;clip-rule:evenodd;fill:#7F7F7F;}
	.st8{fill-rule:evenodd;clip-rule:evenodd;fill:#D9D9D9;}
	.st9{fill:none;stroke:#000000;stroke-width:9.25;stroke-miterlimit:10;}
	.st10{clip-path:url(#SVGID_6_);}
	.st11{clip-path:url(#SVGID_8_);fill:#3B3838;}
	.st12{fill:none;stroke:#000000;stroke-width:12.75;stroke-miterlimit:10;}
</style>
<g>
	<defs>
		<rect id="SVGID_1_" y="0" width="311.8" height="311.8"/>
	</defs>
	<clipPath id="SVGID_2_">
		<use xlink:href="#SVGID_1_"  style="overflow:visible;"/>
	</clipPath>
	<rect y="0" class="st0" width="311.8" height="311.8"/>
</g>
<path class="st1" d="M5.9,37.3c0-17.2,14-31.2,31.2-31.2h237.4c17.2,0,31.2,14,31.2,31.2v237.4c0,17.2-14,31.2-31.2,31.2H37
	c-17.2,0-31.2-14-31.2-31.2V37.3z"/>
<g>
	<defs>
		<rect id="SVGID_3_" y="0" width="311.8" height="311.8"/>
	</defs>
	<clipPath id="SVGID_4_">
		<use xlink:href="#SVGID_3_"  style="overflow:visible;"/>
	</clipPath>
	<path class="st2" d="M5.9,37.3c0-17.2,14-31.2,31.2-31.2h237.4c17.2,0,31.2,14,31.2,31.2v237.4c0,17.2-14,31.2-31.2,31.2H37
		c-17.2,0-31.2-14-31.2-31.2V37.3z"/>
</g>
<rect x="86.1" y="39.9" class="st3" width="168.6" height="234.1"/>
<path class="st4" d="M210.2,188.5l-9,18l-9-18H210.2z M204.2,181.6v9.9h-6v-9.9H204.2z"/>
<path class="st5" d="M174.7,138c0-4.4,3.6-8.1,8.1-8.1h36.9c4.4,0,8,3.6,8,8.1v35.5c0,4.4-3.6,8.1-8,8.1h-36.9
	c-4.4,0-8.1-3.6-8.1-8.1V138z"/>
<path class="st6" d="M174.7,138c0-4.4,3.6-8.1,8.1-8.1h36.9c4.4,0,8,3.6,8,8.1v35.5c0,4.4-3.6,8.1-8,8.1h-36.9
	c-4.4,0-8.1-3.6-8.1-8.1V138z"/>
<path class="st7" d="M174.7,214.6c0-4.4,3.6-8,8.1-8h36.9c4.4,0,8,3.6,8,8v35.5c0,4.4-3.6,8-8,8h-36.9c-4.4,0-8.1-3.6-8.1-8V214.6z"
	/>
<path class="st6" d="M174.7,214.6c0-4.4,3.6-8,8.1-8h36.9c4.4,0,8,3.6,8,8v35.5c0,4.4-3.6,8-8,8h-36.9c-4.4,0-8.1-3.6-8.1-8V214.6z"
	/>
<path class="st8" d="M175.2,61.6c0-4.4,3.6-7.9,7.9-7.9h37.2c4.4,0,7.9,3.5,7.9,7.9v35c0,4.4-3.6,7.9-7.9,7.9h-37.2
	c-4.4,0-7.9-3.5-7.9-7.9V61.6z"/>
<path class="st6" d="M175.2,61.6c0-4.4,3.6-7.9,7.9-7.9h37.2c4.4,0,7.9,3.5,7.9,7.9v35c0,4.4-3.6,7.9-7.9,7.9h-37.2
	c-4.4,0-7.9-3.5-7.9-7.9V61.6z"/>
<path class="st4" d="M192.6,111.8l8.7,18.2l9.3-17.8L192.6,111.8z M198.7,104.5l-0.2,10.4l6,0.1l0.2-10.4L198.7,104.5z"/>
<circle class="st1" cx="90.5" cy="156.5" r="58.9"/>
<circle class="st9" cx="90.5" cy="156.5" r="58.9"/>
<g>
	<defs>
		<rect id="SVGID_5_" x="49.1" y="113.6" width="85.8" height="85.7"/>
	</defs>
	<clipPath id="SVGID_6_">
		<use xlink:href="#SVGID_5_"  style="overflow:visible;"/>
	</clipPath>
	<g class="st10">
		<defs>
			<rect id="SVGID_7_" x="49.1" y="113.6" width="85.8" height="85.7"/>
		</defs>
		<clipPath id="SVGID_8_">
			<use xlink:href="#SVGID_7_"  style="overflow:visible;"/>
		</clipPath>
		<path class="st11" d="M122.2,134.5l-6.3-1.7l-1.7-6.3l7.9-7.9c-4.8-1.8-10.1-0.8-13.9,2.6c-3.7,3.4-5.3,8.6-3.9,13.5l-34.3,34.2
			c-4.9-1.3-10.1,0.3-13.4,4c-3.4,3.7-4.4,9-2.6,13.8l7.9-7.9l6.2,1.7l1.7,6.3l-7.9,7.9c4.8,1.8,10.1,0.8,13.9-2.6
			c3.7-3.4,5.3-8.6,3.9-13.5l34.3-34.2c4.9,1.3,10.1-0.3,13.4-4c3.4-3.7,4.4-9,2.6-13.8L122.2,134.5z"/>
	</g>
</g>
<line class="st12" x1="48.8" y1="114.8" x2="132.1" y2="198.2"/>
</svg>
