<svg width="1430" height="1430" xmlns="http://www.w3.org/2000/svg" xmlns:xlink="http://www.w3.org/1999/xlink" xml:space="preserve" overflow="hidden"><defs><clipPath id="clip0"><rect x="-1" y="0" width="1430" height="1430"/></clipPath></defs><g clip-path="url(#clip0)" transform="translate(1 0)"><path d="M27.0002 170.841C27.0002 91.9519 90.9523 27.9998 169.841 27.9998L1258.16 27.9998C1337.05 27.9998 1401 91.9519 1401 170.841L1401 1259.16C1401 1338.05 1337.05 1402 1258.16 1402L169.841 1402C90.9523 1402 27.0002 1338.05 27.0002 1259.16Z" stroke="#000000" stroke-width="56.1458" stroke-miterlimit="8" fill="#FFFFFF" fill-rule="evenodd"/><path d="M742.831 872C791.583 872 835.72 892.422 867.669 925.44L884.57 946.61 897.733 935.387C921.771 918.603 950.749 908.803 981.942 908.803 1054.73 908.803 1115.45 962.159 1129.5 1033.09L1131.58 1054.46 1164.04 1054.46C1226.98 1054.46 1278 1107.18 1278 1172.23L1278 1172.23C1278 1237.27 1226.98 1290 1164.04 1290L606.958 1290C551.888 1290 505.941 1249.63 495.315 1195.96L493 1172.23 495.315 1148.49C502.905 1110.16 528.516 1078.61 562.6 1063.71L567.047 1062.28 566.284 1054.46C566.284 953.688 645.327 872 742.831 872Z" stroke="#000000" stroke-width="27.5" stroke-miterlimit="8" fill-rule="evenodd"/><path d="M921.124 668.317 922.195 788.928 880.947 789.294 879.876 668.683ZM963.261 767.938 902.487 892.232 839.515 769.036Z" fill="#262626"/><path d="M769 446.867C769 424.297 787.297 406 809.867 406L990.133 406C1012.7 406 1031 424.297 1031 446.867L1031 627.133C1031 649.703 1012.7 668 990.133 668L809.867 668C787.297 668 769 649.703 769 627.133Z" stroke="#262626" stroke-width="40.1042" stroke-miterlimit="8" fill="#7F7F7F" fill-rule="evenodd"/><path d="M848.769 1147.49C839.927 1162.8 845.174 1182.39 860.49 1191.23 875.805 1200.07 895.389 1194.83 904.231 1179.51 913.074 1164.2 907.826 1144.61 892.511 1135.77 877.195 1126.93 857.612 1132.17 848.769 1147.49ZM795.041 1129.59 806.404 1109.91 824.213 1120.19 825.688 1118.35C827.186 1116.66 828.758 1115.06 830.395 1113.55L833.189 1111.21 822.909 1093.4 842.59 1082.04 852.841 1099.8 858.911 1097.85 865.137 1096.5 865.137 1076 887.863 1076 887.863 1096.56 891.451 1097.19C893.625 1097.68 895.787 1098.28 897.929 1098.99L900.128 1099.85 910.409 1082.04 930.09 1093.4 919.809 1111.21 921.652 1112.69C923.341 1114.19 924.943 1115.76 926.455 1117.39L928.791 1120.19 946.596 1109.91 957.958 1129.59 940.205 1139.84 942.146 1145.91 943.5 1152.14 964 1152.14 964 1174.86 943.441 1174.86 942.815 1178.45C942.324 1180.62 941.723 1182.79 941.009 1184.93L940.151 1187.13 957.958 1197.41 946.596 1217.09 928.788 1206.81 927.312 1208.65C925.814 1210.34 924.243 1211.94 922.606 1213.46L919.811 1215.79 930.09 1233.6 910.409 1244.96 900.159 1227.2 894.09 1229.15 887.863 1230.5 887.863 1251 865.137 1251 865.137 1230.44 861.549 1229.82C859.375 1229.32 857.214 1228.72 855.071 1228.01L852.872 1227.15 842.59 1244.96 822.909 1233.6 833.191 1215.79 831.348 1214.31C829.659 1212.81 828.057 1211.24 826.545 1209.61L824.209 1206.81 806.404 1217.09 795.041 1197.41 812.795 1187.16 810.855 1181.09 809.501 1174.86 789 1174.86 789 1152.14 809.559 1152.14 810.185 1148.55C810.676 1146.38 811.277 1144.21 811.991 1142.07L812.85 1139.87Z" fill="#FFFFFF" fill-rule="evenodd"/><path d="M1000 1105.37C1000 1116.08 1048.8 1124.75 1109 1124.75 1169.2 1124.75 1218 1116.08 1218 1105.37L1218 1221.62C1218 1232.33 1169.2 1241 1109 1241 1048.8 1241 1000 1232.33 1000 1221.62Z" fill="#FFFFFF" fill-rule="evenodd"/><path d="M1000 1105.37C1000 1094.67 1048.8 1086 1109 1086 1169.2 1086 1218 1094.67 1218 1105.37 1218 1116.08 1169.2 1124.75 1109 1124.75 1048.8 1124.75 1000 1116.08 1000 1105.37Z" fill="#FFFFFF" fill-rule="evenodd"/><path d="M1218 1105.37C1218 1116.08 1169.2 1124.75 1109 1124.75 1048.8 1124.75 1000 1116.08 1000 1105.37 1000 1094.67 1048.8 1086 1109 1086 1169.2 1086 1218 1094.67 1218 1105.37L1218 1221.62C1218 1232.33 1169.2 1241 1109 1241 1048.8 1241 1000 1232.33 1000 1221.62L1000 1105.37" stroke="#000000" stroke-width="10.3125" stroke-miterlimit="8" fill="none" fill-rule="evenodd"/><path d="M728.964 1096C719.556 1096 711.929 1126.22 711.929 1163.5 711.929 1200.78 719.556 1231 728.964 1231L553.036 1231C543.627 1231 536 1200.78 536 1163.5 536 1126.22 543.627 1096 553.036 1096Z" fill="#FFFFFF" fill-rule="evenodd"/><path d="M728.964 1096C738.373 1096 746 1126.22 746 1163.5 746 1200.78 738.373 1231 728.964 1231 719.556 1231 711.929 1200.78 711.929 1163.5 711.929 1126.22 719.556 1096 728.964 1096Z" fill="#FFFFFF" fill-rule="evenodd"/><path d="M728.964 1231C719.556 1231 711.929 1200.78 711.929 1163.5 711.929 1126.22 719.556 1096 728.964 1096 738.373 1096 746 1126.22 746 1163.5 746 1200.78 738.373 1231 728.964 1231L553.036 1231C543.627 1231 536 1200.78 536 1163.5 536 1126.22 543.627 1096 553.036 1096L728.964 1096" stroke="#000000" stroke-width="10.3125" stroke-miterlimit="8" fill="none" fill-rule="evenodd"/><path d="M360.994 269C393.848 269 420.48 295.796 420.48 328.852 420.48 345.379 413.822 360.342 403.057 371.173L391.983 378.686 392.224 378.734C421.475 391.183 442 420.326 442 454.292L441.999 491 279 491 279 454.292C279 420.326 299.525 391.183 328.777 378.734L329.778 378.531 318.932 371.173C308.167 360.342 301.509 345.379 301.509 328.852 301.509 295.796 328.141 269 360.994 269Z" fill-rule="evenodd"/><path d="M351.22 235.865C351.22 195.794 351.22 195.794 351.22 195.794 250.519 195.794 168.287 279.459 168.287 382.5 168.287 451.194 204.786 511.081 259.314 543.667 205.225 575.371 205.225 575.371 205.225 575.371 148.499 530.896 112 460.882 112 382.5 112 248.195 219.297 138.549 351.22 138.549 351.22 102 351.22 102 351.22 102 464.673 168.933 464.673 168.933 464.673 168.933L351.22 235.865ZM496.775 189.629C443.126 221.334 443.126 221.334 443.126 221.334 497.214 253.919 533.713 313.806 533.713 382.5 533.713 485.541 451.921 569.207 351.22 569.207 351.22 529.135 351.22 529.135 351.22 529.135 237.327 596.068 237.327 596.068 237.327 596.068 351.22 663 351.22 663 351.22 663 351.22 626.451 351.22 626.451 351.22 626.451 482.703 626.451 590 517.246 590 382.5 590 304.119 553.501 234.104 496.775 189.629Z" fill-rule="evenodd"/></g></svg>