<?xml version="1.0" encoding="utf-8"?>
<!-- Generator: Adobe Illustrator 19.0.0, SVG Export Plug-In . SVG Version: 6.00 Build 0)  -->
<svg version="1.1" id="Ebene_1" xmlns="http://www.w3.org/2000/svg" xmlns:xlink="http://www.w3.org/1999/xlink" x="0px" y="0px"
	 viewBox="0 0 311.8 311.8" style="enable-background:new 0 0 311.8 311.8;" xml:space="preserve">
<style type="text/css">
	.st0{clip-path:url(#SVGID_2_);fill-rule:evenodd;clip-rule:evenodd;fill:#FFFFFF;}
	.st1{fill-rule:evenodd;clip-rule:evenodd;}
	.st2{fill:none;stroke:#000000;stroke-width:6;stroke-miterlimit:10;}
	.st3{clip-path:url(#SVGID_4_);fill:none;stroke:#000000;stroke-width:12.24;stroke-miterlimit:10;}
	.st4{fill:#262626;}
	.st5{fill-rule:evenodd;clip-rule:evenodd;fill:#7F7F7F;}
	.st6{fill:none;stroke:#262626;stroke-width:8.76;stroke-miterlimit:10;}
	.st7{fill-rule:evenodd;clip-rule:evenodd;fill:#FFFFFF;}
	.st8{fill:none;stroke:#000000;stroke-width:2.28;stroke-miterlimit:10;}
	.st9{clip-path:url(#SVGID_6_);fill-rule:evenodd;clip-rule:evenodd;fill:#FFFFFF;}
	.st10{clip-path:url(#SVGID_8_);fill-rule:evenodd;clip-rule:evenodd;fill:#FFFFFF;}
	.st11{clip-path:url(#SVGID_10_);fill:none;stroke:#000000;stroke-width:2.28;stroke-miterlimit:10;}
</style>
<g>
	<defs>
		<rect id="SVGID_1_" y="0" width="311.8" height="311.8"/>
	</defs>
	<clipPath id="SVGID_2_">
		<use xlink:href="#SVGID_1_"  style="overflow:visible;"/>
	</clipPath>
	<rect y="0" class="st0" width="311.8" height="311.8"/>
</g>
<path class="st1" d="M162,190.3c10.6,0,20.3,4.5,27.2,11.7l3.7,4.6l2.9-2.4c5.2-3.7,11.6-5.8,18.4-5.8c15.9,0,29.1,11.6,32.2,27.1
	l0.5,4.7h7.1c13.7,0,24.9,11.5,24.9,25.7c0,14.2-11.1,25.7-24.9,25.7H132.4c-12,0-22-8.8-24.4-20.5l-0.5-5.2l0.5-5.2
	c1.7-8.4,7.2-15.2,14.7-18.5l1-0.3l-0.2-1.7C123.5,208.1,140.8,190.3,162,190.3z"/>
<path class="st2" d="M162,190.3c10.6,0,20.3,4.5,27.2,11.7l3.7,4.6l2.9-2.4c5.2-3.7,11.6-5.8,18.4-5.8c15.9,0,29.1,11.6,32.2,27.1
	l0.5,4.7h7.1c13.7,0,24.9,11.5,24.9,25.7c0,14.2-11.1,25.7-24.9,25.7H132.4c-12,0-22-8.8-24.4-20.5l-0.5-5.2l0.5-5.2
	c1.7-8.4,7.2-15.2,14.7-18.5l1-0.3l-0.2-1.7C123.5,208.1,140.8,190.3,162,190.3z"/>
<g>
	<defs>
		<rect id="SVGID_3_" y="0" width="311.8" height="311.8"/>
	</defs>
	<clipPath id="SVGID_4_">
		<use xlink:href="#SVGID_3_"  style="overflow:visible;"/>
	</clipPath>
	<path class="st3" d="M5.9,37.3c0-17.2,14-31.2,31.2-31.2h237.4c17.2,0,31.2,14,31.2,31.2v237.4c0,17.2-14,31.2-31.2,31.2H37
		c-17.2,0-31.2-14-31.2-31.2V37.3z"/>
</g>
<path class="st4" d="M210.1,167.4l-13.3,27.1l-13.7-26.9L210.1,167.4z M200.9,145.7l0.2,26.3l-9,0.1l-0.2-26.3L200.9,145.7z"/>
<path class="st5" d="M167.9,97.6c0-4.9,4-8.9,8.9-8.9h39.2c4.9,0,8.9,4,8.9,8.9v39.2c0,4.9-4,8.9-8.9,8.9h-39.2
	c-4.9,0-8.9-4-8.9-8.9V97.6z"/>
<path class="st6" d="M167.9,97.6c0-4.9,4-8.9,8.9-8.9h39.2c4.9,0,8.9,4,8.9,8.9v39.2c0,4.9-4,8.9-8.9,8.9h-39.2
	c-4.9,0-8.9-4-8.9-8.9V97.6z"/>
<path class="st7" d="M173.4,246.4l2.5-4.3l3.9,2.3l0.3-0.4c0.3-0.4,0.7-0.7,1-1l0.6-0.5l-2.3-3.9l4.3-2.5l2.2,3.9l1.3-0.4l1.4-0.3
	v-4.5h5v4.5l0.8,0.1c0.5,0.1,0.9,0.2,1.4,0.4l0.5,0.2l2.2-3.9l4.3,2.5l-2.3,3.9l0.4,0.3c0.4,0.3,0.7,0.7,1,1l0.5,0.6l3.9-2.2
	l2.5,4.3l-3.9,2.2l0.4,1.3l0.3,1.4h4.5v5h-4.5l-0.1,0.8c-0.1,0.5-0.2,0.9-0.4,1.4L205,259l3.9,2.2l-2.5,4.3l-3.9-2.2l-0.3,0.4
	c-0.3,0.4-0.7,0.7-1,1.1l-0.6,0.5l2.3,3.9l-4.3,2.5l-2.2-3.9l-1.3,0.4l-1.4,0.3v4.5h-5v-4.5l-0.8-0.1c-0.5-0.1-0.9-0.2-1.4-0.4
	l-0.5-0.2l-2.2,3.9l-4.3-2.5l2.3-3.9l-0.4-0.3c-0.4-0.3-0.7-0.7-1-1l-0.5-0.6l-3.9,2.2l-2.5-4.3l3.9-2.2l-0.4-1.3l-0.3-1.4h-4.5v-5
	h4.5l0.1-0.8c0.1-0.5,0.2-0.9,0.4-1.4l0.2-0.5L173.4,246.4z M185.1,250.4c-1.9,3.4-0.8,7.6,2.6,9.6c3.3,1.9,7.6,0.8,9.5-2.6
	c1.9-3.3,0.8-7.6-2.6-9.6C191.3,245.9,187,247,185.1,250.4z"/>
<path class="st7" d="M218.1,241.3c0,2.3,10.7,4.2,23.9,4.2s23.9-1.9,23.9-4.2v25.3c0,2.3-10.7,4.2-23.9,4.2s-23.9-1.9-23.9-4.2
	V241.3z"/>
<ellipse class="st7" cx="242" cy="241.3" rx="23.9" ry="4.2"/>
<path class="st8" d="M265.9,241.3v25.3c0,2.3-10.7,4.2-23.9,4.2s-23.9-1.9-23.9-4.2v-25.3 M265.9,241.3c0,2.3-10.7,4.2-23.9,4.2
	s-23.9-1.9-23.9-4.2s10.7-4.2,23.9-4.2S265.9,238.9,265.9,241.3z"/>
<g>
	<defs>
		<polyline id="SVGID_5_" points="0,0 311.8,0 311.8,311.8 0,311.8 		"/>
	</defs>
	<clipPath id="SVGID_6_">
		<use xlink:href="#SVGID_5_"  style="overflow:visible;"/>
	</clipPath>
	<path class="st9" d="M159.1,239.2c-2.1,0-3.7,6.6-3.7,14.7c0,8.1,1.7,14.7,3.7,14.7h-38.4c-2.1,0-3.7-6.6-3.7-14.7
		c0-8.1,1.7-14.7,3.7-14.7H159.1z"/>
</g>
<g>
	<defs>
		<polyline id="SVGID_7_" points="0,0 311.8,0 311.8,311.8 0,311.8 		"/>
	</defs>
	<clipPath id="SVGID_8_">
		<use xlink:href="#SVGID_7_"  style="overflow:visible;"/>
	</clipPath>
	<ellipse class="st10" cx="159.1" cy="253.9" rx="3.7" ry="14.7"/>
</g>
<g>
	<defs>
		<polyline id="SVGID_9_" points="0,0 311.8,0 311.8,311.8 0,311.8 		"/>
	</defs>
	<clipPath id="SVGID_10_">
		<use xlink:href="#SVGID_9_"  style="overflow:visible;"/>
	</clipPath>
	<path class="st11" d="M159.1,268.6h-38.4c-2.1,0-3.7-6.6-3.7-14.7c0-8.1,1.7-14.7,3.7-14.7h38.4 M159.1,268.6
		c-2.1,0-3.7-6.6-3.7-14.7c0-8.1,1.7-14.7,3.7-14.7c2,0,3.7,6.6,3.7,14.7C162.8,262,161.1,268.6,159.1,268.6z"/>
</g>
<path class="st1" d="M78.8,58.7c7.2,0,13,5.8,13,13c0,3.6-1.5,6.9-3.8,9.2l-2.4,1.6l0.1,0C92,85.3,96.5,91.6,96.5,99v8H60.8v-8
	c0-7.4,4.5-13.7,10.9-16.5l0.2,0l-2.4-1.6c-2.4-2.4-3.8-5.6-3.8-9.2C65.8,64.5,71.6,58.7,78.8,58.7z"/>
<path class="st1" d="M108.4,41.4c-11.7,6.9-11.7,6.9-11.7,6.9c11.8,7.1,19.8,20.2,19.8,35.1c0,22.5-17.9,40.7-39.9,40.7
	c0-8.7,0-8.7,0-8.7C51.7,130,51.7,130,51.7,130c24.9,14.6,24.9,14.6,24.9,14.6c0-8,0-8,0-8c28.7,0,52.2-23.8,52.2-53.2
	C128.8,66.4,120.8,51.1,108.4,41.4z M76.6,51.5c0-8.7,0-8.7,0-8.7c-22,0-40,18.2-40,40.7c0,15,8,28,19.9,35.1
	c-11.8,6.9-11.8,6.9-11.8,6.9c-12.4-9.7-20.4-25-20.4-42c0-29.3,23.4-53.2,52.2-53.2c0-8,0-8,0-8c24.8,14.6,24.8,14.6,24.8,14.6
	L76.6,51.5z"/>
</svg>
