<?xml version="1.0" encoding="utf-8"?>
<!-- Generator: Adobe Illustrator 19.0.0, SVG Export Plug-In . SVG Version: 6.00 Build 0)  -->
<svg version="1.1" id="Ebene_1" xmlns="http://www.w3.org/2000/svg" xmlns:xlink="http://www.w3.org/1999/xlink" x="0px" y="0px"
	 viewBox="0 0 311.8 311.8" style="enable-background:new 0 0 311.8 311.8;" xml:space="preserve">
<style type="text/css">
	.st0{clip-path:url(#SVGID_2_);fill-rule:evenodd;clip-rule:evenodd;fill:#FFFFFF;}
	.st1{fill-rule:evenodd;clip-rule:evenodd;fill:#FFFFFF;}
	.st2{clip-path:url(#SVGID_4_);fill:none;stroke:#000000;stroke-width:12.25;stroke-miterlimit:10;}
	.st3{fill-rule:evenodd;clip-rule:evenodd;fill:#D9D9D9;}
	.st4{fill:none;stroke:#262626;stroke-width:4.5;stroke-miterlimit:10;}
	.st5{fill-rule:evenodd;clip-rule:evenodd;fill:#404040;}
	.st6{fill:none;stroke:#262626;stroke-width:4.5;stroke-linecap:round;stroke-miterlimit:10;stroke-dasharray:9,9;}
	.st7{fill:none;stroke:#000000;stroke-width:9.25;stroke-miterlimit:10;}
	.st8{clip-path:url(#SVGID_6_);}
	.st9{clip-path:url(#SVGID_8_);}
</style>
<g>
	<defs>
		<rect id="SVGID_1_" y="0" width="311.8" height="311.8"/>
	</defs>
	<clipPath id="SVGID_2_">
		<use xlink:href="#SVGID_1_"  style="overflow:visible;"/>
	</clipPath>
	<rect y="0" class="st0" width="311.8" height="311.8"/>
</g>
<path class="st1" d="M5.9,37.3c0-17.2,14-31.2,31.2-31.2h237.4c17.2,0,31.2,14,31.2,31.2v237.4c0,17.2-14,31.2-31.2,31.2H37
	c-17.2,0-31.2-14-31.2-31.2V37.3z"/>
<g>
	<defs>
		<rect id="SVGID_3_" y="0" width="311.8" height="311.8"/>
	</defs>
	<clipPath id="SVGID_4_">
		<use xlink:href="#SVGID_3_"  style="overflow:visible;"/>
	</clipPath>
	<path class="st2" d="M5.9,37.3c0-17.2,14-31.2,31.2-31.2h237.4c17.2,0,31.2,14,31.2,31.2v237.4c0,17.2-14,31.2-31.2,31.2H37
		c-17.2,0-31.2-14-31.2-31.2V37.3z"/>
</g>
<path class="st3" d="M34.8,76.7c0-4.1,3.3-7.5,7.5-7.5h32.9c4.1,0,7.5,3.3,7.5,7.5v33.9c0,4.1-3.3,7.5-7.5,7.5H42.3
	c-4.1,0-7.5-3.3-7.5-7.5V76.7z"/>
<path class="st4" d="M34.8,76.7c0-4.1,3.3-7.5,7.5-7.5h32.9c4.1,0,7.5,3.3,7.5,7.5v33.9c0,4.1-3.3,7.5-7.5,7.5H42.3
	c-4.1,0-7.5-3.3-7.5-7.5V76.7z"/>
<polygon class="st5" points="34.8,219.1 69.6,184.3 69.6,201.7 242.2,201.7 242.2,184.3 277,219.1 242.2,253.9 242.2,236.5 
	69.6,236.5 69.6,253.9 "/>
<path class="st3" d="M103.7,70.6c0-5.6,4.5-10.1,10.1-10.1h44.8c5.6,0,10.1,4.5,10.1,10.1v46.1c0,5.6-4.5,10.1-10.1,10.1h-44.8
	c-5.6,0-10.1-4.5-10.1-10.1V70.6z"/>
<path class="st6" d="M103.7,70.6c0-5.6,4.5-10.1,10.1-10.1h44.8c5.6,0,10.1,4.5,10.1,10.1v46.1c0,5.6-4.5,10.1-10.1,10.1h-44.8
	c-5.6,0-10.1-4.5-10.1-10.1V70.6z"/>
<path class="st3" d="M189.7,61.6c0-7.5,6.1-13.6,13.6-13.6h60c7.5,0,13.6,6.1,13.6,13.6v60.9c0,7.5-6.1,13.6-13.6,13.6h-60
	c-7.5,0-13.6-6.1-13.6-13.6V61.6z"/>
<path class="st6" d="M189.7,61.6c0-7.5,6.1-13.6,13.6-13.6h60c7.5,0,13.6,6.1,13.6,13.6v60.9c0,7.5-6.1,13.6-13.6,13.6h-60
	c-7.5,0-13.6-6.1-13.6-13.6V61.6z"/>
<circle class="st1" cx="155.9" cy="214.9" r="58.9"/>
<circle class="st7" cx="155.9" cy="214.9" r="58.9"/>
<g>
	<defs>
		<rect id="SVGID_5_" x="107.5" y="161.5" width="98.9" height="98.9"/>
	</defs>
	<clipPath id="SVGID_6_">
		<use xlink:href="#SVGID_5_"  style="overflow:visible;"/>
	</clipPath>
	<g class="st8">
		<defs>
			<rect id="SVGID_7_" x="107.5" y="161.5" width="98.9" height="98.9"/>
		</defs>
		<clipPath id="SVGID_8_">
			<use xlink:href="#SVGID_7_"  style="overflow:visible;"/>
		</clipPath>
		<path class="st9" d="M187.8,211c-0.3,0-0.7,0-1,0l0,0c0-5-2.4-9.6-6.4-12.4c-4.1-2.8-9.3-3.6-13.9-1.9
			c-3.9-7.5-12.4-11.4-20.6-9.5s-14,9.3-14,17.7c0,0,0,0.1,0,0.2c-5.6-0.9-11.2,1.4-14.7,5.9c-3.4,4.6-4,10.6-1.6,15.7
			c2.4,5.1,7.5,8.4,13.1,8.8v0.1h59c6.7,0,12.2-5.5,12.2-12.2C199.9,216.6,194.6,211,187.8,211z"/>
	</g>
</g>
</svg>
