<svg width="1430" height="1430" xmlns="http://www.w3.org/2000/svg" xmlns:xlink="http://www.w3.org/1999/xlink" xml:space="preserve" overflow="hidden"><defs><clipPath id="clip0"><rect x="-1" y="0" width="1430" height="1430"/></clipPath><clipPath id="clip1"><rect x="438" y="621" width="316" height="316"/></clipPath><clipPath id="clip2"><rect x="438" y="621" width="316" height="316"/></clipPath><clipPath id="clip3"><rect x="438" y="621" width="316" height="316"/></clipPath></defs><g clip-path="url(#clip0)" transform="translate(1 0)"><path d="M27.0002 170.841C27.0002 91.9519 90.9523 27.9998 169.841 27.9998L1258.16 27.9998C1337.05 27.9998 1401 91.9519 1401 170.841L1401 1259.16C1401 1338.05 1337.05 1402 1258.16 1402L169.841 1402C90.9523 1402 27.0002 1338.05 27.0002 1259.16Z" stroke="#000000" stroke-width="56.1458" stroke-miterlimit="8" fill="#FFFFFF" fill-rule="evenodd"/><path d="M160.5 274.66C160.5 255.794 175.794 240.5 194.66 240.5L345.34 240.5C364.206 240.5 379.5 255.794 379.5 274.66L379.5 430.34C379.5 449.206 364.206 464.5 345.34 464.5L194.66 464.5C175.794 464.5 160.5 449.206 160.5 430.34Z" stroke="#262626" stroke-width="20.625" stroke-miterlimit="8" fill="#D9D9D9" fill-rule="evenodd"/><path d="M475.5 246.982C475.5 221.311 496.311 200.5 521.982 200.5L727.018 200.5C752.689 200.5 773.5 221.311 773.5 246.982L773.5 458.018C773.5 483.689 752.689 504.5 727.018 504.5L521.982 504.5C496.311 504.5 475.5 483.689 475.5 458.018Z" stroke="#262626" stroke-width="20.625" stroke-linecap="round" stroke-miterlimit="8" stroke-dasharray="41.25 41.25" fill="#D9D9D9" fill-rule="evenodd"/><path d="M870.5 204.736C870.5 170.364 898.364 142.5 932.736 142.5L1207.26 142.5C1241.64 142.5 1269.5 170.364 1269.5 204.736L1269.5 484.264C1269.5 518.636 1241.64 546.5 1207.26 546.5L932.736 546.5C898.364 546.5 870.5 518.636 870.5 484.264Z" stroke="#262626" stroke-width="20.625" stroke-linecap="round" stroke-miterlimit="8" stroke-dasharray="41.25 41.25" fill="#D9D9D9" fill-rule="evenodd"/><path d="M538.194 753.225 889.806 753.225 889.806 1231.78 538.194 1231.78 538.194 753.225ZM496 1274 932 1274 932 711 496 711 496 1274Z" fill="#404040" fill-rule="evenodd"/><path d="M728 852 848 852 848 881 728 881Z" fill="#404040" fill-rule="evenodd"/><path d="M598 929 848.001 929 848.001 957 598 957Z" fill="#404040" fill-rule="evenodd"/><path d="M598 997 848.001 997 848.001 1026 598 1026Z" fill="#404040" fill-rule="evenodd"/><path d="M598 1069 848.001 1069 848.001 1097 598 1097Z" fill="#404040" fill-rule="evenodd"/><path d="M598 1140 848.001 1140 848.001 1168 598 1168Z" fill="#404040" fill-rule="evenodd"/><path d="M910 1017.25 1182.5 1017.25 1182.5 949 1319 1085.5 1182.5 1222 1182.5 1153.75 910 1153.75Z" fill="#404040" fill-rule="evenodd"/><path d="M518 1153.75 244.5 1153.75 244.5 1222 108 1085.5 244.5 949 244.5 1017.25 518 1017.25Z" fill="#404040" fill-rule="evenodd"/><path d="M414 796C414 698.246 493.245 619 591 619 688.754 619 768 698.246 768 796 768 893.755 688.754 973 591 973 493.245 973 414 893.755 414 796Z" stroke="#000000" stroke-width="27.5" stroke-miterlimit="8" fill="#FFFFFF" fill-rule="evenodd"/><g clip-path="url(#clip1)"><g clip-path="url(#clip2)"><g clip-path="url(#clip3)"><path d="M694.779 778.673C693.798 778.673 692.49 778.673 691.508 778.673 691.508 778.673 691.508 778.673 691.508 778.673 691.508 762.646 683.658 747.927 670.902 738.769 657.819 729.61 641.138 727.321 626.092 732.554 613.663 708.35 586.188 695.921 560.021 702.135 533.854 708.35 514.883 731.9 514.883 759.048 514.883 759.048 514.883 759.375 514.883 759.702 496.894 756.758 478.904 764.281 467.783 778.673 456.99 793.392 455.027 812.69 462.55 829.044 470.4 845.398 486.754 856.192 504.744 857.173L504.744 857.5 694.452 857.5C716.04 857.5 733.702 839.837 733.702 818.25 733.702 796.662 716.367 778.673 694.779 778.673Z"/></g></g></g></g></svg>