<svg width="1430" height="1430" xmlns="http://www.w3.org/2000/svg" xmlns:xlink="http://www.w3.org/1999/xlink" xml:space="preserve" overflow="hidden"><defs><clipPath id="clip0"><rect x="-1" y="0" width="1430" height="1430"/></clipPath></defs><g clip-path="url(#clip0)" transform="translate(1 0)"><path d="M27.0002 170.841C27.0002 91.9519 90.9523 27.9998 169.841 27.9998L1258.16 27.9998C1337.05 27.9998 1401 91.9519 1401 170.841L1401 1259.16C1401 1338.05 1337.05 1402 1258.16 1402L169.841 1402C90.9523 1402 27.0002 1338.05 27.0002 1259.16Z" stroke="#000000" stroke-width="56.1458" stroke-miterlimit="8" fill="#FFFFFF" fill-rule="evenodd"/><path d="M374.051 906C416.406 906 454.752 924.761 482.508 955.093L497.192 974.542 508.628 964.231C529.512 948.813 554.688 939.81 581.788 939.81 645.021 939.81 697.779 988.826 709.981 1053.98L711.791 1073.62 739.995 1073.62C794.674 1073.62 839 1122.05 839 1181.81L839 1181.81C839 1241.56 794.674 1290 739.994 1290L256.006 1290C208.161 1290 168.244 1252.91 159.012 1203.61L157 1181.81 159.012 1160C165.606 1124.79 187.856 1095.8 217.468 1082.12L221.332 1080.81 220.668 1073.62C220.668 981.044 289.34 906 374.051 906Z" stroke="#000000" stroke-width="27.5" stroke-miterlimit="8" fill-rule="evenodd"/><path d="M0-17.1875 149.35-17.1875 149.35 142.911 114.975 142.911 114.975 0 132.163 17.1875 0 17.1875ZM183.725 125.723 132.163 228.848 80.6003 125.723Z" fill="#262626" transform="matrix(-1 1.22465e-16 1.22465e-16 1 634.163 677)"/><path d="M634 584.803C634 561.716 652.716 543 675.802 543L860.197 543C883.284 543 902 561.716 902 584.803L902 769.198C902 792.285 883.284 811 860.197 811L675.802 811C652.716 811 634 792.285 634 769.198Z" stroke="#262626" stroke-width="29.7917" stroke-miterlimit="8" fill="#FFFFFF" fill-rule="evenodd"/><path d="M0-17.1875 149.35-17.1875 149.35 142.911 114.975 142.911 114.975 0 132.163 17.1875 0 17.1875ZM183.725 125.723 132.163 228.848 80.6003 125.723Z" fill="#262626" transform="matrix(-1 1.22465e-16 1.22465e-16 1 915.163 298)"/><path d="M915 205.647C915 182.646 933.646 164 956.647 164L1141.35 164C1164.35 164 1183 182.646 1183 205.647L1183 389.353C1183 412.354 1164.35 431 1141.35 431L956.647 431C933.646 431 915 412.354 915 389.353Z" stroke="#262626" stroke-width="29.7917" stroke-miterlimit="8" fill="#FFFFFF" fill-rule="evenodd"/><path d="M575.577 1217.47C567.174 1217.47 560.361 1224.3 560.361 1232.71 560.361 1241.13 567.174 1247.96 575.577 1247.96 583.98 1247.96 590.793 1241.13 590.793 1232.71 590.793 1224.3 583.98 1217.47 575.577 1217.47ZM340.548 1195.59 607.452 1195.59C613.83 1195.59 619 1200.77 619 1207.16L619 1253.43C619 1259.82 613.83 1265 607.452 1265L340.548 1265C334.17 1265 329 1259.82 329 1253.43L329 1207.16C329 1200.77 334.17 1195.59 340.548 1195.59ZM575.577 1117.63C567.174 1117.63 560.361 1124.46 560.361 1132.87 560.361 1141.29 567.174 1148.12 575.577 1148.12 583.98 1148.12 590.793 1141.29 590.793 1132.87 590.793 1124.46 583.98 1117.63 575.577 1117.63ZM340.548 1095.76 607.452 1095.76C613.83 1095.76 619 1100.94 619 1107.32L619 1153.59C619 1159.98 613.83 1165.16 607.452 1165.16L340.548 1165.16C334.17 1165.16 329 1159.98 329 1153.59L329 1107.32C329 1100.94 334.17 1095.76 340.548 1095.76ZM575.577 1015.88C567.174 1015.88 560.361 1022.7 560.361 1031.12 560.361 1039.54 567.174 1046.36 575.577 1046.36 583.98 1046.36 590.793 1039.54 590.793 1031.12 590.793 1022.7 583.98 1015.88 575.577 1015.88ZM340.548 994 607.452 994C613.83 994 619 999.179 619 1005.57L619 1051.84C619 1058.23 613.83 1063.41 607.452 1063.41L340.548 1063.41C334.17 1063.41 329 1058.23 329 1051.84L329 1005.57C329 999.179 334.17 994 340.548 994Z" fill="#FFFFFF" fill-rule="evenodd"/></g></svg>