<?xml version="1.0" encoding="utf-8"?>
<!-- Generator: Adobe Illustrator 19.0.0, SVG Export Plug-In . SVG Version: 6.00 Build 0)  -->
<svg version="1.1" id="Ebene_1" xmlns="http://www.w3.org/2000/svg" xmlns:xlink="http://www.w3.org/1999/xlink" x="0px" y="0px"
	 viewBox="0 0 311.8 311.8" style="enable-background:new 0 0 311.8 311.8;" xml:space="preserve">
<style type="text/css">
	.st0{clip-path:url(#SVGID_2_);fill-rule:evenodd;clip-rule:evenodd;fill:#FFFFFF;}
	.st1{fill-rule:evenodd;clip-rule:evenodd;}
	.st2{fill:none;stroke:#000000;stroke-width:6;stroke-miterlimit:10;}
	.st3{clip-path:url(#SVGID_4_);fill:none;stroke:#000000;stroke-width:12.24;stroke-miterlimit:10;}
	.st4{fill:#262626;}
	.st5{fill-rule:evenodd;clip-rule:evenodd;fill:#7F7F7F;}
	.st6{fill:none;stroke:#262626;stroke-width:6.48;stroke-miterlimit:10;}
	.st7{fill-rule:evenodd;clip-rule:evenodd;fill:#A6A6A6;}
	.st8{fill-rule:evenodd;clip-rule:evenodd;fill:#FFFFFF;}
</style>
<g>
	<defs>
		<rect id="SVGID_1_" y="0" width="311.8" height="311.8"/>
	</defs>
	<clipPath id="SVGID_2_">
		<use xlink:href="#SVGID_1_"  style="overflow:visible;"/>
	</clipPath>
	<rect y="0" class="st0" width="311.8" height="311.8"/>
</g>
<path class="st1" d="M81.6,197.8c9.2,0,17.6,4.1,23.6,10.7l3.2,4.2l2.5-2.3c4.5-3.4,10-5.3,15.9-5.3c13.8,0,25.3,10.7,27.9,24.9
	l0.4,4.3h6.1c11.9,0,21.6,10.6,21.6,23.6c0,13-9.7,23.6-21.6,23.6H55.9c-10.4,0-19.1-8.1-21.1-18.8l-0.4-4.8l0.4-4.8
	c1.4-7.7,6.3-14,12.7-17l0.8-0.3l-0.1-1.6C48.2,214.1,63.2,197.8,81.6,197.8z"/>
<path class="st2" d="M81.6,197.8c9.2,0,17.6,4.1,23.6,10.7l3.2,4.2l2.5-2.3c4.5-3.4,10-5.3,15.9-5.3c13.8,0,25.3,10.7,27.9,24.9
	l0.4,4.3h6.1c11.9,0,21.6,10.6,21.6,23.6c0,13-9.7,23.6-21.6,23.6H55.9c-10.4,0-19.1-8.1-21.1-18.8l-0.4-4.8l0.4-4.8
	c1.4-7.7,6.3-14,12.7-17l0.8-0.3l-0.1-1.6C48.2,214.1,63.2,197.8,81.6,197.8z"/>
<g>
	<defs>
		<rect id="SVGID_3_" y="0" width="311.8" height="311.8"/>
	</defs>
	<clipPath id="SVGID_4_">
		<use xlink:href="#SVGID_3_"  style="overflow:visible;"/>
	</clipPath>
	<path class="st3" d="M5.9,37.3c0-17.2,14-31.2,31.2-31.2h237.4c17.2,0,31.2,14,31.2,31.2v237.4c0,17.2-14,31.2-31.2,31.2H37
		c-17.2,0-31.2-14-31.2-31.2V37.3z"/>
</g>
<path class="st4" d="M98.3,175l11.3,22.7L121,175H98.3z M138.5,144h-32.6v34.8h7.6v-31l-3.8,3.8h28.8V144z"/>
<path class="st5" d="M138.4,127.7c0-5,4.1-9.1,9.1-9.1h40.2c5,0,9.1,4.1,9.1,9.1v40.2c0,5-4.1,9.1-9.1,9.1h-40.2
	c-5,0-9.1-4.1-9.1-9.1V127.7z"/>
<path class="st6" d="M138.4,127.7c0-5,4.1-9.1,9.1-9.1h40.2c5,0,9.1,4.1,9.1,9.1v40.2c0,5-4.1,9.1-9.1,9.1h-40.2
	c-5,0-9.1-4.1-9.1-9.1V127.7z"/>
<path class="st4" d="M159.6,92.2l11.3,22.7l11.3-22.7H159.6z M199.8,61.2h-32.6V96h7.6V65l-3.8,3.8h28.8V61.2z"/>
<path class="st7" d="M199.7,44.9c0-5,4.1-9.1,9.1-9.1H249c5,0,9.1,4.1,9.1,9.1V85c0,5-4.1,9.1-9.1,9.1h-40.2c-5,0-9.1-4.1-9.1-9.1
	V44.9z"/>
<path class="st6" d="M199.7,44.9c0-5,4.1-9.1,9.1-9.1H249c5,0,9.1,4.1,9.1,9.1V85c0,5-4.1,9.1-9.1,9.1h-40.2c-5,0-9.1-4.1-9.1-9.1
	V44.9z"/>
<path class="st8" d="M74.3,217h58.3c1.4,0,2.5,1.1,2.5,2.5v10.1c0,1.4-1.1,2.5-2.5,2.5H74.3c-1.4,0-2.5-1.1-2.5-2.5v-10.1
	C71.8,218.1,72.9,217,74.3,217z M125.6,221.7c-1.8,0-3.3,1.5-3.3,3.3s1.5,3.3,3.3,3.3c1.8,0,3.3-1.5,3.3-3.3
	S127.5,221.7,125.6,221.7z M74.3,239.1h58.3c1.4,0,2.5,1.1,2.5,2.5v10.1c0,1.4-1.1,2.5-2.5,2.5H74.3c-1.4,0-2.5-1.1-2.5-2.5v-10.1
	C71.8,240.3,72.9,239.1,74.3,239.1z M125.6,243.9c-1.8,0-3.3,1.5-3.3,3.3s1.5,3.3,3.3,3.3c1.8,0,3.3-1.5,3.3-3.3
	S127.5,243.9,125.6,243.9z M74.3,260.9h58.3c1.4,0,2.5,1.1,2.5,2.5v10.1c0,1.4-1.1,2.5-2.5,2.5H74.3c-1.4,0-2.5-1.1-2.5-2.5v-10.1
	C71.8,262,72.9,260.9,74.3,260.9z M125.6,265.6c-1.8,0-3.3,1.5-3.3,3.3c0,1.8,1.5,3.3,3.3,3.3c1.8,0,3.3-1.5,3.3-3.3
	C129,267.1,127.5,265.6,125.6,265.6z"/>
</svg>
