<?xml version="1.0" encoding="UTF-8" standalone="no"?>
<svg
   width="722.62488"
   height="722.62488"
   xml:space="preserve"
   overflow="hidden"
   version="1.1"
   id="svg26"
   xmlns="http://www.w3.org/2000/svg"
   xmlns:svg="http://www.w3.org/2000/svg"><defs
     id="defs26" /><g
     transform="translate(-31.1876,-41.1876)"
     id="g26"><g
       id="g25"><path
         d="m 41.5001,168.502 c 0,-64.618 52.3837,-117.0019 117.0019,-117.0019 h 467.996 c 64.618,0 117.002,52.3839 117.002,117.0019 V 636.498 C 743.5,701.116 691.116,753.5 626.498,753.5 H 158.502 C 93.8838,753.5 41.5001,701.116 41.5001,636.498 Z"
         stroke="#000000"
         stroke-width="20.625"
         stroke-linecap="butt"
         stroke-linejoin="miter"
         stroke-miterlimit="8"
         stroke-opacity="1"
         fill="#f2f2f2"
         fill-rule="evenodd"
         fill-opacity="1"
         id="path1" /><path
         d="M 2.29166,-0.00342935 3.11665,551.296 -1.46667,551.303 -2.29166,0.00342935 Z M 14.5681,546.696 0.859285,574.217 -12.9319,546.737 Z"
         fill="#404040"
         fill-rule="nonzero"
         fill-opacity="1"
         transform="matrix(1,0,0,-1,112.5,686.716)"
         id="path2" /><path
         d="M 0.00666109,-2.29166 568.341,-0.639697 568.327,3.94362 -0.00666109,2.29166 Z M 563.79,-12.1113 591.25,1.71857 563.71,15.3886 Z"
         fill="#404040"
         fill-rule="nonzero"
         fill-opacity="1"
         transform="matrix(1,0,0,-1,86.5001,657.219)"
         id="path3" /><path
         d="m 181.672,383.591 c 26.657,-7.328 60.995,33.035 76.698,90.154 15.702,57.118 6.823,109.363 -19.834,116.691 -26.656,7.328 -60.995,-33.035 -76.697,-90.154 -15.703,-57.118 -6.823,-109.363 19.833,-116.691 z"
         stroke="#172c51"
         stroke-width="4.58333"
         stroke-linecap="butt"
         stroke-linejoin="miter"
         stroke-miterlimit="8"
         stroke-opacity="1"
         fill="#ffffff"
         fill-rule="evenodd"
         fill-opacity="1"
         id="path4" /><path
         d="m 438.776,406.627 c 83.044,-22.83 163.684,7.116 180.115,66.885 16.431,59.77 -37.568,126.73 -120.612,149.559 -83.043,22.83 -163.683,-7.116 -180.115,-66.886 -16.431,-59.769 37.569,-126.729 120.612,-149.558 z"
         stroke="#172c51"
         stroke-width="4.58333"
         stroke-linecap="butt"
         stroke-linejoin="miter"
         stroke-miterlimit="8"
         stroke-opacity="1"
         fill="#ffffff"
         fill-rule="evenodd"
         fill-opacity="1"
         id="path5" /><text
         fill="#ffffff"
         fill-opacity="1"
         font-family="Calibri, Calibri_MSFontService, sans-serif"
         font-style="normal"
         font-variant="normal"
         font-weight="400"
         font-stretch="normal"
         font-size="83px"
         text-anchor="start"
         direction="ltr"
         writing-mode="lr-tb"
         unicode-bidi="normal"
         text-decoration="none"
         transform="rotate(74.628468,-111.04278,537.37542)"
         id="text5"
         style="text-decoration:none;text-decoration-line:none">&lt;</text><path
         d="m 263.361,198.626 c 47.07,-54.124 120.54,-67.292 164.101,-29.409 43.56,37.882 40.715,112.469 -6.355,166.593 -47.07,54.125 -120.54,67.293 -164.1,29.41 -43.561,-37.882 -40.716,-112.469 6.354,-166.594 z"
         stroke="#172c51"
         stroke-width="4.58333"
         stroke-linecap="butt"
         stroke-linejoin="miter"
         stroke-miterlimit="8"
         stroke-opacity="1"
         fill="#ffffff"
         fill-rule="evenodd"
         fill-opacity="1"
         id="path6" /><path
         d="m 557.5,511 c 0,-9.113 7.611,-16.5 17,-16.5 9.389,0 17,7.387 17,16.5 0,9.113 -7.611,16.5 -17,16.5 -9.389,0 -17,-7.387 -17,-16.5 z"
         stroke="#404040"
         stroke-width="4.58333"
         stroke-linecap="butt"
         stroke-linejoin="miter"
         stroke-miterlimit="8"
         stroke-opacity="1"
         fill="#404040"
         fill-rule="evenodd"
         fill-opacity="1"
         id="path7" /><path
         d="m 520.5,575 c 0,-9.113 7.611,-16.5 17,-16.5 9.389,0 17,7.387 17,16.5 0,9.113 -7.611,16.5 -17,16.5 -9.389,0 -17,-7.387 -17,-16.5 z"
         stroke="#404040"
         stroke-width="4.58333"
         stroke-linecap="butt"
         stroke-linejoin="miter"
         stroke-miterlimit="8"
         stroke-opacity="1"
         fill="#404040"
         fill-rule="evenodd"
         fill-opacity="1"
         id="path8" /><path
         d="m 422.5,589 c 0,-9.113 7.611,-16.5 17,-16.5 9.389,0 17,7.387 17,16.5 0,9.112 -7.611,16.5 -17,16.5 -9.389,0 -17,-7.388 -17,-16.5 z"
         stroke="#404040"
         stroke-width="4.58333"
         stroke-linecap="butt"
         stroke-linejoin="miter"
         stroke-miterlimit="8"
         stroke-opacity="1"
         fill="#404040"
         fill-rule="evenodd"
         fill-opacity="1"
         id="path9" /><path
         d="m 412.5,471 c 0,-9.113 7.611,-16.5 17,-16.5 9.389,0 17,7.387 17,16.5 0,9.113 -7.611,16.5 -17,16.5 -9.389,0 -17,-7.387 -17,-16.5 z"
         stroke="#404040"
         stroke-width="4.58333"
         stroke-linecap="butt"
         stroke-linejoin="miter"
         stroke-miterlimit="8"
         stroke-opacity="1"
         fill="#404040"
         fill-rule="evenodd"
         fill-opacity="1"
         id="path10" /><path
         d="m 478.5,440 c 0,-9.113 7.611,-16.5 17,-16.5 9.389,0 17,7.387 17,16.5 0,9.113 -7.611,16.5 -17,16.5 -9.389,0 -17,-7.387 -17,-16.5 z"
         stroke="#404040"
         stroke-width="4.58333"
         stroke-linecap="butt"
         stroke-linejoin="miter"
         stroke-miterlimit="8"
         stroke-opacity="1"
         fill="#404040"
         fill-rule="evenodd"
         fill-opacity="1"
         id="path11" /><path
         d="m 338.5,550 c 0,-9.113 7.611,-16.5 17,-16.5 9.389,0 17,7.387 17,16.5 0,9.113 -7.611,16.5 -17,16.5 -9.389,0 -17,-7.387 -17,-16.5 z"
         stroke="#404040"
         stroke-width="4.58333"
         stroke-linecap="butt"
         stroke-linejoin="miter"
         stroke-miterlimit="8"
         stroke-opacity="1"
         fill="#404040"
         fill-rule="evenodd"
         fill-opacity="1"
         id="path12" /><path
         d="m 197.5,529.5 c 0,-9.389 7.611,-17 17,-17 9.389,0 17,7.611 17,17 0,9.389 -7.611,17 -17,17 -9.389,0 -17,-7.611 -17,-17 z"
         stroke="#404040"
         stroke-width="4.58333"
         stroke-linecap="butt"
         stroke-linejoin="miter"
         stroke-miterlimit="8"
         stroke-opacity="1"
         fill="#404040"
         fill-rule="evenodd"
         fill-opacity="1"
         id="path13" /><path
         d="m 184.5,451 c 0,-9.113 7.611,-16.5 17,-16.5 9.389,0 17,7.387 17,16.5 0,9.113 -7.611,16.5 -17,16.5 -9.389,0 -17,-7.387 -17,-16.5 z"
         stroke="#404040"
         stroke-width="4.58333"
         stroke-linecap="butt"
         stroke-linejoin="miter"
         stroke-miterlimit="8"
         stroke-opacity="1"
         fill="#404040"
         fill-rule="evenodd"
         fill-opacity="1"
         id="path14" /><path
         d="m 356.5,282 c 0,-9.113 7.611,-16.5 17,-16.5 9.389,0 17,7.387 17,16.5 0,9.113 -7.611,16.5 -17,16.5 -9.389,0 -17,-7.387 -17,-16.5 z"
         stroke="#404040"
         stroke-width="4.58333"
         stroke-linecap="butt"
         stroke-linejoin="miter"
         stroke-miterlimit="8"
         stroke-opacity="1"
         fill="#404040"
         fill-rule="evenodd"
         fill-opacity="1"
         id="path15" /><path
         d="m 417.5,241.5 c 0,-9.389 7.611,-17 17,-17 9.389,0 17,7.611 17,17 0,9.389 -7.611,17 -17,17 -9.389,0 -17,-7.611 -17,-17 z"
         stroke="#404040"
         stroke-width="4.58333"
         stroke-linecap="butt"
         stroke-linejoin="miter"
         stroke-miterlimit="8"
         stroke-opacity="1"
         fill="#404040"
         fill-rule="evenodd"
         fill-opacity="1"
         id="path16" /><path
         d="m 348.5,195 c 0,-9.113 7.611,-16.5 17,-16.5 9.389,0 17,7.387 17,16.5 0,9.113 -7.611,16.5 -17,16.5 -9.389,0 -17,-7.387 -17,-16.5 z"
         stroke="#404040"
         stroke-width="4.58333"
         stroke-linecap="butt"
         stroke-linejoin="miter"
         stroke-miterlimit="8"
         stroke-opacity="1"
         fill="#404040"
         fill-rule="evenodd"
         fill-opacity="1"
         id="path17" /><path
         d="m 277.5,220.5 c 0,-9.389 7.611,-17 17,-17 9.389,0 17,7.611 17,17 0,9.389 -7.611,17 -17,17 -9.389,0 -17,-7.611 -17,-17 z"
         stroke="#404040"
         stroke-width="4.58333"
         stroke-linecap="butt"
         stroke-linejoin="miter"
         stroke-miterlimit="8"
         stroke-opacity="1"
         fill="#404040"
         fill-rule="evenodd"
         fill-opacity="1"
         id="path18" /><path
         d="m 245.5,329 c 0,-9.113 7.611,-16.5 17,-16.5 9.389,0 17,7.387 17,16.5 0,9.113 -7.611,16.5 -17,16.5 -9.389,0 -17,-7.387 -17,-16.5 z"
         stroke="#404040"
         stroke-width="4.58333"
         stroke-linecap="butt"
         stroke-linejoin="miter"
         stroke-miterlimit="8"
         stroke-opacity="1"
         fill="#404040"
         fill-rule="evenodd"
         fill-opacity="1"
         id="path19" /><path
         d="m 321.5,351 c 0,-9.113 7.611,-16.5 17,-16.5 9.389,0 17,7.387 17,16.5 0,9.113 -7.611,16.5 -17,16.5 -9.389,0 -17,-7.387 -17,-16.5 z"
         stroke="#404040"
         stroke-width="4.58333"
         stroke-linecap="butt"
         stroke-linejoin="miter"
         stroke-miterlimit="8"
         stroke-opacity="1"
         fill="#404040"
         fill-rule="evenodd"
         fill-opacity="1"
         id="path20" /><g
         id="g24"><g
           id="g23"><g
             id="g22"><path
               d="m 619.541,197.5 c 0,9.907 -8.031,17.937 -17.938,17.937 -9.907,0 -17.937,-8.03 -17.937,-17.937 0,-9.907 8.03,-17.938 17.937,-17.938 9.907,0 17.938,8.031 17.938,17.938 z"
               fill="#404040"
               fill-rule="nonzero"
               fill-opacity="1"
               id="path21" /><path
               d="m 706.836,137.708 c -5.082,-8.669 -16.442,-12.855 -31.988,-12.855 -9.866,0 -21.226,1.794 -33.782,5.082 -8.67,-31.3902 -23.02,-52.0184 -39.463,-52.0184 -16.144,0 -30.793,20.3292 -39.163,51.4204 -11.959,-2.989 -22.721,-4.783 -32.288,-4.783 -15.546,0 -26.906,4.186 -31.989,12.855 -8.37,14.35 2.691,37.37 25.711,60.689 -22.123,22.721 -32.288,44.844 -24.216,58.895 5.083,8.67 16.443,12.855 31.989,12.855 8.969,0 19.432,-1.495 30.793,-4.185 8.669,31.091 23.019,51.42 39.163,51.42 16.144,0 30.793,-20.329 39.164,-51.42 11.958,2.989 22.72,4.783 32.287,4.783 15.546,0 26.906,-4.186 31.989,-12.855 8.072,-14.051 -2.093,-36.174 -24.216,-58.895 23.618,-23.618 34.38,-46.638 26.009,-60.988 z m -31.988,-0.897 c 11.061,0 19.133,2.691 21.525,6.876 4.484,7.773 -3.588,26.01 -23.917,46.339 -7.175,-6.577 -15.247,-13.154 -24.215,-19.432 -0.897,-10.165 -2.392,-20.03 -4.485,-29.298 11.361,-2.99 22.123,-4.485 31.092,-4.485 z m -53.514,91.781 c -6.278,3.587 -12.556,6.876 -18.834,9.865 -6.278,-2.989 -12.556,-6.278 -18.834,-9.865 -5.98,-3.588 -11.959,-7.175 -17.34,-10.763 -0.598,-6.577 -0.598,-13.154 -0.598,-20.329 0,-6.577 0.299,-12.855 0.598,-19.133 5.979,-4.186 12.257,-8.072 19.133,-11.959 5.681,-3.288 11.361,-6.278 17.041,-8.968 5.68,2.69 11.36,5.68 17.041,8.968 5.979,3.588 11.958,7.175 17.339,10.763 0.598,6.577 0.598,13.154 0.598,20.329 0,7.474 -0.299,14.649 -0.897,21.525 -4.783,3.289 -9.865,6.278 -15.247,9.567 z m 13.752,5.68 c -0.896,5.68 -1.793,11.36 -2.69,16.443 -5.083,-1.794 -10.464,-3.588 -15.845,-5.98 3.587,-1.793 7.175,-3.886 10.762,-5.979 2.691,-1.495 5.382,-2.989 7.773,-4.484 z m -46.637,10.463 c -5.979,2.392 -11.66,4.485 -17.34,6.279 -1.196,-5.681 -2.092,-11.66 -2.989,-17.938 3.288,2.093 6.278,3.886 9.865,5.979 3.289,1.794 6.876,3.887 10.464,5.68 z m -34.38,-35.875 c -4.784,-3.587 -8.969,-7.175 -12.856,-10.762 3.887,-3.588 8.371,-7.175 12.856,-10.763 0,3.289 -0.299,6.577 -0.299,10.165 0,3.886 0,7.773 0.299,11.36 z m 13.752,-45.74 c 0.897,-6.577 1.794,-12.855 2.989,-18.835 5.681,1.794 11.66,4.186 17.639,6.577 -2.99,1.495 -6.278,3.289 -9.268,5.083 -3.587,2.391 -7.474,4.783 -11.36,7.175 z m 48.431,-12.258 c 5.381,-2.391 10.763,-4.185 16.144,-5.979 1.196,5.382 2.092,11.062 2.989,17.041 -3.288,-2.093 -6.278,-3.887 -9.865,-5.979 -2.99,-1.495 -5.979,-3.289 -9.268,-5.083 z m 32.885,35.278 c 5.382,4.185 10.165,8.071 14.649,12.257 -4.484,3.886 -9.267,8.072 -14.649,11.958 0.299,-4.185 0.299,-8.371 0.299,-12.556 0,-4.185 0,-8.072 -0.299,-11.659 z M 601.603,89.875 c 8.969,0 20.628,15.845 28.102,43.349 -8.67,2.99 -17.937,6.577 -27.205,10.762 -9.866,-4.484 -19.432,-8.37 -28.7,-11.36 7.474,-27.205 18.834,-42.751 27.803,-42.751 z m -93.275,53.812 c 2.691,-4.484 10.464,-6.876 21.525,-6.876 8.67,0 18.535,1.495 29.298,4.186 -2.093,9.567 -3.588,20.03 -4.484,30.793 -8.371,5.979 -15.845,11.958 -22.422,18.236 -20.031,-20.329 -28.401,-38.566 -23.917,-46.339 z m 23.319,114.502 c -11.062,0 -19.134,-2.691 -21.525,-6.877 -4.485,-7.772 3.288,-25.112 22.422,-44.843 6.876,5.979 14.35,11.958 22.422,17.937 0.896,10.464 2.391,20.628 4.484,29.896 -9.866,2.691 -19.432,3.887 -27.803,3.887 z m 69.956,46.936 c -8.969,0 -20.329,-15.546 -27.803,-42.452 9.268,-2.99 18.834,-6.577 28.7,-11.062 9.268,4.186 18.236,7.773 26.906,10.464 -7.474,27.504 -18.834,43.05 -27.803,43.05 z m 93.275,-53.813 c -2.691,4.485 -10.463,6.877 -21.525,6.877 -8.67,0 -18.834,-1.495 -29.298,-4.186 1.794,-8.969 3.289,-18.236 4.186,-28.401 8.968,-6.278 17.04,-12.556 24.215,-19.133 19.134,19.731 26.906,37.071 22.422,44.843 z"
               fill="#404040"
               fill-rule="nonzero"
               fill-opacity="1"
               id="path22" /></g></g></g></g></g></svg>
