<svg width="223" height="223" xmlns="http://www.w3.org/2000/svg" xmlns:xlink="http://www.w3.org/1999/xlink" overflow="hidden"><g><rect x="0" y="0" width="223" height="223" fill="#FFFFFF"/><path d="M12.5001 49.5007C12.5001 30.7227 27.7227 15.5001 46.5007 15.5001L182.499 15.5001C201.277 15.5001 216.5 30.7227 216.5 49.5007L216.5 185.499C216.5 204.277 201.277 219.5 182.499 219.5L46.5007 219.5C27.7227 219.5 12.5001 204.277 12.5001 185.499Z" stroke="#000000" stroke-width="1.33333" stroke-miterlimit="8" fill="#F2F2F2" fill-rule="evenodd"/><path d="M0.666666-0.00099763 0.906663 160.377-0.426669 160.379-0.666666 0.00099763ZM4.238 159.039 0.249974 167.045-3.76199 159.051Z" fill="#404040" transform="matrix(1 0 0 -1 33.5001 199.545)"/><path d="M0.00193777-0.666664 165.335-0.186095 165.331 1.14723-0.00193777 0.666664ZM164.012-3.52329 172 0.499947 163.988 4.47668Z" fill="#404040" transform="matrix(1 0 0 -1 25.5001 192)"/><path d="M52.8502 111.59C60.6047 109.458 70.5941 121.2 75.1621 137.817 79.7301 154.433 77.1469 169.631 69.3924 171.763 61.6378 173.895 51.6484 162.153 47.0804 145.537 42.5124 128.92 45.0956 113.722 52.8502 111.59Z" stroke="#172C51" stroke-width="1.33333" stroke-miterlimit="8" fill="#FFFFFF" fill-rule="evenodd"/><path d="M127.644 118.291C151.802 111.65 175.261 120.362 180.041 137.749 184.821 155.137 169.112 174.616 144.954 181.257 120.796 187.898 97.3369 179.187 92.5569 161.799 87.7769 144.412 103.486 124.933 127.644 118.291Z" stroke="#172C51" stroke-width="1.33333" stroke-miterlimit="8" fill="#FFFFFF" fill-rule="evenodd"/><text fill="#FFFFFF" font-family="Calibri,Calibri_MSFontService,sans-serif" font-weight="400" font-size="24" transform="matrix(0.265077 0.964227 -0.964227 0.265077 127.38 146)">&lt;</text><path d="M76.6142 57.7822C90.3072 42.0368 111.68 38.2063 124.352 49.2267 137.025 60.247 136.197 81.9449 122.504 97.6903 108.811 113.436 87.4376 117.266 74.7655 106.246 62.0934 95.2256 62.9211 73.5276 76.6142 57.7822Z" stroke="#172C51" stroke-width="1.33333" stroke-miterlimit="8" fill="#FFFFFF" fill-rule="evenodd"/><path d="M162.5 149C162.5 146.515 164.739 144.5 167.5 144.5 170.261 144.5 172.5 146.515 172.5 149 172.5 151.485 170.261 153.5 167.5 153.5 164.739 153.5 162.5 151.485 162.5 149Z" stroke="#404040" stroke-width="1.33333" stroke-miterlimit="8" fill="#404040" fill-rule="evenodd"/><path d="M151.5 167.5C151.5 164.739 153.739 162.5 156.5 162.5 159.261 162.5 161.5 164.739 161.5 167.5 161.5 170.261 159.261 172.5 156.5 172.5 153.739 172.5 151.5 170.261 151.5 167.5Z" stroke="#404040" stroke-width="1.33333" stroke-miterlimit="8" fill="#404040" fill-rule="evenodd"/><path d="M123.5 171.5C123.5 168.739 125.739 166.5 128.5 166.5 131.261 166.5 133.5 168.739 133.5 171.5 133.5 174.261 131.261 176.5 128.5 176.5 125.739 176.5 123.5 174.261 123.5 171.5Z" stroke="#404040" stroke-width="1.33333" stroke-miterlimit="8" fill="#404040" fill-rule="evenodd"/><path d="M120.5 137.5C120.5 134.739 122.739 132.5 125.5 132.5 128.261 132.5 130.5 134.739 130.5 137.5 130.5 140.261 128.261 142.5 125.5 142.5 122.739 142.5 120.5 140.261 120.5 137.5Z" stroke="#404040" stroke-width="1.33333" stroke-miterlimit="8" fill="#404040" fill-rule="evenodd"/><path d="M139.5 128.5C139.5 125.739 141.739 123.5 144.5 123.5 147.261 123.5 149.5 125.739 149.5 128.5 149.5 131.261 147.261 133.5 144.5 133.5 141.739 133.5 139.5 131.261 139.5 128.5Z" stroke="#404040" stroke-width="1.33333" stroke-miterlimit="8" fill="#404040" fill-rule="evenodd"/><path d="M98.5001 160.5C98.5001 157.739 100.739 155.5 103.5 155.5 106.261 155.5 108.5 157.739 108.5 160.5 108.5 163.261 106.261 165.5 103.5 165.5 100.739 165.5 98.5001 163.261 98.5001 160.5Z" stroke="#404040" stroke-width="1.33333" stroke-miterlimit="8" fill="#404040" fill-rule="evenodd"/><path d="M57.5001 154.5C57.5001 151.739 59.7386 149.5 62.5001 149.5 65.2615 149.5 67.5001 151.739 67.5001 154.5 67.5001 157.261 65.2615 159.5 62.5001 159.5 59.7386 159.5 57.5001 157.261 57.5001 154.5Z" stroke="#404040" stroke-width="1.33333" stroke-miterlimit="8" fill="#404040" fill-rule="evenodd"/><path d="M53.5001 131.5C53.5001 128.739 55.7386 126.5 58.5001 126.5 61.2615 126.5 63.5001 128.739 63.5001 131.5 63.5001 134.261 61.2615 136.5 58.5001 136.5 55.7386 136.5 53.5001 134.261 53.5001 131.5Z" stroke="#404040" stroke-width="1.33333" stroke-miterlimit="8" fill="#404040" fill-rule="evenodd"/><path d="M103.5 82.5001C103.5 79.7386 105.739 77.5001 108.5 77.5001 111.261 77.5001 113.5 79.7386 113.5 82.5001 113.5 85.2615 111.261 87.5001 108.5 87.5001 105.739 87.5001 103.5 85.2615 103.5 82.5001Z" stroke="#404040" stroke-width="1.33333" stroke-miterlimit="8" fill="#404040" fill-rule="evenodd"/><path d="M121.5 70.5001C121.5 67.7386 123.739 65.5001 126.5 65.5001 129.261 65.5001 131.5 67.7386 131.5 70.5001 131.5 73.2615 129.261 75.5001 126.5 75.5001 123.739 75.5001 121.5 73.2615 121.5 70.5001Z" stroke="#404040" stroke-width="1.33333" stroke-miterlimit="8" fill="#404040" fill-rule="evenodd"/><path d="M101.5 57.0001C101.5 54.5148 103.739 52.5001 106.5 52.5001 109.261 52.5001 111.5 54.5148 111.5 57.0001 111.5 59.4853 109.261 61.5001 106.5 61.5001 103.739 61.5001 101.5 59.4853 101.5 57.0001Z" stroke="#404040" stroke-width="1.33333" stroke-miterlimit="8" fill="#404040" fill-rule="evenodd"/><path d="M81.5001 64.5001C81.5001 61.7386 83.5148 59.5001 86.0001 59.5001 88.4853 59.5001 90.5001 61.7386 90.5001 64.5001 90.5001 67.2615 88.4853 69.5001 86.0001 69.5001 83.5148 69.5001 81.5001 67.2615 81.5001 64.5001Z" stroke="#404040" stroke-width="1.33333" stroke-miterlimit="8" fill="#404040" fill-rule="evenodd"/><path d="M71.5001 96.0001C71.5001 93.5148 73.7386 91.5001 76.5001 91.5001 79.2615 91.5001 81.5001 93.5148 81.5001 96.0001 81.5001 98.4853 79.2615 100.5 76.5001 100.5 73.7386 100.5 71.5001 98.4853 71.5001 96.0001Z" stroke="#404040" stroke-width="1.33333" stroke-miterlimit="8" fill="#404040" fill-rule="evenodd"/><path d="M93.5001 102.5C93.5001 99.7386 95.7386 97.5001 98.5001 97.5001 101.261 97.5001 103.5 99.7386 103.5 102.5 103.5 105.261 101.261 107.5 98.5001 107.5 95.7386 107.5 93.5001 105.261 93.5001 102.5Z" stroke="#404040" stroke-width="1.33333" stroke-miterlimit="8" fill="#404040" fill-rule="evenodd"/><g><g><g><path d="M180.428 57.5C180.428 60.365 178.106 62.6875 175.241 62.6875 172.376 62.6875 170.053 60.365 170.053 57.5 170.053 54.635 172.376 52.3125 175.241 52.3125 178.106 52.3125 180.428 54.635 180.428 57.5Z" fill="#404040"/><path d="M205.674 40.2083C204.204 37.701 200.919 36.4906 196.423 36.4906 193.57 36.4906 190.284 37.0094 186.653 37.9604 184.146 28.8823 179.996 22.9167 175.241 22.9167 170.572 22.9167 166.335 28.7958 163.915 37.7875 160.456 36.9229 157.344 36.4042 154.577 36.4042 150.081 36.4042 146.796 37.6146 145.326 40.1219 142.905 44.2719 146.104 50.9292 152.761 57.6729 146.364 64.2437 143.424 70.6417 145.758 74.7052 147.228 77.2125 150.514 78.4229 155.009 78.4229 157.603 78.4229 160.629 77.9906 163.915 77.2125 166.422 86.2042 170.572 92.0833 175.241 92.0833 179.909 92.0833 184.146 86.2042 186.567 77.2125 190.025 78.0771 193.137 78.5958 195.904 78.5958 200.4 78.5958 203.685 77.3854 205.155 74.8781 207.49 70.8146 204.55 64.4167 198.152 57.8458 204.982 51.0156 208.095 44.3583 205.674 40.2083ZM196.423 39.949C199.622 39.949 201.956 40.7271 202.648 41.9375 203.945 44.1854 201.61 49.4594 195.731 55.3385 193.656 53.4365 191.322 51.5344 188.728 49.7188 188.469 46.7792 188.036 43.926 187.431 41.2458 190.717 40.3812 193.829 39.949 196.423 39.949ZM180.947 66.4917C179.131 67.5292 177.316 68.4802 175.5 69.3448 173.684 68.4802 171.869 67.5292 170.053 66.4917 168.324 65.4542 166.595 64.4167 165.039 63.3792 164.866 61.4771 164.866 59.575 164.866 57.5 164.866 55.5979 164.952 53.7823 165.039 51.9667 166.768 50.7562 168.583 49.6323 170.572 48.5083 172.215 47.5573 173.857 46.6927 175.5 45.9146 177.143 46.6927 178.785 47.5573 180.428 48.5083 182.157 49.5458 183.886 50.5833 185.443 51.6208 185.616 53.5229 185.616 55.425 185.616 57.5 185.616 59.6615 185.529 61.7365 185.356 63.725 183.973 64.676 182.503 65.5406 180.947 66.4917ZM184.924 68.1344C184.665 69.7771 184.405 71.4198 184.146 72.8896 182.676 72.3708 181.12 71.8521 179.564 71.1604 180.601 70.6417 181.639 70.0365 182.676 69.4312 183.454 68.999 184.232 68.5667 184.924 68.1344ZM171.436 71.1604C169.707 71.8521 168.065 72.4573 166.422 72.976 166.076 71.3333 165.817 69.6042 165.557 67.7885 166.508 68.3938 167.373 68.9125 168.41 69.5177 169.361 70.0365 170.399 70.6417 171.436 71.1604ZM161.494 60.7854C160.11 59.7479 158.9 58.7104 157.776 57.6729 158.9 56.6354 160.197 55.5979 161.494 54.5604 161.494 55.5115 161.407 56.4625 161.407 57.5 161.407 58.624 161.407 59.7479 161.494 60.7854ZM165.471 47.5573C165.73 45.6552 165.99 43.8396 166.335 42.1104 167.978 42.6292 169.707 43.3208 171.436 44.0125 170.572 44.4448 169.621 44.9635 168.756 45.4823 167.719 46.174 166.595 46.8656 165.471 47.5573ZM179.477 44.0125C181.033 43.3208 182.59 42.8021 184.146 42.2833 184.492 43.8396 184.751 45.4823 185.01 47.2115 184.059 46.6063 183.195 46.0875 182.157 45.4823 181.293 45.05 180.428 44.5312 179.477 44.0125ZM188.988 54.2146C190.544 55.425 191.927 56.549 193.224 57.7594 191.927 58.8833 190.544 60.0938 188.988 61.2177 189.074 60.0073 189.074 58.7969 189.074 57.5865 189.074 56.376 189.074 55.2521 188.988 54.2146ZM175.241 26.375C177.834 26.375 181.206 30.9573 183.368 38.9115 180.86 39.776 178.18 40.8135 175.5 42.024 172.647 40.7271 169.88 39.6031 167.2 38.7385 169.361 30.8708 172.647 26.375 175.241 26.375ZM148.266 41.9375C149.044 40.6406 151.292 39.949 154.491 39.949 156.998 39.949 159.851 40.3812 162.964 41.1594 162.358 43.926 161.926 46.9521 161.667 50.0646 159.246 51.7938 157.084 53.5229 155.182 55.3385 149.39 49.4594 146.969 44.1854 148.266 41.9375ZM155.009 75.051C151.81 75.051 149.476 74.2729 148.784 73.0625 147.488 70.8146 149.735 65.8 155.269 60.0938 157.257 61.8229 159.419 63.5521 161.753 65.2812 162.012 68.3073 162.445 71.2469 163.05 73.9271 160.197 74.7052 157.43 75.051 155.009 75.051ZM175.241 88.625C172.647 88.625 169.361 84.1292 167.2 76.3479 169.88 75.4833 172.647 74.4458 175.5 73.149 178.18 74.3594 180.774 75.3969 183.281 76.175 181.12 84.1292 177.834 88.625 175.241 88.625ZM202.216 73.0625C201.438 74.3594 199.19 75.051 195.991 75.051 193.483 75.051 190.544 74.6188 187.518 73.8406 188.036 71.2469 188.469 68.5667 188.728 65.6271 191.322 63.8115 193.656 61.9958 195.731 60.0938 201.265 65.8 203.512 70.8146 202.216 73.0625Z" fill="#404040"/></g></g></g></g></svg>