<svg width="223" height="223" xmlns="http://www.w3.org/2000/svg" xmlns:xlink="http://www.w3.org/1999/xlink" overflow="hidden"><g><rect x="0" y="0" width="223" height="223" fill="#FFFFFF"/><path d="M11.5001 49.5007C11.5001 30.7227 26.7227 15.5001 45.5007 15.5001L181.499 15.5001C200.277 15.5001 215.5 30.7227 215.5 49.5007L215.5 185.499C215.5 204.277 200.277 219.5 181.499 219.5L45.5007 219.5C26.7227 219.5 11.5001 204.277 11.5001 185.499Z" stroke="#000000" stroke-width="1.33333" stroke-miterlimit="8" fill="#F2F2F2" fill-rule="evenodd"/><g><g><g><path d="M180.428 55.5C180.428 58.365 178.106 60.6875 175.241 60.6875 172.376 60.6875 170.053 58.365 170.053 55.5 170.053 52.635 172.376 50.3125 175.241 50.3125 178.106 50.3125 180.428 52.635 180.428 55.5Z" fill="#404040"/><path d="M205.674 38.2083C204.204 35.701 200.919 34.4906 196.423 34.4906 193.57 34.4906 190.284 35.0094 186.653 35.9604 184.146 26.8823 179.996 20.9167 175.241 20.9167 170.572 20.9167 166.335 26.7958 163.915 35.7875 160.456 34.9229 157.344 34.4042 154.577 34.4042 150.081 34.4042 146.796 35.6146 145.326 38.1219 142.905 42.2719 146.104 48.9292 152.761 55.6729 146.364 62.2437 143.424 68.6417 145.758 72.7052 147.228 75.2125 150.514 76.4229 155.009 76.4229 157.603 76.4229 160.629 75.9906 163.915 75.2125 166.422 84.2042 170.572 90.0833 175.241 90.0833 179.909 90.0833 184.146 84.2042 186.567 75.2125 190.025 76.0771 193.137 76.5958 195.904 76.5958 200.4 76.5958 203.685 75.3854 205.155 72.8781 207.49 68.8146 204.55 62.4167 198.152 55.8458 204.982 49.0156 208.095 42.3583 205.674 38.2083ZM196.423 37.949C199.622 37.949 201.956 38.7271 202.648 39.9375 203.945 42.1854 201.61 47.4594 195.731 53.3385 193.656 51.4365 191.322 49.5344 188.728 47.7188 188.469 44.7792 188.036 41.926 187.431 39.2458 190.717 38.3812 193.829 37.949 196.423 37.949ZM180.947 64.4917C179.131 65.5292 177.316 66.4802 175.5 67.3448 173.684 66.4802 171.869 65.5292 170.053 64.4917 168.324 63.4542 166.595 62.4167 165.039 61.3792 164.866 59.4771 164.866 57.575 164.866 55.5 164.866 53.5979 164.952 51.7823 165.039 49.9667 166.768 48.7562 168.583 47.6323 170.572 46.5083 172.215 45.5573 173.857 44.6927 175.5 43.9146 177.143 44.6927 178.785 45.5573 180.428 46.5083 182.157 47.5458 183.886 48.5833 185.443 49.6208 185.616 51.5229 185.616 53.425 185.616 55.5 185.616 57.6615 185.529 59.7365 185.356 61.725 183.973 62.676 182.503 63.5406 180.947 64.4917ZM184.924 66.1344C184.665 67.7771 184.405 69.4198 184.146 70.8896 182.676 70.3708 181.12 69.8521 179.564 69.1604 180.601 68.6417 181.639 68.0365 182.676 67.4312 183.454 66.999 184.232 66.5667 184.924 66.1344ZM171.436 69.1604C169.707 69.8521 168.065 70.4573 166.422 70.976 166.076 69.3333 165.817 67.6042 165.557 65.7885 166.508 66.3938 167.373 66.9125 168.41 67.5177 169.361 68.0365 170.399 68.6417 171.436 69.1604ZM161.494 58.7854C160.11 57.7479 158.9 56.7104 157.776 55.6729 158.9 54.6354 160.197 53.5979 161.494 52.5604 161.494 53.5115 161.407 54.4625 161.407 55.5 161.407 56.624 161.407 57.7479 161.494 58.7854ZM165.471 45.5573C165.73 43.6552 165.99 41.8396 166.335 40.1104 167.978 40.6292 169.707 41.3208 171.436 42.0125 170.572 42.4448 169.621 42.9635 168.756 43.4823 167.719 44.174 166.595 44.8656 165.471 45.5573ZM179.477 42.0125C181.033 41.3208 182.59 40.8021 184.146 40.2833 184.492 41.8396 184.751 43.4823 185.01 45.2115 184.059 44.6063 183.195 44.0875 182.157 43.4823 181.293 43.05 180.428 42.5312 179.477 42.0125ZM188.988 52.2146C190.544 53.425 191.927 54.549 193.224 55.7594 191.927 56.8833 190.544 58.0938 188.988 59.2177 189.074 58.0073 189.074 56.7969 189.074 55.5865 189.074 54.376 189.074 53.2521 188.988 52.2146ZM175.241 24.375C177.834 24.375 181.206 28.9573 183.368 36.9115 180.86 37.776 178.18 38.8135 175.5 40.024 172.647 38.7271 169.88 37.6031 167.2 36.7385 169.361 28.8708 172.647 24.375 175.241 24.375ZM148.266 39.9375C149.044 38.6406 151.292 37.949 154.491 37.949 156.998 37.949 159.851 38.3812 162.964 39.1594 162.358 41.926 161.926 44.9521 161.667 48.0646 159.246 49.7938 157.084 51.5229 155.182 53.3385 149.39 47.4594 146.969 42.1854 148.266 39.9375ZM155.009 73.051C151.81 73.051 149.476 72.2729 148.784 71.0625 147.488 68.8146 149.735 63.8 155.269 58.0938 157.257 59.8229 159.419 61.5521 161.753 63.2812 162.012 66.3073 162.445 69.2469 163.05 71.9271 160.197 72.7052 157.43 73.051 155.009 73.051ZM175.241 86.625C172.647 86.625 169.361 82.1292 167.2 74.3479 169.88 73.4833 172.647 72.4458 175.5 71.149 178.18 72.3594 180.774 73.3969 183.281 74.175 181.12 82.1292 177.834 86.625 175.241 86.625ZM202.216 71.0625C201.438 72.3594 199.19 73.051 195.991 73.051 193.483 73.051 190.544 72.6188 187.518 71.8406 188.036 69.2469 188.469 66.5667 188.728 63.6271 191.322 61.8115 193.656 59.9958 195.731 58.0938 201.265 63.8 203.512 68.8146 202.216 71.0625Z" fill="#404040"/></g></g></g><path d="M0.666666-0.00099763 0.906663 160.377-0.426669 160.379-0.666666 0.00099763ZM4.238 159.039 0.249974 167.045-3.76199 159.051Z" fill="#404040" transform="matrix(1 0 0 -1 33.5001 199.545)"/><path d="M0.00193777-0.666664 165.335-0.186095 165.331 1.14723-0.00193777 0.666664ZM164.012-3.52329 172 0.499947 163.988 4.47668Z" fill="#404040" transform="matrix(1 0 0 -1 25.5001 192)"/><path d="M92 115C92 108.373 97.3726 103 104 103 110.627 103 116 108.373 116 115 116 121.627 110.627 127 104 127 97.3726 127 92 121.627 92 115Z" fill="#404040" fill-rule="evenodd" fill-opacity="0.301961"/><path d="M107 73C107 66.3726 112.373 61 119 61 125.627 61 131 66.3726 131 73 131 79.6274 125.627 85 119 85 112.373 85 107 79.6274 107 73Z" fill="#404040" fill-rule="evenodd" fill-opacity="0.301961"/><path d="M74 42C74 35.3726 79.3726 30 86 30 92.6274 30 98 35.3726 98 42 98 48.6274 92.6274 54 86 54 79.3726 54 74 48.6274 74 42Z" fill="#404040" fill-rule="evenodd" fill-opacity="0.301961"/><path d="M42 159 54 136 66 159Z" fill="#404040" fill-rule="evenodd" fill-opacity="0.301961"/><path d="M155 180 167 158 179 180Z" fill="#404040" fill-rule="evenodd" fill-opacity="0.301961"/><path d="M174 145 186 123 198 145Z" fill="#404040" fill-rule="evenodd" fill-opacity="0.301961"/><path d="M93 179 105 157 117 179Z" fill="#404040" fill-rule="evenodd" fill-opacity="0.301961"/><path d="M145 122 156.5 100 168 122Z" fill="#404040" fill-rule="evenodd" fill-opacity="0.301961"/><path d="M21 92.9906C36.5651 100.849 52.1301 108.708 63.6211 116.118 75.1121 123.527 80.7948 133.895 89.9459 137.45 99.0969 141.006 110.713 143.232 118.527 137.45 126.341 131.668 132.441 110.635 136.829 102.76 141.216 94.8847 142.303 92.8244 144.852 90.1994 147.401 87.5744 148.821 87.1756 152.122 87.0095 155.424 86.8434 158.683 88.9035 161.65 91.595 164.616 94.2865 168.544 98.4401 174.436 98.3736 180.328 98.3071 197 91.1963 197 91.1963L197 91.1963 197 91.1963 197 91.1963" stroke="#404040" stroke-width="4" stroke-miterlimit="8" fill="none" fill-rule="evenodd"/><path d="M50 80.5C50 74.1487 55.3726 69 62 69 68.6274 69 74 74.1487 74 80.5 74 86.8513 68.6274 92 62 92 55.3726 92 50 86.8513 50 80.5Z" fill="#404040" fill-rule="evenodd" fill-opacity="0.301961"/></g></svg>