<svg width="223" height="223" xmlns="http://www.w3.org/2000/svg" xmlns:xlink="http://www.w3.org/1999/xlink" overflow="hidden"><defs><clipPath id="clip0"><rect x="0" y="0" width="223" height="223"/></clipPath><linearGradient x1="112" y1="78.5001" x2="112" y2="154.5" gradientUnits="userSpaceOnUse" spreadMethod="reflect" id="fill1"><stop offset="0" stop-color="#FFFFFF"/><stop offset="0.04" stop-color="#FEFEFE"/><stop offset="0.08" stop-color="#FEFEFE"/><stop offset="0.12" stop-color="#FEFEFE"/><stop offset="0.16" stop-color="#FEFEFE"/><stop offset="0.2" stop-color="#FDFDFD"/><stop offset="0.24" stop-color="#FDFDFD"/><stop offset="0.28" stop-color="#FCFCFC"/><stop offset="0.32" stop-color="#FBFBFB"/><stop offset="0.36" stop-color="#FBFBFB"/><stop offset="0.4" stop-color="#FAFAFA"/><stop offset="0.44" stop-color="#F9F9F9"/><stop offset="0.48" stop-color="#F8F8F8"/><stop offset="0.52" stop-color="#F7F7F7"/><stop offset="0.56" stop-color="#F6F6F6"/><stop offset="0.6" stop-color="#F5F5F5"/><stop offset="0.64" stop-color="#F3F3F3"/><stop offset="0.68" stop-color="#F2F2F2"/><stop offset="0.72" stop-color="#F0F0F0"/><stop offset="0.76" stop-color="#EFEFEF"/><stop offset="0.8" stop-color="#EDEDED"/><stop offset="0.84" stop-color="#ECECEC"/><stop offset="0.88" stop-color="#EAEAEA"/><stop offset="0.92" stop-color="#E8E8E8"/><stop offset="0.96" stop-color="#E6E6E6"/><stop offset="1" stop-color="#E5E5E5"/></linearGradient></defs><g clip-path="url(#clip0)"><rect x="0" y="0" width="223" height="223" fill="#FFFFFF"/><path d="M9.50005 50.5008C9.50005 31.7227 24.7227 16.5001 43.5008 16.5001L180.499 16.5001C199.277 16.5001 214.5 31.7227 214.5 50.5008L214.5 186.499C214.5 205.277 199.277 220.5 180.499 220.5L43.5008 220.5C24.7227 220.5 9.50005 205.277 9.50005 186.499Z" stroke="#000000" stroke-width="1.33333" stroke-miterlimit="8" fill="#F2F2F2" fill-rule="evenodd"/><path d="M59.5001 116.5 165.327 116.5" stroke="#000000" stroke-width="1.33333" stroke-miterlimit="8" fill="none" fill-rule="evenodd"/><path d="M6.85303 7.34863 4.22119 7.34863 4.22119-24.4556 6.85303-24.4556Z" transform="translate(16.3219 127)"/><text fill="#000000" fill-opacity="0" font-family="Arial,Arial_MSFontService,sans-serif" font-size="31.8042" x="4.22119" y="3.37311">ȁ</text><text font-family="Cambria Math,Cambria Math_MSFontService,sans-serif" font-weight="400" font-size="35" transform="translate(27.2886 128)">𝑥</text><path d="M3.64014-24.541 10.459-9.19434 10.459-7.92969 3.64014 7.43408 1.81152 6.78467 7.29736-8.56201 1.81152-23.9258Z" transform="translate(46.8353 127)"/><text fill="#000000" fill-opacity="0" font-family="Arial,Arial_MSFontService,sans-serif" font-size="31.9751" x="1.81152" y="3.43719">ۧ</text><path d="M72.5001 88.4189C72.5001 82.9408 76.9408 78.5001 82.4189 78.5001L141.581 78.5001C147.059 78.5001 151.5 82.9408 151.5 88.4189L151.5 144.581C151.5 150.059 147.059 154.5 141.581 154.5L82.4189 154.5C76.9408 154.5 72.5001 150.059 72.5001 144.581Z" stroke="#404040" stroke-width="1.33333" stroke-miterlimit="8" fill="url(#fill1)" fill-rule="evenodd"/><text font-family="Calibri,Calibri_MSFontService,sans-serif" font-weight="400" font-size="43" transform="translate(101.393 130)">?</text><path d="M6.85303 7.34863 4.22119 7.34863 4.22119-24.4556 6.85303-24.4556Z" transform="translate(161.274 127)"/><text fill="#000000" fill-opacity="0" font-family="Arial,Arial_MSFontService,sans-serif" font-size="31.8042" x="4.22119" y="3.37311">ȁ</text><text font-family="Cambria Math,Cambria Math_MSFontService,sans-serif" font-weight="400" font-size="35" transform="translate(172.241 128)">𝑦</text><path d="M3.64014-24.541 10.459-9.19434 10.459-7.92969 3.64014 7.43408 1.81152 6.78467 7.29736-8.56201 1.81152-23.9258Z" transform="translate(192.168 127)"/><text fill="#000000" fill-opacity="0" font-family="Arial,Arial_MSFontService,sans-serif" font-size="31.9751" x="1.81152" y="3.43719">ۧ</text></g></svg>