<?xml version="1.0" encoding="UTF-8" standalone="no"?>
<svg
   width="722.625"
   height="722.62488"
   xml:space="preserve"
   overflow="hidden"
   version="1.1"
   id="svg17"
   xmlns="http://www.w3.org/2000/svg"
   xmlns:svg="http://www.w3.org/2000/svg"><defs
     id="defs17" /><g
     transform="translate(-27.1875,-41.1876)"
     id="g17"><g
       id="g16"><path
         d="M 37.5,168.502 C 37.5,103.884 89.8837,51.5001 154.502,51.5001 h 467.996 c 64.618,0 117.002,52.3839 117.002,117.0019 V 636.498 C 739.5,701.116 687.116,753.5 622.498,753.5 H 154.502 C 89.8837,753.5 37.5,701.116 37.5,636.498 Z"
         stroke="#000000"
         stroke-width="20.625"
         stroke-linecap="butt"
         stroke-linejoin="miter"
         stroke-miterlimit="8"
         stroke-opacity="1"
         fill="#f2f2f2"
         fill-rule="evenodd"
         fill-opacity="1"
         id="path1" /><g
         id="g5"><g
           id="g4"><g
             id="g3"><path
               d="m 159.981,143 c 0,9.872 -8.003,17.875 -17.875,17.875 -9.872,0 -17.875,-8.003 -17.875,-17.875 0,-9.872 8.003,-17.875 17.875,-17.875 9.872,0 17.875,8.003 17.875,17.875 z"
               fill="#404040"
               fill-rule="nonzero"
               fill-opacity="1"
               transform="matrix(1.0035,0,0,1,459,48.0001)"
               id="path2" /><path
               d="m 246.973,83.4167 c -5.065,-8.6396 -16.385,-12.8104 -31.877,-12.8104 -9.831,0 -21.152,1.7875 -33.665,5.0645 -8.639,-31.2812 -22.939,-51.8375 -39.325,-51.8375 -16.087,0 -30.685,20.2584 -39.027,51.2417 -11.9165,-2.9792 -22.6415,-4.7667 -32.1748,-4.7667 -15.4917,0 -26.8125,4.1709 -31.8771,12.8105 -8.3417,14.3 2.6812,37.2392 25.6208,60.4772 -22.0458,22.642 -32.175,44.687 -24.1312,58.689 5.0646,8.64 16.3854,12.811 31.8771,12.811 8.9375,0 19.3645,-1.49 30.6852,-4.171 8.64,30.983 22.94,51.242 39.027,51.242 16.088,0 30.686,-20.259 39.027,-51.242 11.917,2.979 22.642,4.767 32.175,4.767 15.492,0 26.813,-4.171 31.877,-12.811 8.044,-14.002 -2.085,-36.048 -24.131,-58.689 23.536,-23.536 34.261,-46.4753 25.919,-60.7753 z m -31.877,-0.8938 c 11.023,0 19.067,2.6813 21.45,6.8521 4.469,7.7458 -3.575,25.919 -23.833,46.177 -7.151,-6.554 -15.194,-13.108 -24.132,-19.364 -0.893,-10.13 -2.383,-19.9609 -4.468,-29.1963 11.32,-2.9792 22.045,-4.4688 30.983,-4.4688 z m -53.327,91.4601 c -6.256,3.575 -12.513,6.852 -18.769,9.832 -6.256,-2.98 -12.512,-6.257 -18.769,-9.832 -5.958,-3.575 -11.916,-7.15 -17.279,-10.725 -0.596,-6.554 -0.596,-13.108 -0.596,-20.258 0,-6.554 0.298,-12.81 0.596,-19.067 5.958,-4.17 12.215,-8.043 19.067,-11.916 5.66,-3.277 11.321,-6.257 16.981,-8.938 5.66,2.681 11.321,5.661 16.981,8.938 5.959,3.575 11.917,7.15 17.279,10.725 0.596,6.554 0.596,13.108 0.596,20.258 0,7.448 -0.298,14.598 -0.893,21.45 -4.767,3.277 -9.832,6.256 -15.194,9.533 z m 13.704,5.661 c -0.894,5.66 -1.788,11.321 -2.681,16.385 -5.065,-1.787 -10.427,-3.575 -15.79,-5.958 3.575,-1.788 7.15,-3.873 10.725,-5.958 2.681,-1.49 5.363,-2.98 7.746,-4.469 z m -46.475,10.427 c -5.958,2.383 -11.619,4.469 -17.279,6.256 -1.192,-5.66 -2.086,-11.619 -2.979,-17.875 3.277,2.086 6.256,3.873 9.831,5.958 3.277,1.788 6.852,3.873 10.427,5.661 z m -34.2605,-35.75 c -4.7667,-3.575 -8.9375,-7.15 -12.8104,-10.725 3.8729,-3.575 8.3417,-7.15 12.8104,-10.725 0,3.277 -0.2979,6.554 -0.2979,10.129 0,3.873 0,7.746 0.2979,11.321 z M 108.442,108.74 c 0.893,-6.555 1.787,-12.8108 2.979,-18.7692 5.66,1.7875 11.619,4.1709 17.577,6.5542 -2.979,1.4896 -6.256,3.2771 -9.235,5.065 -3.575,2.383 -7.448,4.766 -11.321,7.15 z m 48.262,-12.215 c 5.363,-2.3833 10.725,-4.1708 16.088,-5.9583 1.191,5.3625 2.085,11.0233 2.979,16.9813 -3.277,-2.085 -6.256,-3.873 -9.831,-5.958 -2.98,-1.49 -5.959,-3.2775 -9.236,-5.065 z m 32.771,35.154 c 5.363,4.171 10.129,8.044 14.598,12.215 -4.469,3.873 -9.235,8.044 -14.598,11.916 0.298,-4.17 0.298,-8.341 0.298,-12.512 0,-4.171 0,-8.044 -0.298,-11.619 z M 142.106,35.75 c 8.938,0 20.557,15.7896 28.004,43.1979 -8.639,2.9792 -17.875,6.5542 -27.11,10.725 C 133.169,85.2042 123.635,81.3313 114.4,78.3521 121.848,51.2417 133.169,35.75 142.106,35.75 Z M 49.1562,89.375 c 2.6813,-4.4688 10.4271,-6.8521 21.4501,-6.8521 8.6395,0 18.4708,1.4896 29.1958,4.1709 -2.0854,9.5333 -3.575,19.9602 -4.4688,30.6852 -8.3416,5.959 -15.7895,11.917 -22.3437,18.173 C 53.0292,115.294 44.6875,97.1208 49.1562,89.375 Z m 23.2376,114.102 c -11.023,0 -19.0667,-2.681 -21.45,-6.852 -4.4688,-7.746 3.277,-25.025 22.3437,-44.687 6.8521,5.958 14.3,11.916 22.3437,17.874 0.8938,10.428 2.3834,20.557 4.4688,29.792 -9.8312,2.681 -19.3646,3.873 -27.7062,3.873 z m 69.7122,46.773 c -8.937,0 -20.258,-15.492 -27.706,-42.304 9.235,-2.979 18.769,-6.554 28.6,-11.023 9.235,4.171 18.173,7.746 26.812,10.427 -7.447,27.408 -18.768,42.9 -27.706,42.9 z m 92.95,-53.625 c -2.681,4.469 -10.427,6.852 -21.45,6.852 -8.639,0 -18.768,-1.489 -29.196,-4.171 1.788,-8.937 3.278,-18.173 4.171,-28.302 8.938,-6.256 16.981,-12.512 24.132,-19.066 19.066,19.662 26.812,36.941 22.343,44.687 z"
               fill="#404040"
               fill-rule="nonzero"
               fill-opacity="1"
               transform="matrix(1.0035,0,0,1,459,48.0001)"
               id="path3" /></g></g></g><path
         d="M 2.29166,-0.00342935 3.11665,551.296 -1.46667,551.303 -2.29166,0.00342935 Z M 14.5681,546.696 0.859285,574.217 -12.9319,546.737 Z"
         fill="#404040"
         fill-rule="nonzero"
         fill-opacity="1"
         transform="matrix(1,0,0,-1,112.5,686.716)"
         id="path5" /><path
         d="M 0.00666109,-2.29166 568.341,-0.639697 568.327,3.94362 -0.00666109,2.29166 Z M 563.79,-12.1113 591.25,1.71857 563.71,15.3886 Z"
         fill="#404040"
         fill-rule="nonzero"
         fill-opacity="1"
         transform="matrix(1,0,0,-1,86.5001,657.219)"
         id="path6" /><path
         d="m 316,395 c 0,-22.644 18.804,-41 42,-41 23.196,0 42,18.356 42,41 0,22.644 -18.804,41 -42,41 -23.196,0 -42,-18.356 -42,-41 z"
         fill="#404040"
         fill-rule="evenodd"
         fill-opacity="0.301961"
         id="path7" /><path
         d="m 368,251 c 0,-22.644 18.804,-41 42,-41 23.196,0 42,18.356 42,41 0,22.644 -18.804,41 -42,41 -23.196,0 -42,-18.356 -42,-41 z"
         fill="#404040"
         fill-rule="evenodd"
         fill-opacity="0.301961"
         id="path8" /><path
         d="m 253,143.5 c 0,-22.92 18.804,-41.5 42,-41.5 23.196,0 42,18.58 42,41.5 0,22.92 -18.804,41.5 -42,41.5 -23.196,0 -42,-18.58 -42,-41.5 z"
         fill="#404040"
         fill-rule="evenodd"
         fill-opacity="0.301961"
         id="path9" /><path
         d="m 146,546 41,-78 41,78 z"
         fill="#404040"
         fill-rule="evenodd"
         fill-opacity="0.301961"
         id="path10" /><path
         d="m 532,620 41,-78 41,78 z"
         fill="#404040"
         fill-rule="evenodd"
         fill-opacity="0.301961"
         id="path11" /><path
         d="m 600,499 41,-78 41,78 z"
         fill="#404040"
         fill-rule="evenodd"
         fill-opacity="0.301961"
         id="path12" /><path
         d="m 319,616 41,-78 41,78 z"
         fill="#404040"
         fill-rule="evenodd"
         fill-opacity="0.301961"
         id="path13" /><path
         d="m 497,420 41,-78 41,78 z"
         fill="#404040"
         fill-rule="evenodd"
         fill-opacity="0.301961"
         id="path14" /><path
         d="m 72.9999,317.856 c 53.3281,27.359 106.6561,54.719 146.0261,80.516 39.37,25.798 58.839,61.891 90.192,74.269 31.353,12.379 71.152,20.129 97.923,0 26.771,-20.129 47.673,-93.356 62.705,-120.774 15.032,-27.416 18.755,-34.589 27.487,-43.728 8.733,-9.139 13.601,-10.528 24.911,-11.106 11.309,-0.578 22.476,6.594 32.641,15.964 10.165,9.371 23.622,23.831 43.807,23.6 C 618.878,336.366 676,311.609 676,311.609 v 0"
         stroke="#404040"
         stroke-width="13.75"
         stroke-linecap="butt"
         stroke-linejoin="miter"
         stroke-miterlimit="8"
         stroke-opacity="1"
         fill="none"
         fill-rule="evenodd"
         id="path15" /><path
         d="m 172,277 c 0,-22.644 18.58,-41 41.5,-41 22.92,0 41.5,18.356 41.5,41 0,22.644 -18.58,41 -41.5,41 -22.92,0 -41.5,-18.356 -41.5,-41 z"
         fill="#404040"
         fill-rule="evenodd"
         fill-opacity="0.301961"
         id="path16" /></g></g></svg>
