<svg xml:space="preserve" width="396.8" height="124.64" xmlns="http://www.w3.org/2000/svg"><defs><clipPath clipPathUnits="userSpaceOnUse" id="a"><path d="M0 0h297.6v93.48H0Z" clip-rule="evenodd"/></clipPath><clipPath clipPathUnits="userSpaceOnUse" id="b"><path d="M16.68 30h29.28v29.16H16.68Z" clip-rule="evenodd"/></clipPath><clipPath clipPathUnits="userSpaceOnUse" id="c"><path d="M0 0h11.66v11.639H0Z"/></clipPath><clipPath clipPathUnits="userSpaceOnUse" id="d"><path d="M.085 11.554h11.52V.034H.085" clip-rule="evenodd"/></clipPath><clipPath clipPathUnits="userSpaceOnUse" id="e"><path d="M0 0h297.6v93.48H0Z" clip-rule="evenodd"/></clipPath><clipPath clipPathUnits="userSpaceOnUse" id="f"><path d="M0 0h297.6v93.48H0Z" clip-rule="evenodd"/></clipPath><clipPath clipPathUnits="userSpaceOnUse" id="g"><path d="M0 0h297.6v93.48H0Z" clip-rule="evenodd"/></clipPath><clipPath clipPathUnits="userSpaceOnUse" id="h"><path d="M132.72 27.84h32.16V60h-32.16z" clip-rule="evenodd"/></clipPath><clipPath clipPathUnits="userSpaceOnUse" id="i"><path d="M0 0h27.357v27.375H0Z"/></clipPath><clipPath clipPathUnits="userSpaceOnUse" id="j"><path d="M.085.05h27.24v27.24H.085z" clip-rule="evenodd"/></clipPath><clipPath clipPathUnits="userSpaceOnUse" id="k"><path d="M.085.05h27.24v27.24H.085z" clip-rule="evenodd"/></clipPath><clipPath clipPathUnits="userSpaceOnUse" id="l"><path d="M.085 27.29h27.24V.05H.085z" clip-rule="evenodd"/></clipPath><clipPath clipPathUnits="userSpaceOnUse" id="m"><path d="M.085 27.29h27.24V.05H.085z" clip-rule="evenodd"/></clipPath><clipPath clipPathUnits="userSpaceOnUse" id="n"><path d="M.085 27.29h27.24V.05H.085z" clip-rule="evenodd"/></clipPath><clipPath clipPathUnits="userSpaceOnUse" id="o"><path d="M.085 27.29h27.24V.05H.085z" clip-rule="evenodd"/></clipPath><clipPath clipPathUnits="userSpaceOnUse" id="p"><path d="M.085 27.29h27.24V.05H.085z" clip-rule="evenodd"/></clipPath><clipPath clipPathUnits="userSpaceOnUse" id="q"><path d="M.085 27.29h27.24V.05H.085z" clip-rule="evenodd"/></clipPath><clipPath clipPathUnits="userSpaceOnUse" id="r"><path d="M.085 27.29h27.24V.05H.085z" clip-rule="evenodd"/></clipPath><clipPath clipPathUnits="userSpaceOnUse" id="s"><path d="M.085 27.29h27.24V.05H.085z" clip-rule="evenodd"/></clipPath><clipPath clipPathUnits="userSpaceOnUse" id="t"><path d="M.085 27.29h27.24V.05H.085z" clip-rule="evenodd"/></clipPath><clipPath clipPathUnits="userSpaceOnUse" id="u"><path d="M.085 27.29h27.24V.05H.085z" clip-rule="evenodd"/></clipPath><clipPath clipPathUnits="userSpaceOnUse" id="v"><path d="M.085 27.29h27.24V.05H.085z" clip-rule="evenodd"/></clipPath><clipPath clipPathUnits="userSpaceOnUse" id="w"><path d="M.085 27.29h27.24V.05H.085z" clip-rule="evenodd"/></clipPath><clipPath clipPathUnits="userSpaceOnUse" id="x"><path d="M.085 27.29h27.24V.05H.085Z" clip-rule="evenodd"/></clipPath><clipPath clipPathUnits="userSpaceOnUse" id="y"><path d="M.085 27.29h27.24V.05H.085Z" clip-rule="evenodd"/></clipPath><clipPath clipPathUnits="userSpaceOnUse" id="z"><path d="M.085 27.29h27.24V.05H.085Z" clip-rule="evenodd"/></clipPath><clipPath clipPathUnits="userSpaceOnUse" id="A"><path d="M.085 27.29h27.24V.05H.085Z" clip-rule="evenodd"/></clipPath><clipPath clipPathUnits="userSpaceOnUse" id="B"><path d="M.085 27.29h27.24V.05H.085Z" clip-rule="evenodd"/></clipPath><clipPath clipPathUnits="userSpaceOnUse" id="C"><path d="M.085 27.29h27.24V.05H.085Z" clip-rule="evenodd"/></clipPath><clipPath clipPathUnits="userSpaceOnUse" id="D"><path d="M.085 27.29h27.24V.05H.085Z" clip-rule="evenodd"/></clipPath><clipPath clipPathUnits="userSpaceOnUse" id="E"><path d="M.085 27.29h27.24V.05H.085Z" clip-rule="evenodd"/></clipPath><clipPath clipPathUnits="userSpaceOnUse" id="F"><path d="M.085 27.29h27.24V.05H.085Z" clip-rule="evenodd"/></clipPath><clipPath clipPathUnits="userSpaceOnUse" id="G"><path d="M.085 27.29h27.24V.05H.085Z" clip-rule="evenodd"/></clipPath><clipPath clipPathUnits="userSpaceOnUse" id="H"><path d="M.085 27.29h27.24V.05H.085Z" clip-rule="evenodd"/></clipPath><clipPath clipPathUnits="userSpaceOnUse" id="I"><path d="M.085 27.29h27.24V.05H.085Z" clip-rule="evenodd"/></clipPath><clipPath clipPathUnits="userSpaceOnUse" id="J"><path d="M.085 27.29h27.24V.05H.085z" clip-rule="evenodd"/></clipPath><clipPath clipPathUnits="userSpaceOnUse" id="K"><path d="M.085 27.29h27.24V.05H.085z" clip-rule="evenodd"/></clipPath><clipPath clipPathUnits="userSpaceOnUse" id="L"><path d="M.085 27.29h27.24V.05H.085z" clip-rule="evenodd"/></clipPath><clipPath clipPathUnits="userSpaceOnUse" id="M"><path d="M.085 27.29h27.24V.05H.085z" clip-rule="evenodd"/></clipPath><clipPath clipPathUnits="userSpaceOnUse" id="N"><path d="M.085 27.29h27.24V.05H.085z" clip-rule="evenodd"/></clipPath><clipPath clipPathUnits="userSpaceOnUse" id="O"><path d="M.085 27.29h27.24V.05H.085z" clip-rule="evenodd"/></clipPath><clipPath clipPathUnits="userSpaceOnUse" id="P"><path d="M.085 27.29h27.24V.05H.085z" clip-rule="evenodd"/></clipPath><clipPath clipPathUnits="userSpaceOnUse" id="Q"><path d="M.085 27.29h27.24V.05H.085z" clip-rule="evenodd"/></clipPath><clipPath clipPathUnits="userSpaceOnUse" id="R"><path d="M.085 27.29h27.24V.05H.085z" clip-rule="evenodd"/></clipPath><clipPath clipPathUnits="userSpaceOnUse" id="S"><path d="M.085 27.29h27.24V.05H.085z" clip-rule="evenodd"/></clipPath><clipPath clipPathUnits="userSpaceOnUse" id="T"><path d="M.085 27.29h27.24V.05H.085z" clip-rule="evenodd"/></clipPath><clipPath clipPathUnits="userSpaceOnUse" id="U"><path d="M.085 27.29h27.24V.05H.085z" clip-rule="evenodd"/></clipPath><clipPath clipPathUnits="userSpaceOnUse" id="V"><path d="M.085 27.29h27.24V.05H.085z" clip-rule="evenodd"/></clipPath><clipPath clipPathUnits="userSpaceOnUse" id="W"><path d="M.085 27.29h27.24V.05H.085z" clip-rule="evenodd"/></clipPath><clipPath clipPathUnits="userSpaceOnUse" id="X"><path d="M.085 27.29h27.24V.05H.085Z" clip-rule="evenodd"/></clipPath><clipPath clipPathUnits="userSpaceOnUse" id="Y"><path d="M.085 27.29h27.24V.05H.085Z" clip-rule="evenodd"/></clipPath><clipPath clipPathUnits="userSpaceOnUse" id="Z"><path d="M.085 27.29h27.24V.05H.085Z" clip-rule="evenodd"/></clipPath><clipPath clipPathUnits="userSpaceOnUse" id="aa"><path d="M.085 27.29h27.24V.05H.085Z" clip-rule="evenodd"/></clipPath><clipPath clipPathUnits="userSpaceOnUse" id="ab"><path d="M.085 27.29h27.24V.05H.085Z" clip-rule="evenodd"/></clipPath><clipPath clipPathUnits="userSpaceOnUse" id="ac"><path d="M.085 27.29h27.24V.05H.085Z" clip-rule="evenodd"/></clipPath><clipPath clipPathUnits="userSpaceOnUse" id="ad"><path d="M.085 27.29h27.24V.05H.085Z" clip-rule="evenodd"/></clipPath><clipPath clipPathUnits="userSpaceOnUse" id="ae"><path d="M.085 27.29h27.24V.05H.085Z" clip-rule="evenodd"/></clipPath><clipPath clipPathUnits="userSpaceOnUse" id="af"><path d="M.085 27.29h27.24V.05H.085Z" clip-rule="evenodd"/></clipPath><clipPath clipPathUnits="userSpaceOnUse" id="ag"><path d="M.085 27.29h27.24V.05H.085Z" clip-rule="evenodd"/></clipPath><clipPath clipPathUnits="userSpaceOnUse" id="ah"><path d="M0 0h297.6v93.48H0Z" clip-rule="evenodd"/></clipPath><clipPath clipPathUnits="userSpaceOnUse" id="ai"><path d="M0 0h297.6v93.48H0Z" clip-rule="evenodd"/></clipPath><clipPath clipPathUnits="userSpaceOnUse" id="al"><path d="M0 0h297.6v93.48H0Z" clip-rule="evenodd"/></clipPath><clipPath clipPathUnits="userSpaceOnUse" id="am"><path d="M0 0h297.6v93.48H0Z" clip-rule="evenodd"/></clipPath><clipPath clipPathUnits="userSpaceOnUse" id="an"><path d="M0 0h297.6v93.48H0Z" clip-rule="evenodd"/></clipPath><clipPath clipPathUnits="userSpaceOnUse" id="ao"><path d="M0 0h297.6v93.48H0Z" clip-rule="evenodd"/></clipPath><clipPath clipPathUnits="userSpaceOnUse" id="ar"><path d="M240.36 22.2h44.28v44.28h-44.28z" clip-rule="evenodd"/></clipPath><clipPath clipPathUnits="userSpaceOnUse" id="as"><path d="M0 0h5.89v5.894H0Z"/></clipPath><clipPath clipPathUnits="userSpaceOnUse" id="at"><path d="M.085 5.809h5.76V.049H.085" clip-rule="evenodd"/></clipPath><clipPath clipPathUnits="userSpaceOnUse" id="au"><path d="M.085 5.809h5.76V.049H.085" clip-rule="evenodd"/></clipPath><clipPath clipPathUnits="userSpaceOnUse" id="av"><path d="M.085 5.809h5.76V.049H.085" clip-rule="evenodd"/></clipPath><clipPath clipPathUnits="userSpaceOnUse" id="aw"><path d="M.085 5.809h5.76V.049H.085" clip-rule="evenodd"/></clipPath><clipPath clipPathUnits="userSpaceOnUse" id="ax"><path d="M.085 5.809h5.76V.049H.085" clip-rule="evenodd"/></clipPath><clipPath clipPathUnits="userSpaceOnUse" id="ay"><path d="M.085 5.809h5.76V.049H.085" clip-rule="evenodd"/></clipPath><clipPath clipPathUnits="userSpaceOnUse" id="az"><path d="M.085 5.809h5.76V.049H.085" clip-rule="evenodd"/></clipPath><clipPath clipPathUnits="userSpaceOnUse" id="aA"><path d="M.085 5.809h5.76V.049H.085" clip-rule="evenodd"/></clipPath><clipPath clipPathUnits="userSpaceOnUse" id="aB"><path d="M.085 5.809h5.76V.049H.085" clip-rule="evenodd"/></clipPath><clipPath clipPathUnits="userSpaceOnUse" id="aC"><path d="M.085 5.809h5.76V.049H.085" clip-rule="evenodd"/></clipPath><clipPath clipPathUnits="userSpaceOnUse" id="aD"><path d="M.085 5.809h5.76V.049H.085" clip-rule="evenodd"/></clipPath><clipPath clipPathUnits="userSpaceOnUse" id="aE"><path d="M.085 5.809h5.76V.049H.085" clip-rule="evenodd"/></clipPath><clipPath clipPathUnits="userSpaceOnUse" id="aF"><path d="M.085 5.809h5.76V.049H.085" clip-rule="evenodd"/></clipPath><clipPath clipPathUnits="userSpaceOnUse" id="aG"><path d="M.085 5.809h5.76V.049H.085" clip-rule="evenodd"/></clipPath><clipPath clipPathUnits="userSpaceOnUse" id="aH"><path d="M.085 5.809h5.76V.049H.085" clip-rule="evenodd"/></clipPath><clipPath clipPathUnits="userSpaceOnUse" id="aI"><path d="M.085 5.809h5.76V.049H.085" clip-rule="evenodd"/></clipPath><clipPath clipPathUnits="userSpaceOnUse" id="aJ"><path d="M.085 5.809h5.76V.049H.085" clip-rule="evenodd"/></clipPath><clipPath clipPathUnits="userSpaceOnUse" id="aK"><path d="M.085 5.809h5.76V.049H.085" clip-rule="evenodd"/></clipPath><clipPath clipPathUnits="userSpaceOnUse" id="aL"><path d="M.085 5.809h5.76V.049H.085" clip-rule="evenodd"/></clipPath><clipPath clipPathUnits="userSpaceOnUse" id="aM"><path d="M.085 5.809h5.76V.049H.085" clip-rule="evenodd"/></clipPath><clipPath clipPathUnits="userSpaceOnUse" id="aN"><path d="M.085 5.809h5.76V.049H.085" clip-rule="evenodd"/></clipPath><clipPath clipPathUnits="userSpaceOnUse" id="aO"><path d="M.085 5.809h5.76V.049H.085" clip-rule="evenodd"/></clipPath><clipPath clipPathUnits="userSpaceOnUse" id="aP"><path d="M.085 5.809h5.76V.049H.085" clip-rule="evenodd"/></clipPath><clipPath clipPathUnits="userSpaceOnUse" id="aQ"><path d="M.085 5.809h5.76V.049H.085" clip-rule="evenodd"/></clipPath><clipPath clipPathUnits="userSpaceOnUse" id="aR"><path d="M.085 5.809h5.76V.049H.085" clip-rule="evenodd"/></clipPath><clipPath clipPathUnits="userSpaceOnUse" id="aS"><path d="M.085 5.809h5.76V.049H.085" clip-rule="evenodd"/></clipPath><clipPath clipPathUnits="userSpaceOnUse" id="aT"><path d="M.085 5.809h5.76V.049H.085" clip-rule="evenodd"/></clipPath><clipPath clipPathUnits="userSpaceOnUse" id="aU"><path d="M.085 5.809h5.76V.049H.085" clip-rule="evenodd"/></clipPath><clipPath clipPathUnits="userSpaceOnUse" id="aV"><path d="M.085 5.809h5.76V.049H.085" clip-rule="evenodd"/></clipPath><clipPath clipPathUnits="userSpaceOnUse" id="aW"><path d="M0 0h297.6v93.48H0Z" clip-rule="evenodd"/></clipPath><clipPath clipPathUnits="userSpaceOnUse" id="aX"><path d="M0 0h297.6v93.48H0Z" clip-rule="evenodd"/></clipPath><clipPath clipPathUnits="userSpaceOnUse" id="aY"><path d="M0 0h297.6v93.48H0Z" clip-rule="evenodd"/></clipPath><clipPath clipPathUnits="userSpaceOnUse" id="aZ"><path d="M0 0h297.6v93.48H0Z" clip-rule="evenodd"/></clipPath><linearGradient x1="180.06" y1="108.96" x2="180.06" y2="56.88" gradientUnits="userSpaceOnUse" spreadMethod="pad" id="aj"><stop style="stop-opacity:1;stop-color:#e5e5e5" offset="0"/><stop style="stop-opacity:1;stop-color:#e5e5e5" offset="1"/></linearGradient><linearGradient x1="180.06" y1="82.92" x2="180.06" y2="56.88" gradientUnits="userSpaceOnUse" spreadMethod="pad" id="ak"><stop style="stop-opacity:1;stop-color:#cdcdcd" offset="0"/><stop style="stop-opacity:1;stop-color:#b8b8b8" offset="1"/></linearGradient><linearGradient x1="66.9" y1="109.2" x2="66.9" y2="57.12" gradientUnits="userSpaceOnUse" spreadMethod="pad" id="ap"><stop style="stop-opacity:1;stop-color:#e5e5e5" offset="0"/><stop style="stop-opacity:1;stop-color:#e5e5e5" offset="1"/></linearGradient><linearGradient x1="66.9" y1="83.16" x2="66.9" y2="57.12" gradientUnits="userSpaceOnUse" spreadMethod="pad" id="aq"><stop style="stop-opacity:1;stop-color:#cdcdcd" offset="0"/><stop style="stop-opacity:1;stop-color:#b8b8b8" offset="1"/></linearGradient></defs><g clip-path="url(#a)" transform="matrix(1.33333 0 0 -1.33333 0 124.64)"><path d="M0 0h297.6v93.48H0Z" style="fill:#fff;fill-opacity:1;fill-rule:evenodd;stroke:none"/></g><path d="M148.8 84.859a5.264 5.264 0 0 0 5.26 5.261h136.12c2.9 0 5.26-2.356 5.26-5.261V8.502a5.264 5.264 0 0 0-5.26-5.262H154.06c-2.9 0-5.26 2.356-5.26 5.261z" style="fill:#fff;fill-opacity:1;fill-rule:evenodd;stroke:none" transform="matrix(1.33333 0 0 -1.33333 0 124.64)"/><path d="M148.8 84.859a5.264 5.264 0 0 0 5.26 5.261h136.12c2.9 0 5.26-2.356 5.26-5.261V8.502a5.264 5.264 0 0 0-5.26-5.262H154.06c-2.9 0-5.26 2.356-5.26 5.261z" style="fill:none;stroke:#7f7f7f;stroke-width:.96;stroke-linecap:butt;stroke-linejoin:miter;stroke-miterlimit:10;stroke-dasharray:3.84,2.88;stroke-dashoffset:0;stroke-opacity:1" transform="matrix(1.33333 0 0 -1.33333 0 124.64)"/><path d="m119.58 41.57-65.831.31.022 4.56 65.829-.31zm-2.24 9.13 13.65-6.904-13.71-6.775z" style="fill:#000;fill-opacity:1;fill-rule:nonzero;stroke:none" transform="matrix(1.33333 0 0 -1.33333 0 124.64)"/><g clip-path="url(#b)" transform="matrix(1.33333 0 0 -1.33333 0 124.64)"><g clip-path="url(#c)" transform="matrix(2.51127 0 0 2.50541 16.68 30)"><path d="m4.236 3.825-1.37 1.369 1.37 1.37.338-.34-1.03-1.03 1.03-1.03ZM7.454 3.825l-.338.338 1.03 1.03-1.03 1.032.338.338 1.37-1.37Z" style="fill:#000;fill-opacity:1;fill-rule:nonzero;stroke:none"/><g clip-path="url(#d)"><path d="m5.041 3.835 1.148 2.77.444-.183-1.149-2.77Z" style="fill:#000;fill-opacity:1;fill-rule:nonzero;stroke:none"/></g><path d="M1.045 9.514v-7.44h9.6v7.44zm8.28-.72a.24.24 0 1 0 0-.48.24.24 0 0 0 0 .48zm-.84 0a.24.24 0 1 0 0-.48.24.24 0 0 0 0 .48zm-.84 0a.24.24 0 1 0 0-.48.24.24 0 0 0 0 .48zm2.28-6h-8.16v4.8h8.16z" style="fill:#000;fill-opacity:1;fill-rule:nonzero;stroke:none"/></g></g><g clip-path="url(#e)" transform="matrix(1.33333 0 0 -1.33333 0 124.64)"><text transform="matrix(1 0 0 -1 13.224 24.768)" style="font-style:italic;font-variant:normal;font-weight:400;font-size:9.984px;font-family:Calibri;-inkscape-font-specification:Calibri-Italic;writing-mode:lr-tb;fill:#000;fill-opacity:1;fill-rule:nonzero;stroke:none"><tspan x="0 5.1617279 7.4580479 12.589824 16.443647 20.287489 22.583809 26.75712 31.888897" y="0">Classical</tspan></text></g><g clip-path="url(#f)" transform="matrix(1.33333 0 0 -1.33333 0 124.64)"><text transform="matrix(1 0 0 -1 13.224 15.144)" style="font-style:italic;font-variant:normal;font-weight:400;font-size:9.96px;font-family:Calibri;-inkscape-font-specification:Calibri-Italic;writing-mode:lr-tb;fill:#000;fill-opacity:1;fill-rule:nonzero;stroke:none"><tspan x="0 5.1493201 8.5158005 13.66512 18.81444 22.170959 27.32028 35.228519" y="0">Program </tspan></text></g><path d="M224.53 46.44h-57.61v-4.56h57.61zm-2.28-9.12 13.68 6.84L222.25 51z" style="fill:#000;fill-opacity:1;fill-rule:nonzero;stroke:none" transform="matrix(1.33333 0 0 -1.33333 0 124.64)"/><g clip-path="url(#g)" transform="matrix(1.33333 0 0 -1.33333 0 124.64)"><text transform="matrix(1 0 0 -1 232.92 12.816)" style="font-style:italic;font-variant:normal;font-weight:400;font-size:9.96px;font-family:Calibri;-inkscape-font-specification:Calibri-Italic;writing-mode:lr-tb;fill:#000;fill-opacity:1;fill-rule:nonzero;stroke:none"><tspan x="0 6.2349601 10.68708 15.80652 19.222799 21.473761 26.623079 28.874041 37.40976 42.559078 47.708401 52.857719 55.148521 59.909401" y="0">Hybrid Module </tspan></text></g><g clip-path="url(#h)" transform="matrix(1.33333 0 0 -1.33333 0 124.64)"><g clip-path="url(#i)" transform="matrix(1.1756 0 0 1.17483 132.72 27.84)"><path d="M.085.05h27.24v27.24H.085z" style="fill:#fff;fill-opacity:1;fill-rule:evenodd;stroke:none"/><path d="M.315 22.596a4.463 4.463 0 0 0 4.464 4.463H22.63a4.463 4.463 0 0 0 4.463-4.463V4.744A4.463 4.463 0 0 0 22.631.28H4.779A4.463 4.463 0 0 0 .315 4.744z" style="fill:#f2f2f2;fill-opacity:1;fill-rule:evenodd;stroke:none"/><path d="M.403 22.59v-.004l.022.457v-.008l.067.442-.003-.011.262.84-.006-.015.413.758-.009-.013.54.66-.01-.011.66.54-.013-.008.757.412-.014-.006.84.263-.012-.003.443.067H4.33l.458.022h-.004 17.85-.004l.458-.022h-.009l.443-.067-.012.003.84-.263-.014.006.757-.412-.012.008.66-.54-.011.011.54-.66-.009.013.413-.758-.006.015.262-.84-.003.011.068-.442-.001.008.023-.457-.001.004V4.74l.001.003-.023-.457.001.008-.068-.442.003.011-.262-.84.006.015-.413-.758.009.013-.54-.66.011.011-.66-.54.012.008L24.337.7l.014.006-.84-.263.012.003L23.08.38h.009l-.458-.022h.004-17.85.004L4.33.38 4.34.379l-.443.067.012-.003-.84.263L3.083.7l-.757.412.012-.008-.66.54.011-.011-.54.66.009-.013-.413.758.006-.015-.262.84.003-.011-.068.442.001-.008-.023.458V4.74ZM.243 4.738l.022-.464.07-.453.266-.853.42-.77.55-.673.672-.55.77-.42.854-.266.452-.07.464-.022h17.854l.464.023.452.069.853.267.771.42.672.55.55.671.42.771.267.853.069.453.023.464v17.854l-.023.463-.069.453-.267.853-.42.771-.55.672-.672.55-.771.42-.853.266-.452.069-.464.023H4.783l-.464-.023-.452-.069-.853-.266-.771-.42-.672-.55-.55-.672-.42-.771-.267-.853-.069-.453-.023-.463Z" style="fill:#000;fill-opacity:1;fill-rule:nonzero;stroke:none"/><path d="m13.567 26.995-.007-.527V23.302v.003l-.008-.482v-.556l.049-.538.165-.409.274-.284.347-.151.39-.058h.404l.856.083h-.004l.427.03-.016-.001.413-.007-.028.003.39-.068-.041.012.345-.15-.048.031.285-.255-.036.045.225-.39-.018.043.143-.533-.005.027.037-.337-.001.016.007-.375.001.011-.015-.375.001.016-.045-.337.004.022-.142-.54.019.046-.232-.39.032.04-.292-.27.044.031-.345-.165.04.013-.382-.082.024.003-.405-.03.017.001-.428.007h.002l-.842.023-.407-.032-.375-.092-.343-.193-.265-.319-.17-.44-.055-.572-.008-.609V13.23v.001l-.008-.856v-.751l.008-.669v.002-.63l.007-1.246.003.032-.045-.263.047.094-.143-.15.078.048-.218-.068.058.008-.285.008.024-.003-.33.053.01-.002-.375.082-.811.175-.431.055h-.425l-.408-.075-.378-.18-.318-.31-.242-.443-.136-.582-.04-.356-.007-.396.015-.395.04-.35.16-.582.242-.434.327-.302.379-.172.413-.066h.425l.424.063.809.174.368.082-.015-.002.33.045-.025-.002h.278l-.066.012.21-.082-.073.053.143-.173-.04.088.045-.293-.002.028v-.66.002l-.007-.579V1.357v.003l-.008-.467V.405h.361v.487-.003l.007.467V3.262 3.26l.008.578v.675l-.055.356-.204.246-.285.112h-.324l-.349-.048-.375-.084h.001l-.802-.172.011.002-.405-.06.026.002h-.397l.028-.002-.375.06.047-.014-.33.15.047-.032-.285.263.035-.045-.217.39.016-.04-.15.548.005-.028-.037.33.001-.013-.015.383v-.011l.008.383-.002-.017.038.338-.004-.021.128.547-.018-.045.218.397-.032-.043.277.27-.048-.033.33.157-.045-.014.368.067-.033-.002h.397-.022l.412-.052-.015.003.803-.172h-.001l.38-.084.347-.055.326-.009.291.09.213.224.057.332-.008 1.261v-.001.631l-.007.669v-.002.75-.002l.007.856v1.538-.002l.008.6-.001-.015.052.54-.011-.048.15.39-.03-.05.225.27-.05-.042.293.165-.046-.018.338.083-.029-.005.383.03h-.019l.833-.023.437-.008.425.032.416.089.388.186.332.306.259.435.152.575.047.357.016.389-.008.388-.04.359-.152.569-.251.436-.329.293-.391.17-.425.074-.434.008-.438-.031-.85-.083.017.001h-.382l.027-.002-.353.053.045-.013-.292.127.057-.04-.225.233.038-.058-.143.353.013-.052-.045.503.001-.016v.547-.003l.007.482V26.467v-.003l.008.525zM3.675 22.792l-.004-.036.06.292-.027-.064.158.232-.052-.05.233.15-.06-.025.284.06-.037-.004h5.145l-.037.004.285-.06-.06.025.232-.15-.052.05.158-.232-.027.064.06-.292-.004.036v-5.077l.004.037-.06-.285.027.064-.158-.233.048.048-.232-.157.064.027-.285-.06.037.004H4.23l.037-.004-.285.06.064-.027-.233.157.049-.048-.158.233.027-.064-.06.285.004-.037zm-.36-5.096.071-.338.197-.291.29-.196.338-.072h5.183l.338.072.29.196.197.291.071.338v5.114l-.071.346-.198.292-.291.188-.336.071H4.21l-.336-.071-.291-.188-.198-.292-.071-.346Z" style="fill:#000;fill-opacity:1;fill-rule:nonzero;stroke:none"/><g clip-path="url(#l)"><path d="M9.399 24.571c.007 0 .012-.006.012-.012v-1.012a.013.013 0 0 0-.012-.013h-.052a.013.013 0 0 0-.012.013v1.012c0 .006.005.012.012.012z" style="fill:#000;fill-opacity:1;fill-rule:evenodd;stroke:none"/></g><g clip-path="url(#m)"><path d="m9.405 24.389-.161.1.007-.015-.019.081v-1.013l.02.081-.008-.015.161.099h-.053l.128-.053-.015.015.053-.127v1.013l-.053-.128.015.015-.128-.053Zm-.127.361-.12-.121v-1.162l.12-.12h.238l.077.153v1.097l-.077.153Z" style="fill:#000;fill-opacity:1;fill-rule:nonzero;stroke:none"/></g><g clip-path="url(#n)"><path d="M8.326 24.571c.005 0 .01-.004.01-.009v-1.018c0-.005-.005-.01-.01-.01h-.038c-.006 0-.01.005-.01.01v1.018c0 .005.004.009.01.009z" style="fill:#000;fill-opacity:1;fill-rule:evenodd;stroke:none"/></g><g clip-path="url(#o)"><path d="m8.332 24.389-.16.1.007-.015-.02.081v-1.013l.02.081-.008-.015.162.099h-.046l.162-.099-.008.015.02-.081v1.013l-.02-.081.008.015-.162-.1zm-.156.361-.076-.153V23.5l.076-.153h.268l.076.153v1.097l-.076.153Z" style="fill:#000;fill-opacity:1;fill-rule:nonzero;stroke:none"/></g><g clip-path="url(#p)"><path d="M7.308 24.571c.005 0 .01-.004.01-.009v-1.018c0-.005-.005-.01-.01-.01h-.039c-.005 0-.01.005-.01.01v1.018c0 .005.005.009.01.009z" style="fill:#000;fill-opacity:1;fill-rule:evenodd;stroke:none"/></g><g clip-path="url(#q)"><path d="m7.313 24.389-.162.1.008-.015-.02.081v-1.013l.02.081-.008-.015.161.099h-.037l.127-.053-.015.015.053-.127v1.013l-.053-.128.015.015-.127-.053Zm-.113.361-.12-.121v-1.162l.12-.12h.224l.076.153v1.097l-.076.153Z" style="fill:#000;fill-opacity:1;fill-rule:nonzero;stroke:none"/></g><g clip-path="url(#r)"><path d="M6.267 24.571c.007 0 .013-.006.013-.012v-1.012a.013.013 0 0 0-.013-.013h-.05a.013.013 0 0 0-.014.013v1.012c0 .006.006.012.013.012z" style="fill:#000;fill-opacity:1;fill-rule:evenodd;stroke:none"/></g><g clip-path="url(#s)"><path d="m6.27 24.389-.127.053.015-.015-.053.128v-1.013l.053.127-.015-.015.127.053h-.052l.16-.099-.007.015.02-.081v1.013l-.02-.081.008.015-.161-.1zm-.164.361-.076-.153V23.5l.076-.153h.239l.12.12v1.162l-.12.121Z" style="fill:#000;fill-opacity:1;fill-rule:nonzero;stroke:none"/></g><g clip-path="url(#t)"><path d="M5.191 24.571c.008 0 .013-.006.013-.012v-1.012a.013.013 0 0 0-.012-.013H5.14a.013.013 0 0 0-.012.013v1.012c0 .006.005.012.012.012z" style="fill:#000;fill-opacity:1;fill-rule:evenodd;stroke:none"/></g><g clip-path="url(#u)"><path d="m5.197 24.389-.16.1.007-.015-.02.081v-1.013l.02.081-.008-.015.161.099h-.052l.127-.053-.015.015.053-.127v1.013l-.053-.128.015.015-.127-.053Zm-.127.361-.12-.121v-1.162l.12-.12h.239l.076.153v1.097l-.076.153Z" style="fill:#000;fill-opacity:1;fill-rule:nonzero;stroke:none"/></g><g clip-path="url(#v)"><path d="M4.173 24.571c.007 0 .013-.006.013-.012v-1.012a.013.013 0 0 0-.013-.013h-.05a.013.013 0 0 0-.014.013v1.012c0 .006.006.012.013.012z" style="fill:#000;fill-opacity:1;fill-rule:evenodd;stroke:none"/></g><g clip-path="url(#w)"><path d="m4.178 24.389-.128.053.015-.015-.053.128v-1.013l.053.127-.015-.015.128.053h-.053l.127-.053-.015.015.053-.127v1.013l-.053-.128.015.015-.127-.053Zm-.128.361-.12-.121v-1.162l.12-.12h.202l.12.12v1.162l-.12.121Z" style="fill:#000;fill-opacity:1;fill-rule:nonzero;stroke:none"/></g><g clip-path="url(#x)"><path d="M9.399 16.983c.007 0 .012-.006.012-.012v-1.012a.013.013 0 0 0-.012-.013h-.052a.013.013 0 0 0-.012.013v1.012c0 .006.005.012.012.012z" style="fill:#000;fill-opacity:1;fill-rule:evenodd;stroke:none"/></g><g clip-path="url(#y)"><path d="m9.405 16.799-.161.1.007-.015-.019.081v-1.013l.053.127-.007-.007.127.053h-.053l.081-.019-.015.007.1-.161v1.013l-.053-.128.015.015-.128-.053Zm-.127.361-.12-.121v-1.198l.152-.077h.17l.113.113v1.13l-.077.153Z" style="fill:#000;fill-opacity:1;fill-rule:nonzero;stroke:none"/></g><g clip-path="url(#z)"><path d="M8.326 16.983c.005 0 .01-.004.01-.009v-1.018c0-.006-.005-.01-.01-.01h-.038c-.006 0-.01.004-.01.01v1.018c0 .005.004.009.01.009z" style="fill:#000;fill-opacity:1;fill-rule:evenodd;stroke:none"/></g><g clip-path="url(#A)"><path d="m8.332 16.799-.127.053.008-.007-.053.127v-1.02l.053.127-.008-.007.127.053h-.045l.128-.053-.008.007.053-.127v1.02l-.053-.127.008.007-.127-.053Zm-.12.361-.112-.113v-1.17l.113-.113h.194l.113.113v1.17l-.113.113z" style="fill:#000;fill-opacity:1;fill-rule:nonzero;stroke:none"/></g><g clip-path="url(#B)"><path d="M7.308 16.983c.005 0 .01-.004.01-.009v-1.018a.01.01 0 0 0-.01-.01h-.039c-.005 0-.01.004-.01.01v1.018c0 .005.005.009.01.009z" style="fill:#000;fill-opacity:1;fill-rule:evenodd;stroke:none"/></g><g clip-path="url(#C)"><path d="m7.313 16.799-.128.053.008-.007-.053.127v-1.02l.053.127-.008-.007.128.053h-.038l.08-.019-.015.007.1-.161v1.02l-.1-.161.016.007-.081-.019Zm-.08.361-.153-.077v-1.242l.153-.077h.154l.113.113v1.17l-.113.113z" style="fill:#000;fill-opacity:1;fill-rule:nonzero;stroke:none"/></g><g clip-path="url(#D)"><path d="M6.267 16.983c.007 0 .013-.006.013-.012v-1.012a.013.013 0 0 0-.013-.013h-.05a.013.013 0 0 0-.014.013v1.012c0 .006.006.012.013.012z" style="fill:#000;fill-opacity:1;fill-rule:evenodd;stroke:none"/></g><g clip-path="url(#E)"><path d="m6.27 16.799-.127.053.015-.015-.053.128v-1.013l.1.161-.016-.007.081.019h-.052l.127-.053-.008.007.053-.127v1.013l-.019-.081.008.015-.161-.1zm-.164.361-.076-.153v-1.13l.113-.113h.17l.152.077v1.198l-.12.121Z" style="fill:#000;fill-opacity:1;fill-rule:nonzero;stroke:none"/></g><g clip-path="url(#F)"><path d="M5.191 16.983c.008 0 .013-.006.013-.012v-1.012a.013.013 0 0 0-.012-.013H5.14a.013.013 0 0 0-.012.013v1.012c0 .006.005.012.012.012z" style="fill:#000;fill-opacity:1;fill-rule:evenodd;stroke:none"/></g><g clip-path="url(#G)"><path d="m5.197 16.799-.16.1.007-.015-.02.081v-1.013l.054.127-.008-.007.127.053h-.052l.08-.019-.015.007.1-.161v1.013l-.053-.128.015.015-.127-.053Zm-.127.361-.12-.121v-1.198l.153-.077h.17l.112.113v1.13l-.076.153Z" style="fill:#000;fill-opacity:1;fill-rule:nonzero;stroke:none"/></g><g clip-path="url(#H)"><path d="M4.173 16.983c.007 0 .013-.006.013-.012v-1.012a.013.013 0 0 0-.013-.013h-.05a.013.013 0 0 0-.014.013v1.012c0 .006.006.012.013.012z" style="fill:#000;fill-opacity:1;fill-rule:evenodd;stroke:none"/></g><g clip-path="url(#I)"><path d="m4.178 16.799-.128.053.015-.015-.053.128v-1.013l.1.161-.015-.007.08.019h-.052l.08-.019-.015.007.1-.161v1.013l-.053-.128.015.015-.127-.053Zm-.128.361-.12-.121v-1.198l.152-.077h.138l.153.077v1.198l-.12.121Z" style="fill:#000;fill-opacity:1;fill-rule:nonzero;stroke:none"/></g><path d="M10.084 22.868c0 .006.005.013.013.013h.973c.007 0 .013-.007.013-.013v-.051a.013.013 0 0 0-.013-.013h-.973a.013.013 0 0 0-.013.013z" style="fill:#000;fill-opacity:1;fill-rule:evenodd;stroke:none"/><path d="m10.268 22.867-.1-.161.015.007-.081-.019h.968l-.081.019.015-.007-.099.161v-.052l.053.127-.015-.015.127.053h-.968l.128-.053-.015.015.053-.127zm-.36-.127.12-.121h1.117l.12.121v.238l-.152.077H10.06l-.153-.077Z" style="fill:#000;fill-opacity:1;fill-rule:nonzero;stroke:none"/><path d="M10.084 21.773c0 .006.005.013.013.013h.973c.007 0 .013-.007.013-.013v-.051a.013.013 0 0 0-.013-.013h-.973a.013.013 0 0 0-.013.013z" style="fill:#000;fill-opacity:1;fill-rule:evenodd;stroke:none"/><path d="m10.268 21.772-.1-.161.015.007-.081-.019h.968l-.081.019.015-.007-.099.161v-.052l.053.127-.015-.015.127.053h-.968l.128-.053-.015.015.053-.127zm-.36-.127.12-.121h1.117l.12.121v.238l-.152.077H10.06l-.153-.077Z" style="fill:#000;fill-opacity:1;fill-rule:nonzero;stroke:none"/><path d="M10.084 20.72c0 .005.004.009.009.009h.98c.005 0 .01-.004.01-.009v-.039c0-.004-.005-.009-.01-.009h-.98c-.005 0-.009.005-.009.009z" style="fill:#000;fill-opacity:1;fill-rule:evenodd;stroke:none"/><path d="m10.268 20.715-.019-.081.007.015-.161-.1h.982l-.161.1.008-.015-.019.081v-.038l.053.127-.008-.007.127.053h-.982l.127-.053-.007.007.053-.127zm-.36-.113.112-.113h1.132l.113.113v.155l-.076.153H9.984l-.077-.153Z" style="fill:#000;fill-opacity:1;fill-rule:nonzero;stroke:none"/><path d="M10.084 19.641c0 .006.005.013.013.013h.973c.007 0 .013-.007.013-.013v-.051a.013.013 0 0 0-.013-.013h-.973a.013.013 0 0 0-.013.013z" style="fill:#000;fill-opacity:1;fill-rule:evenodd;stroke:none"/><path d="m10.268 19.635-.053-.128.015.015-.128-.053h.968l-.127.053.015-.015-.053.128v-.045l.053.127-.015-.015.127.053h-.968l.128-.053-.015.015.053-.127zm-.36-.12.12-.121h1.117l.12.121v.194l-.12.121h-1.117l-.12-.121Z" style="fill:#000;fill-opacity:1;fill-rule:nonzero;stroke:none"/><path d="M10.084 18.546c0 .006.005.013.013.013h.973c.007 0 .013-.007.013-.013v-.051a.013.013 0 0 0-.013-.013h-.973a.013.013 0 0 0-.013.013z" style="fill:#000;fill-opacity:1;fill-rule:evenodd;stroke:none"/><path d="m10.268 18.54-.053-.128.015.015-.128-.053h.968l-.127.053.015-.015-.053.128v-.045l.053.127-.015-.015.127.053h-.968l.128-.053-.015.015.053-.127zm-.36-.12.12-.121h1.117l.12.121v.194l-.12.121h-1.117l-.12-.121Z" style="fill:#000;fill-opacity:1;fill-rule:nonzero;stroke:none"/><path d="M10.084 17.508c0 .007.005.013.013.013h.973a.013.013 0 0 0 .013-.013v-.051c0-.006-.006-.013-.013-.013h-.973a.013.013 0 0 0-.013.013z" style="fill:#000;fill-opacity:1;fill-rule:evenodd;stroke:none"/><path d="m10.268 17.505-.053-.128.015.015-.128-.053h.968l-.127.053.015-.015-.053.128v-.053l.099.161-.015-.007.081.019h-.968l.081-.019-.015.007.1-.161zm-.36-.164.152-.077h1.053l.152.077v.238l-.12.121h-1.117l-.12-.121Z" style="fill:#000;fill-opacity:1;fill-rule:nonzero;stroke:none"/><path d="M2.457 22.926c0 .006.006.012.013.012h.973c.007 0 .013-.006.013-.012v-.052c0-.006-.006-.012-.013-.012H2.47c-.007 0-.013.006-.013.012z" style="fill:#000;fill-opacity:1;fill-rule:evenodd;stroke:none"/><path d="m2.64 22.92-.053-.128.015.015-.127-.053h.975l-.161.1.007-.015-.019.081v-.045l.02.08-.008-.015.161.1h-.975l.127-.053-.015.015.053-.127zm-.36-.12.12-.121h1.161l.077.153v.13l-.077.153h-1.16l-.121-.121Z" style="fill:#000;fill-opacity:1;fill-rule:nonzero;stroke:none"/><path d="M2.457 21.831c0 .006.006.013.013.013h.973c.007 0 .013-.007.013-.013v-.052c0-.006-.006-.012-.013-.012H2.47c-.007 0-.013.006-.013.012z" style="fill:#000;fill-opacity:1;fill-rule:evenodd;stroke:none"/><path d="m2.64 21.825-.053-.128.015.015-.127-.053h.975l-.161.1.007-.015-.019.081v-.045l.02.08-.008-.015.161.1h-.975l.127-.053-.015.015.053-.127zm-.36-.12.12-.121h1.161l.077.153v.13l-.077.153h-1.16l-.121-.121Z" style="fill:#000;fill-opacity:1;fill-rule:nonzero;stroke:none"/><path d="M2.457 20.793c0 .007.006.013.013.013h.973a.013.013 0 0 0 .013-.013v-.051c0-.006-.006-.013-.013-.013H2.47c-.007 0-.013.007-.013.013z" style="fill:#000;fill-opacity:1;fill-rule:evenodd;stroke:none"/><path d="m2.64 20.79-.053-.128.015.015-.127-.053h.975l-.161.1.007-.015-.019.081v-.053l.053.127-.007-.007.127.053h-.975l.08-.019-.014.007.1-.161zm-.36-.164.153-.077h1.092l.113.113v.17l-.077.153h-1.16l-.121-.121Z" style="fill:#000;fill-opacity:1;fill-rule:nonzero;stroke:none"/><path d="M2.457 19.698c0 .007.006.013.013.013h.973a.013.013 0 0 0 .013-.013v-.051c0-.006-.006-.013-.013-.013H2.47c-.007 0-.013.007-.013.013z" style="fill:#000;fill-opacity:1;fill-rule:evenodd;stroke:none"/><path d="m2.64 19.695-.053-.128.015.015-.127-.053h.975l-.161.1.007-.015-.019.081v-.053l.053.127-.007-.007.127.053h-.975l.08-.019-.015.007.1-.161zm-.36-.164.153-.077h1.092l.113.113v.17l-.077.153h-1.16l-.121-.121Z" style="fill:#000;fill-opacity:1;fill-rule:nonzero;stroke:none"/><path d="M2.457 18.603c0 .007.006.013.013.013h.973a.013.013 0 0 0 .013-.013v-.051c0-.006-.006-.013-.013-.013H2.47c-.007 0-.013.007-.013.013z" style="fill:#000;fill-opacity:1;fill-rule:evenodd;stroke:none"/><path d="m2.64 18.6-.053-.128.015.015-.127-.053h.975l-.161.1.007-.015-.019.081v-.053l.053.127-.007-.007.127.053h-.975l.08-.019-.015.007.1-.161zm-.36-.164.153-.077h1.092l.113.113v.17l-.077.153h-1.16l-.121-.121Z" style="fill:#000;fill-opacity:1;fill-rule:nonzero;stroke:none"/><path d="M2.457 17.566c0 .006.006.013.013.013h.973c.007 0 .013-.007.013-.013v-.051a.013.013 0 0 0-.013-.013H2.47a.013.013 0 0 0-.013.013z" style="fill:#000;fill-opacity:1;fill-rule:evenodd;stroke:none"/><path d="m2.64 17.565-.1-.162.015.008-.08-.019h.975l-.127.053.007-.008-.053.128v-.053l.02.081-.008-.015.161.099h-.975l.127-.053-.015.015.053-.127zm-.36-.128.12-.12h1.161l.077.153v.169l-.113.113H2.433l-.153-.076Z" style="fill:#000;fill-opacity:1;fill-rule:nonzero;stroke:none"/><path d="M17.038 9.737c0 .405.328.734.735.734h5.138a.734.734 0 0 0 .735-.734V4.654a.734.734 0 0 0-.735-.734h-5.138a.734.734 0 0 0-.735.734z" style="fill:#f2f2f2;fill-opacity:1;fill-rule:evenodd;stroke:none"/><path d="m17.22 9.735-.004-.037.06.284-.027-.063.158.232-.048-.048.232.157-.064-.027.285.06-.037-.004h5.137l-.036.004.293-.06-.065.027.232-.157-.05.051.15-.232-.025.06.06-.284-.004.037V4.65l.004.037-.06-.285.025.06-.15-.232.05.051-.232-.157.065.027-.293-.06.036.004h-5.137l.037-.004-.285.06.064-.027-.232.157.048-.048-.158.233.027-.064-.06.285.004-.037zm-.36-5.104.071-.338.197-.29.29-.197.338-.071h5.175l.345.07.293.199.188.29.071.337v5.122l-.071.336-.188.292-.293.198-.345.071h-5.175l-.338-.072-.29-.196-.197-.291-.071-.338Z" style="fill:#000;fill-opacity:1;fill-rule:nonzero;stroke:none"/><path d="M19.297 7.132v-.015l.023.548-.002-.02.075.51-.004-.019.12.458-.007-.02.158.397-.01-.021.187.337-.022-.031.218.247-.037-.031.24.157-.062-.026.255.053h-.073l.255-.053-.062.026.24-.157-.037.031.218-.247-.022.031.187-.337-.01.02.158-.397-.007.02.12-.457-.004.02.075-.51-.002.019.023-.548v.015l-.023-.548.002.02-.075-.503.004.019-.12-.465.007.02-.158-.397.011.023-.188-.33.02.028-.218-.255.039.034-.24-.158.062.026-.255-.053h.073l-.255.053.062-.026-.24.158.039-.034-.218.255.02-.028-.188.33.011-.023-.158.398.007-.021-.12.465.004-.019-.075.503.002-.02zm-.337-.572.078-.521.125-.485.167-.42.202-.356.245-.287.29-.19.325-.068.326.067.29.19.245.288.202.356.167.42.125.485.078.521.023.565-.023.564-.078.53-.126.477-.165.418-.203.365-.246.28-.289.19-.326.067-.325-.067-.289-.19-.246-.28-.203-.365-.165-.418-.126-.478-.078-.53-.023-.563Z" style="fill:#000;fill-opacity:1;fill-rule:nonzero;stroke:none"/><g clip-path="url(#J)"><path d="m19.873 8.082-.015-.009.51.255-.014-.006.495.195-.017-.006.472.135-.018-.004.435.075-.028-.003.39.008-.031.002.33-.052-.049.015.255-.12-.056.04.173-.187-.041.073.068-.24-.006.068-.03-.285.011.047-.12-.308.019.035-.218-.322.012.015-.285-.337.017.018-.367-.33.012.01-.428-.323.013.009-.48-.3.015.008-.51-.255.012.006-.495-.203.019.007-.472-.135.018.004-.435-.075.028.003-.39-.008.031-.002-.33.052.049-.014-.255.12.056-.041-.173.187.041-.075-.067.248.005-.067.03.278-.011-.046.12.307-.018-.034.218.33-.013-.017.285.338-.017-.018.367.33-.012-.01.428.323-.013-.01zm-.678.001-.44-.332-.382-.343-.3-.355-.234-.355-.135-.348-.037-.335.088-.323.226-.245.31-.146.371-.06.42.009.458.079.492.14.51.209.524.262.494.308.44.332.382.344.299.354.234.347.137.35.036.343-.089.314-.225.245-.31.146-.371.06-.42-.009-.458-.079-.49-.14-.511-.2-.525-.263z" style="fill:#000;fill-opacity:1;fill-rule:nonzero;stroke:none"/></g><g clip-path="url(#K)"><path d="m20.897 7.995-.012.007.473-.315-.013.01.42-.338-.012.01.352-.337-.015.017.277-.345-.014.02.203-.337-.015.03.112-.307-.01.048.022-.285.01.073-.083-.24.04.066-.172-.18.059.04-.262-.112.046.013-.33-.045.035.001-.382.023.025-.004-.435.09.018-.004-.472.15.017-.007-.488.21.016-.007-.502.277.012-.008-.472.315.012-.009-.412.33.013-.012-.352.345.014-.016-.277.345.014-.02-.203.338.015-.031-.112.307.01-.047-.022.285-.008-.068.075.24-.045-.074.18.18-.054-.037.255.112-.049-.013.33.045-.034-.002.39-.022-.026.003.435-.09-.018.005.472-.15-.017.006.488-.21-.017.008zm-.327.596-.504.218-.49.155-.457.095-.421.024-.372-.05-.31-.137-.235-.235-.098-.316.027-.344.127-.347.217-.363.292-.363.367-.359.426-.34.485-.324.517-.285.503-.217.49-.155.457-.095.413-.024.372.05.319.137.225.235.107.313L23 6.21l-.127.346-.217.363-.293.364-.367.351-.432.348-.485.323Z" style="fill:#000;fill-opacity:1;fill-rule:nonzero;stroke:none"/></g><path d="M19.823 7.119c0 .281.245.509.548.509.302 0 .547-.228.547-.509s-.245-.51-.547-.51c-.303 0-.548.229-.548.51z" style="fill:#000;fill-opacity:1;fill-rule:evenodd;stroke:none"/><path d="m20.006 7.156-.001-.08.045.196-.026-.061.112.165-.05-.05.172.113-.067-.027.217.038h-.062l.21-.038-.064.025.18-.113-.053.052.112-.165-.026.06.045-.194-.001.08-.045-.203.029.065-.112-.157.051.048-.18-.113.064.025-.21-.038h.062l-.217.038.067-.027-.172.113.048-.046-.112.157.029-.065zm-.299-.316.154-.215.232-.152.285-.049.275.05.24.15.155.216.062.278-.062.268-.153.224-.242.15-.275.05-.285-.05-.234-.152-.152-.222-.062-.268Z" style="fill:#000;fill-opacity:1;fill-rule:nonzero;stroke:none"/><g clip-path="url(#L)"><path d="M22.942 11.508a.012.012 0 0 0 .012-.012v-1.012c0-.007-.006-.013-.012-.013h-.052c-.006 0-.012.006-.012.013v1.012c0 .007.006.012.012.012z" style="fill:#000;fill-opacity:1;fill-rule:evenodd;stroke:none"/></g><g clip-path="url(#M)"><path d="m22.942 11.324-.127.053.015-.015-.053.128v-1.013l.1.161-.015-.007.08.019h-.045l.081-.019-.015.007.1-.161v1.013l-.053-.128.015.015-.128-.053zm-.119.361-.121-.121v-1.198l.153-.077h.13l.153.077v1.198l-.121.121z" style="fill:#000;fill-opacity:1;fill-rule:nonzero;stroke:none"/></g><g clip-path="url(#N)"><path d="M21.869 11.508c.005 0 .01-.004.01-.009v-1.018a.01.01 0 0 0-.01-.01h-.038a.01.01 0 0 0-.01.01v1.018c0 .005.005.009.01.009z" style="fill:#000;fill-opacity:1;fill-rule:evenodd;stroke:none"/></g><g clip-path="url(#O)"><path d="m21.87 11.324-.081.019.015-.007-.099.161v-1.02l.099.161-.015-.007.081.019h-.038l.128-.053-.008.007.053-.127v1.02l-.053-.127.008.007-.128-.053zm-.112.361-.113-.113v-1.17l.113-.113h.155l.152.077v1.242l-.152.077z" style="fill:#000;fill-opacity:1;fill-rule:nonzero;stroke:none"/></g><g clip-path="url(#P)"><path d="M20.851 11.508c.005 0 .01-.004.01-.009v-1.018a.01.01 0 0 0-.01-.01h-.038a.01.01 0 0 0-.01.01v1.018c0 .005.005.009.01.009z" style="fill:#000;fill-opacity:1;fill-rule:evenodd;stroke:none"/></g><g clip-path="url(#Q)"><path d="m20.857 11.324-.127.053.008-.007-.053.127v-1.02l.053.127-.008-.007.127.053h-.045l.128-.053-.008.007.053-.127v1.02l-.053-.127.008.007-.128-.053zm-.119.361-.113-.113v-1.17l.113-.113h.194l.113.113v1.17l-.113.113z" style="fill:#000;fill-opacity:1;fill-rule:nonzero;stroke:none"/></g><g clip-path="url(#R)"><path d="M19.81 11.508c.007 0 .013-.005.013-.012v-1.012a.013.013 0 0 0-.013-.013h-.051c-.006 0-.013.006-.013.013v1.012c0 .007.007.012.013.012z" style="fill:#000;fill-opacity:1;fill-rule:evenodd;stroke:none"/></g><g clip-path="url(#S)"><path d="m19.815 11.324-.127.053.015-.015-.053.128v-1.013l.099.161-.015-.007.081.019h-.053l.081-.019-.015.007.1-.161v1.013l-.053-.128.015.015-.128-.053zm-.127.361-.121-.121v-1.198l.153-.077h.138l.152.077v1.198l-.12.121z" style="fill:#000;fill-opacity:1;fill-rule:nonzero;stroke:none"/></g><g clip-path="url(#T)"><path d="M18.738 11.508a.009.009 0 0 0 .009-.009v-1.018c0-.006-.004-.01-.009-.01h-.039c-.004 0-.009.004-.009.01v1.018c0 .005.005.009.009.009z" style="fill:#000;fill-opacity:1;fill-rule:evenodd;stroke:none"/></g><g clip-path="url(#U)"><path d="m18.742 11.324-.127.053.008-.007-.053.127v-1.02l.053.127-.008-.007.127.053h-.037l.081-.019-.015.007.099-.161v1.02l-.099-.161.015.007-.081-.019zm-.08.361-.152-.077v-1.242l.152-.077h.155l.113.113v1.17l-.113.113z" style="fill:#000;fill-opacity:1;fill-rule:nonzero;stroke:none"/></g><g clip-path="url(#V)"><path d="M17.717 11.508a.012.012 0 0 0 .012-.012v-1.012c0-.007-.006-.013-.012-.013h-.052c-.006 0-.013.006-.013.013v1.012c0 .007.007.012.013.012z" style="fill:#000;fill-opacity:1;fill-rule:evenodd;stroke:none"/></g><g clip-path="url(#W)"><path d="m17.722 11.324-.161.1.008-.015-.019.081v-1.013l.053.127-.008-.007.127.053h-.052l.081-.019-.015.007.099-.161v1.013l-.053-.128.015.015-.127-.053zm-.127.361-.12-.121v-1.198l.152-.077h.17l.113.113v1.13l-.076.153z" style="fill:#000;fill-opacity:1;fill-rule:nonzero;stroke:none"/></g><g clip-path="url(#X)"><path d="M22.942 3.92c.006 0 .012-.005.012-.012V2.896c0-.007-.006-.013-.012-.013h-.052c-.006 0-.012.006-.012.013v1.012c0 .007.006.013.012.013z" style="fill:#000;fill-opacity:1;fill-rule:evenodd;stroke:none"/></g><g clip-path="url(#Y)"><path d="m22.942 3.735-.08.019.015-.008-.1.161V2.895l.053.127-.015-.015.127.053h-.045l.128-.053-.015.015.053-.127v1.012l-.1-.161.015.007-.081-.019zm-.087.36-.153-.077V2.82l.121-.12h.194l.121.12v1.198l-.153.077z" style="fill:#000;fill-opacity:1;fill-rule:nonzero;stroke:none"/></g><path d="M21.869 3.92c.005 0 .01-.004.01-.01V2.894c0-.005-.005-.01-.01-.01h-.038c-.005 0-.01.004-.01.01V3.91c0 .005.005.01.01.01z" style="fill:#000;fill-opacity:1;fill-rule:evenodd;stroke:none"/><path d="m21.87 3.735-.081.019.015-.008-.099.161v-1.02l.099.161-.015-.007.081.019h-.038l.128-.053-.008.007.053-.127v1.02l-.053-.127.008.007-.128-.052Zm-.112.36-.113-.113v-1.17l.113-.112h.155l.152.076v1.242l-.152.077z" style="fill:#000;fill-opacity:1;fill-rule:nonzero;stroke:none"/><g clip-path="url(#Z)"><path d="M20.851 3.92c.005 0 .01-.004.01-.01V2.894c0-.005-.005-.01-.01-.01h-.038c-.005 0-.01.004-.01.01V3.91c0 .005.005.01.01.01z" style="fill:#000;fill-opacity:1;fill-rule:evenodd;stroke:none"/></g><g clip-path="url(#aa)"><path d="m20.857 3.735-.127.052.008-.007-.053.127v-1.02l.053.127-.008-.007.127.053h-.045l.128-.053-.008.007.053-.127v1.02l-.053-.127.008.007-.128-.052Zm-.119.36-.113-.113v-1.17l.113-.113h.194l.113.113v1.17l-.113.113z" style="fill:#000;fill-opacity:1;fill-rule:nonzero;stroke:none"/></g><g clip-path="url(#ab)"><path d="M19.81 3.92a.013.013 0 0 0 .013-.012V2.896a.013.013 0 0 0-.013-.013h-.051c-.006 0-.013.006-.013.013v1.012c0 .007.007.013.013.013z" style="fill:#000;fill-opacity:1;fill-rule:evenodd;stroke:none"/></g><g clip-path="url(#ac)"><path d="m19.815 3.735-.081.018.015-.007-.099.161V2.895l.053.127-.015-.015.127.053h-.053l.128-.053-.015.015.053-.127v1.012l-.1-.161.015.007-.081-.019zm-.095.36-.153-.077V2.82l.121-.12h.202l.12.12v1.198l-.152.077z" style="fill:#000;fill-opacity:1;fill-rule:nonzero;stroke:none"/></g><g clip-path="url(#ad)"><path d="M18.738 3.92c.005 0 .009-.004.009-.01V2.894c0-.005-.004-.01-.009-.01h-.039c-.004 0-.009.004-.009.01V3.91c0 .005.005.01.009.01z" style="fill:#000;fill-opacity:1;fill-rule:evenodd;stroke:none"/></g><g clip-path="url(#ae)"><path d="m18.742 3.735-.127.052.008-.007-.053.127v-1.02l.053.127-.008-.007.127.053h-.037l.081-.02-.015.008.099-.16v1.02l-.099-.162.015.007-.081-.018Zm-.08.36-.152-.077V2.776l.152-.076h.155l.113.112v1.17l-.113.113z" style="fill:#000;fill-opacity:1;fill-rule:nonzero;stroke:none"/></g><g clip-path="url(#af)"><path d="M17.717 3.92c.006 0 .012-.005.012-.012V2.896c0-.007-.006-.013-.012-.013h-.052c-.006 0-.013.006-.013.013v1.012c0 .007.007.013.013.013z" style="fill:#000;fill-opacity:1;fill-rule:evenodd;stroke:none"/></g><g clip-path="url(#ag)"><path d="m17.722 3.735-.127.052.008-.007-.053.127V2.895l.019.08-.008-.015.161.1h-.052l.127-.053-.015.015.053-.127v1.012l-.099-.161.015.007-.081-.018Zm-.095.36-.152-.077V2.82l.12-.12h.239l.076.152v1.13l-.113.113z" style="fill:#000;fill-opacity:1;fill-rule:nonzero;stroke:none"/></g><path d="M23.627 9.805c0 .007.006.013.013.013h.973c.006 0 .013-.006.013-.013v-.051c0-.007-.007-.013-.013-.013h-.973a.013.013 0 0 0-.013.013z" style="fill:#000;fill-opacity:1;fill-rule:evenodd;stroke:none"/><path d="m23.813 9.802-.019-.08.007.014-.161-.099h.975l-.127.053.015-.015-.053.127V9.75l.053.127-.015-.015.127.053h-.975l.161-.1-.007.015.019-.08zm-.361-.095.077-.152h1.161l.12.12v.202l-.12.12h-1.161l-.077-.152Z" style="fill:#000;fill-opacity:1;fill-rule:nonzero;stroke:none"/><path d="M23.627 8.71c0 .007.006.013.013.013h.973c.006 0 .013-.006.013-.013V8.66c0-.007-.007-.013-.013-.013h-.973a.013.013 0 0 0-.013.013z" style="fill:#000;fill-opacity:1;fill-rule:evenodd;stroke:none"/><path d="m23.813 8.707-.019-.08.007.014-.161-.099h.975l-.127.053.015-.015-.053.127v-.052l.053.127-.015-.015.127.053h-.975l.161-.1-.007.015.019-.08zm-.361-.095.077-.152h1.161l.12.12v.202l-.12.12h-1.161l-.077-.152Z" style="fill:#000;fill-opacity:1;fill-rule:nonzero;stroke:none"/><path d="M23.627 7.673c0 .007.006.013.013.013h.973c.006 0 .013-.006.013-.013v-.051c0-.007-.007-.013-.013-.013h-.973a.013.013 0 0 0-.013.013z" style="fill:#000;fill-opacity:1;fill-rule:evenodd;stroke:none"/><path d="m23.813 7.672-.053-.127.007.007-.127-.052h.975l-.081.019.015-.008-.099.161V7.62l.053.127-.015-.015.127.053h-.975l.161-.1-.007.015.019-.08zm-.361-.095.077-.152h1.161l.12.12v.238l-.152.077h-1.093l-.113-.113Z" style="fill:#000;fill-opacity:1;fill-rule:nonzero;stroke:none"/><path d="M23.627 6.578c0 .007.006.013.013.013h.973c.006 0 .013-.006.013-.013v-.051c0-.007-.007-.013-.013-.013h-.973a.013.013 0 0 0-.013.013z" style="fill:#000;fill-opacity:1;fill-rule:evenodd;stroke:none"/><path d="m23.813 6.577-.053-.127.007.007-.127-.053h.975l-.081.02.015-.008-.099.161v-.052l.053.127-.015-.015.127.053h-.975l.161-.1-.007.015.019-.08zm-.361-.095.077-.152h1.161l.12.12v.238l-.152.077h-1.093l-.113-.113z" style="fill:#000;fill-opacity:1;fill-rule:nonzero;stroke:none"/><path d="M23.627 5.483c0 .007.006.013.013.013h.973c.006 0 .013-.006.013-.013v-.051c0-.007-.007-.013-.013-.013h-.973a.013.013 0 0 0-.013.013z" style="fill:#000;fill-opacity:1;fill-rule:evenodd;stroke:none"/><path d="m23.813 5.482-.053-.127.007.007-.127-.053h.975l-.081.02.015-.008-.099.161V5.43l.053.127-.015-.015.127.053h-.975l.161-.1-.007.015.019-.08zm-.361-.095.077-.152h1.161l.12.12v.238l-.152.077h-1.093l-.113-.113z" style="fill:#000;fill-opacity:1;fill-rule:nonzero;stroke:none"/><path d="M23.627 4.446c0 .007.006.012.013.012h.973c.006 0 .013-.005.013-.012v-.052c0-.007-.007-.012-.013-.012h-.973a.013.013 0 0 0-.013.012z" style="fill:#000;fill-opacity:1;fill-rule:evenodd;stroke:none"/><path d="m23.813 4.44-.019-.081.007.015-.161-.1h.975l-.127.053.015-.015-.053.128v-.045l.053.127-.015-.015.127.053h-.975l.161-.1-.007.015.019-.08zm-.361-.088.077-.153h1.161l.12.121v.194l-.12.12h-1.161l-.077-.152Z" style="fill:#000;fill-opacity:1;fill-rule:nonzero;stroke:none"/><path d="M16 9.863c0 .007.006.013.013.013h.974c.006 0 .012-.006.012-.013v-.051c0-.007-.006-.013-.012-.013h-.974a.013.013 0 0 0-.013.013Z" style="fill:#000;fill-opacity:1;fill-rule:evenodd;stroke:none"/><path d="m16.185 9.862-.099-.161.015.008-.081-.02h.967l-.08.02.015-.008-.1.161V9.81l.053.127-.015-.015.127.053h-.967l.127-.053-.015.015.053-.127zm-.36-.127.12-.12h1.117l.121.12v.238l-.153.077h-1.053l-.152-.077Z" style="fill:#000;fill-opacity:1;fill-rule:nonzero;stroke:none"/><path d="M16 8.768c0 .007.006.013.013.013h.974c.006 0 .012-.006.012-.013v-.051c0-.007-.006-.013-.012-.013h-.974a.013.013 0 0 0-.013.013Z" style="fill:#000;fill-opacity:1;fill-rule:evenodd;stroke:none"/><path d="m16.185 8.767-.099-.161.015.008-.081-.02h.967l-.08.02.015-.008-.1.161v-.052l.053.127-.015-.015.127.053h-.967l.127-.053-.015.015.053-.127zm-.36-.127.12-.12h1.117l.121.12v.238l-.153.077h-1.053l-.152-.077Z" style="fill:#000;fill-opacity:1;fill-rule:nonzero;stroke:none"/><path d="M16 7.73c0 .007.006.013.013.013h.974c.006 0 .012-.005.012-.012v-.052c0-.007-.006-.013-.012-.013h-.974A.013.013 0 0 0 16 7.68Z" style="fill:#000;fill-opacity:1;fill-rule:evenodd;stroke:none"/><path d="m16.185 7.725-.053-.128.015.015-.127-.053h.967l-.127.053.015-.015-.053.128v-.053l.1.161-.015-.007.08.019h-.967l.081-.02-.015.008.099-.16zm-.36-.164.152-.077h1.053l.153.077v.238l-.121.12h-1.117l-.12-.12z" style="fill:#000;fill-opacity:1;fill-rule:nonzero;stroke:none"/><path d="M16 6.636c0 .007.006.012.013.012h.974c.006 0 .012-.005.012-.012v-.052c0-.007-.006-.012-.012-.012h-.974a.013.013 0 0 0-.013.012Z" style="fill:#000;fill-opacity:1;fill-rule:evenodd;stroke:none"/><path d="m16.185 6.63-.053-.128.015.015-.127-.053h.967l-.127.053.015-.015-.053.128v-.053l.1.161-.015-.007.08.019h-.967l.081-.02-.015.008.099-.16zm-.36-.164.152-.077h1.053l.153.077v.238l-.121.12h-1.117l-.12-.12z" style="fill:#000;fill-opacity:1;fill-rule:nonzero;stroke:none"/><path d="M16 5.544c0 .005.005.01.01.01h.98c.005 0 .009-.005.009-.01v-.039c0-.005-.004-.01-.009-.01h-.98c-.005 0-.01.005-.01.01Z" style="fill:#000;fill-opacity:1;fill-rule:evenodd;stroke:none"/><path d="m16.185 5.542-.053-.127.008.007-.128-.052h.983l-.127.052.007-.007-.053.127v-.037l.019.08-.007-.015.161.1h-.983l.162-.1-.008.015.019-.08zm-.36-.08.076-.152h1.205l.077.152v.155l-.113.113h-1.132l-.113-.113z" style="fill:#000;fill-opacity:1;fill-rule:nonzero;stroke:none"/><path d="M16 4.503c0 .007.006.013.013.013h.974c.006 0 .012-.006.012-.013v-.051c0-.007-.006-.013-.012-.013h-.974a.013.013 0 0 0-.013.013Z" style="fill:#000;fill-opacity:1;fill-rule:evenodd;stroke:none"/><path d="m16.185 4.5-.053-.128.015.015-.127-.052h.967l-.127.052.015-.015-.053.128v-.053l.053.127-.015-.015.127.053h-.967l.127-.053-.015.015.053-.127zm-.36-.127.12-.121h1.117l.121.12v.202l-.121.12h-1.117l-.12-.12z" style="fill:#000;fill-opacity:1;fill-rule:nonzero;stroke:none"/></g></g><g clip-path="url(#ah)" transform="matrix(1.33333 0 0 -1.33333 0 124.64)"><text transform="matrix(1 0 0 -1 194.88 74.52)" style="font-style:italic;font-variant:normal;font-weight:400;font-size:12.024px;font-family:Calibri;-inkscape-font-specification:Calibri-Italic;writing-mode:lr-tb;fill:#000;fill-opacity:1;fill-rule:nonzero;stroke:none"><tspan x="0 5.2785358 9.3546724 15.474888 21.595104 26.27244 29.879641 35.999855 40.075993 49.586975 55.33445 61.430614" y="0">Transformed </tspan></text></g><g clip-path="url(#ai)" transform="matrix(1.33333 0 0 -1.33333 0 124.64)"><text transform="matrix(1 0 0 -1 194.88 62.976)" style="font-style:italic;font-variant:normal;font-weight:400;font-size:12px;font-family:Calibri;-inkscape-font-specification:Calibri-Italic;writing-mode:lr-tb;fill:#000;fill-opacity:1;fill-rule:nonzero;stroke:none"><tspan x="0 3.0239999 9.1199999 15.24 21.360001" y="0">Input</tspan></text></g><path d="M169.68 82.92h20.76V62.811l-5.93-5.931h-14.83z" style="fill:url(#aj);fill-opacity:1;fill-rule:evenodd;stroke:none" transform="matrix(1.33333 0 0 -1.33333 0 124.64)"/><path d="m184.51 56.88 1.19 4.745 4.74 1.186z" style="fill:url(#ak);fill-opacity:1;fill-rule:evenodd;stroke:none" transform="matrix(1.33333 0 0 -1.33333 0 124.64)"/><path d="m184.51 56.88 1.19 4.745 4.74 1.186-5.93-5.931h-14.83v26.04h20.76V62.811" style="fill:none;stroke:#262626;stroke-width:.96;stroke-linecap:butt;stroke-linejoin:miter;stroke-miterlimit:10;stroke-dasharray:none;stroke-opacity:1" transform="matrix(1.33333 0 0 -1.33333 0 124.64)"/><path d="M172.92 79.08h14.46M172.92 77.4h14.46M172.8 75.6h14.46M172.8 73.8h14.46M172.92 72h14.46M172.92 70.32h14.46M172.92 68.52h14.46M172.92 66.72h14.46" style="fill:none;stroke:#262626;stroke-width:.72;stroke-linecap:butt;stroke-linejoin:miter;stroke-miterlimit:10;stroke-dasharray:none;stroke-opacity:1" transform="matrix(1.33333 0 0 -1.33333 0 124.64)"/><g clip-path="url(#al)" transform="matrix(1.33333 0 0 -1.33333 0 124.64)"><text transform="matrix(1 0 0 -1 81.672 78.288)" style="font-style:italic;font-variant:normal;font-weight:400;font-size:12.024px;font-family:Calibri;-inkscape-font-specification:Calibri-Italic;writing-mode:lr-tb;fill:#000;fill-opacity:1;fill-rule:nonzero;stroke:none"><tspan x="0 6.2164078 10.34064 16.436808 22.557024 25.322544 31.070017" y="0">Problem</tspan></text></g><g clip-path="url(#am)" transform="matrix(1.33333 0 0 -1.33333 0 124.64)"><text transform="matrix(1 0 0 -1 122.26 78.288)" style="font-style:italic;font-variant:normal;font-weight:400;font-size:12.024px;font-family:Calibri;-inkscape-font-specification:Calibri-Italic;writing-mode:lr-tb;fill:#000;fill-opacity:1;fill-rule:nonzero;stroke:none"><tspan x="0" y="0">-</tspan></text></g><g clip-path="url(#an)" transform="matrix(1.33333 0 0 -1.33333 0 124.64)"><text transform="matrix(1 0 0 -1 81.672 66.744)" style="font-style:italic;font-variant:normal;font-weight:400;font-size:12.024px;font-family:Calibri;-inkscape-font-specification:Calibri-Italic;writing-mode:lr-tb;fill:#000;fill-opacity:1;fill-rule:nonzero;stroke:none"><tspan x="0 4.6773362 10.797552 16.545025 21.58308 24.3486 28.051992 30.817513 35.819496" y="0">specific </tspan></text></g><g clip-path="url(#ao)" transform="matrix(1.33333 0 0 -1.33333 0 124.64)"><text transform="matrix(1 0 0 -1 81.672 55.2)" style="font-style:italic;font-variant:normal;font-weight:400;font-size:12px;font-family:Calibri;-inkscape-font-specification:Calibri-Italic;writing-mode:lr-tb;fill:#000;fill-opacity:1;fill-rule:nonzero;stroke:none"><tspan x="0 3.0239999 9.1199999 15.24 21.360001" y="0">Input</tspan></text></g><path d="M56.52 83.16h20.76V63.051l-5.931-5.931H56.52Z" style="fill:url(#ap);fill-opacity:1;fill-rule:evenodd;stroke:none" transform="matrix(1.33333 0 0 -1.33333 0 124.64)"/><path d="m71.349 57.12 1.186 4.745 4.745 1.186z" style="fill:url(#aq);fill-opacity:1;fill-rule:evenodd;stroke:none" transform="matrix(1.33333 0 0 -1.33333 0 124.64)"/><path d="m71.349 57.12 1.186 4.745 4.745 1.186-5.931-5.931H56.52v26.04h20.76V63.051" style="fill:none;stroke:#262626;stroke-width:.96;stroke-linecap:butt;stroke-linejoin:miter;stroke-miterlimit:10;stroke-dasharray:none;stroke-opacity:1" transform="matrix(1.33333 0 0 -1.33333 0 124.64)"/><path d="m69.818 65.085-2.135 4.853v3.29c0 .391.226.782.549.977.195.098.259.326.162.489-.064.13-.194.228-.356.195h-3.687c-.194 0-.388-.13-.388-.358 0-.163.064-.293.194-.358.355-.196.55-.587.55-.977v-3.29l-2.103-4.821c-.259-.553 0-1.237.582-1.465.13-.066.291-.098.453-.098h5.176c.614 0 1.1.488 1.1 1.107 0 .163-.033.326-.097.456zm-4.335 7.394v.749c0 .326-.065.652-.259.945h1.973a1.98 1.98 0 0 1-.258-.945v-.749zM67.116 79.373c0-.31-.228-.561-.51-.561-.282 0-.51.251-.51.561 0 .31.228.561.51.561.282 0 .51-.251.51-.561zM68.068 77.693a.56.56 0 1 0-1.122 0 .56.56 0 0 0 1.122 0zM66.028 78.114c0-.282-.251-.51-.561-.51-.31 0-.561.228-.561.51 0 .282.251.51.561.51.31 0 .561-.228.561-.51zM66.575 76.04c0-.427-.321-.773-.717-.773-.397 0-.718.346-.718.773 0 .426.321.772.718.772.396 0 .717-.346.717-.772z" style="fill:#000;fill-opacity:1;fill-rule:evenodd;stroke:none" transform="matrix(1.33333 0 0 -1.33333 0 124.64)"/><g clip-path="url(#ar)" transform="matrix(1.33333 0 0 -1.33333 0 124.64)"><g clip-path="url(#as)" transform="matrix(7.51837 0 0 7.51346 240.36 22.2)"><path d="M.325 4.849v-3.84l2.64-.72 2.64.72v3.84l-2.64.72z" style="fill:#fff;fill-opacity:1;fill-rule:nonzero;stroke:none"/><path d="m.34 4.79.045.059v-3.84l-.044.058 2.64-.72h-.032l2.64.72-.044-.058v3.84l.044-.058-2.64.72h.032Zm2.625.84 2.7-.736V.963l-2.7-.737-2.7.737v3.931Z" style="fill:#000;fill-opacity:1;fill-rule:nonzero;stroke:none"/><path d="m.34 4.907 2.685-.732V.288h-.12v3.885l2.684.733.032-.116-2.64-.72.044.058V.289h-.12v3.84l.044-.058-2.64.72Z" style="fill:#000;fill-opacity:1;fill-rule:nonzero;stroke:none"/><path d="M1.285 4.573v-.48l.24-.15.24.06.24-.15v.54l2.64.72-.72.192z" style="fill:#fff;fill-opacity:1;fill-rule:nonzero;stroke:none"/><path d="m1.3 4.515.045.058v-.48l-.028.05.24-.15-.047.008.265.066.262-.163-.092-.051v.585l2.684.733v-.116l-.72.192h.032zm2.625.852.95-.254-2.854-.778.044.058v-.649l-.332.208.046-.008-.264-.066-.29.181v.56z" style="fill:#000;fill-opacity:1;fill-rule:nonzero;stroke:none"/><g clip-path="url(#at)"><path d="M1.768 2.074c0-.092-.075-.148-.167-.125a.227.227 0 0 0-.166.207c0 .092.075.148.166.125a.227.227 0 0 0 .167-.207Z" style="fill:#000;fill-opacity:1;fill-rule:nonzero;stroke:none"/></g><g clip-path="url(#au)"><path d="M2.576 2.426c-.047.092-.152.157-.296.193a1.243 1.243 0 0 1-.313.03c-.08.311-.213.536-.366.574-.15.037-.285-.118-.362-.386-.111.055-.21.096-.3.119-.143.035-.248.023-.296-.046-.077-.113.025-.352.239-.621-.205-.16-.3-.34-.225-.49.047-.091.153-.156.297-.192.083-.021.18-.031.285-.033.08-.308.213-.53.362-.566.15-.038.286.117.363.385.11-.055.21-.096.3-.118.143-.036.248-.024.295.045.075.111-.02.34-.224.601.219.164.318.353.24.505Zm-.296.082c.102-.026.177-.07.199-.113.042-.083-.033-.233-.222-.374a3.19 3.19 0 0 1-.224.236 2.296 2.296 0 0 1-.041.281c.105.002.205-.01.288-.03Zm-.496-.726a2.057 2.057 0 0 0-.174-.048 3.674 3.674 0 0 0-.335.274c-.006.063-.006.123-.006.19 0 .06.003.118.006.176.055.025.113.046.177.066.052.018.105.032.158.044.052-.038.105-.079.157-.122.056-.047.111-.094.161-.14.006-.062.006-.123.006-.19 0-.069-.003-.135-.009-.197-.044-.02-.091-.035-.14-.053Zm.127-.085a7.902 7.902 0 0 0-.024-.146c-.048.028-.097.058-.147.092.033.008.066.02.1.03l.071.024Zm-.431.011a1.954 1.954 0 0 0-.161-.018c-.011.055-.02.113-.028.173.03-.027.058-.05.092-.078.03-.024.063-.052.097-.077Zm-.319.412a2.2 2.2 0 0 0-.119.129c.036.024.078.047.12.07 0-.03-.004-.06-.004-.093 0-.037 0-.072.003-.106zm.127.391c.009.06.017.115.028.168.053-.03.108-.066.164-.102a1.036 1.036 0 0 1-.086-.025c-.033-.014-.07-.027-.105-.04Zm.449.002c.05.01.1.014.15.018.01-.052.019-.107.027-.164l-.091.078c-.028.02-.055.044-.086.068Zm.305-.402a2.81 2.81 0 0 0 .135-.148c-.041-.025-.086-.053-.135-.077.002.038.002.077.002.116 0 .039 0 .075-.002.109zm-.44 1c.082-.02.19-.194.26-.466a2.456 2.456 0 0 1-.252-.036c-.092.064-.18.122-.266.171.07.235.174.353.257.332ZM.737 2.83c.024.035.096.04.199.014.08-.02.172-.057.271-.107a1.975 1.975 0 0 1-.041-.274 1.35 1.35 0 0 1-.208-.118c-.185.235-.263.423-.221.485Zm.216-1.114c-.103.025-.178.069-.2.113-.041.082.03.225.208.363a4.88 4.88 0 0 1 .208-.217c.008-.1.022-.197.041-.288a.985.985 0 0 0-.257.029Zm.647-.597c-.083.021-.188.191-.257.458.086.006.174.017.266.036.085-.06.169-.114.249-.16-.07-.237-.175-.354-.258-.334Zm.864.283c-.025-.035-.097-.04-.2-.014-.08.02-.174.058-.27.107.016.079.03.161.038.253.083.038.158.077.224.121.178-.227.25-.405.208-.467Z" style="fill:#000;fill-opacity:1;fill-rule:nonzero;stroke:none"/></g><g clip-path="url(#av)"><path d="M4.96 3.286v-.239l-.009-.002h-.004V3.282h.004l.009.003m0 0v-.239l-.009-.002h-.004V3.282h.004z" style="fill:none;stroke:#000;stroke-width:.14019;stroke-linecap:butt;stroke-linejoin:round;stroke-miterlimit:10;stroke-dasharray:none;stroke-opacity:1"/></g><g clip-path="url(#aw)"><path d="m4.712 3.224.005.001V2.987l-.005-.001-.009-.003H4.7V3.22l.004.001.01.002m0 0 .004.001V2.987l-.005-.001-.009-.003H4.7V3.22l.004.001z" style="fill:none;stroke:#000;stroke-width:.14019;stroke-linecap:butt;stroke-linejoin:round;stroke-miterlimit:10;stroke-dasharray:none;stroke-opacity:1"/></g><g clip-path="url(#ax)"><path d="M4.478 3.166h.004V2.929h-.005l-.008-.003-.005-.001V3.163h.005l.009.003m0 0h.004V2.929h-.005l-.008-.003-.005-.001V3.163h.005z" style="fill:none;stroke:#000;stroke-width:.14019;stroke-linecap:butt;stroke-linejoin:round;stroke-miterlimit:10;stroke-dasharray:none;stroke-opacity:1"/></g><g clip-path="url(#ay)"><path d="m4.234 3.105.005.001V2.868l-.005-.002-.009-.002h-.004V3.101h.004l.009.003m0 0 .004.001V2.868l-.004-.002-.009-.002h-.004V3.101h.004z" style="fill:none;stroke:#000;stroke-width:.14019;stroke-linecap:butt;stroke-linejoin:round;stroke-miterlimit:10;stroke-dasharray:none;stroke-opacity:1"/></g><g clip-path="url(#az)"><path d="m3.99 3.044.005.002V2.807l-.004-.001-.01-.002-.004-.002V3.041l.005.001.009.002m0 0 .004.001V2.808l-.004-.001-.01-.002-.004-.002V3.041l.005.001z" style="fill:none;stroke:#000;stroke-width:.14019;stroke-linecap:butt;stroke-linejoin:round;stroke-miterlimit:10;stroke-dasharray:none;stroke-opacity:1"/></g><g clip-path="url(#aA)"><path d="m3.756 2.986.005.001V2.748h-.005l-.009-.003-.004-.001V2.983h.004l.009.003m0 0 .004.001V2.748h-.004l-.009-.003-.004-.001V2.983h.004z" style="fill:none;stroke:#000;stroke-width:.14019;stroke-linecap:butt;stroke-linejoin:round;stroke-miterlimit:10;stroke-dasharray:none;stroke-opacity:1"/></g><g clip-path="url(#aB)"><path d="M4.961 1.526V1.3l-.009-.003h-.004v.224l.004.001.01.003m0 0V1.3l-.01-.003h-.004v.224l.004.001z" style="fill:none;stroke:#000;stroke-width:.14019;stroke-linecap:butt;stroke-linejoin:round;stroke-miterlimit:10;stroke-dasharray:none;stroke-opacity:1"/></g><g clip-path="url(#aC)"><path d="M4.713 1.464h.004V1.24l-.004-.001-.01-.003H4.7v.224l.005.001.009.003m0 0h.004V1.24l-.004-.001-.01-.003H4.7v.224l.005.001z" style="fill:none;stroke:#000;stroke-width:.14019;stroke-linecap:butt;stroke-linejoin:round;stroke-miterlimit:10;stroke-dasharray:none;stroke-opacity:1"/></g><g clip-path="url(#aD)"><path d="m4.478 1.405.004.001v-.225h-.004l-.01-.003-.004-.001v.225h.005l.009.003m0 0 .004.001v-.225h-.004l-.01-.003-.004-.001v.225h.005z" style="fill:none;stroke:#000;stroke-width:.14019;stroke-linecap:butt;stroke-linejoin:round;stroke-miterlimit:10;stroke-dasharray:none;stroke-opacity:1"/></g><g clip-path="url(#aE)"><path d="m4.234 1.344.004.001V1.12h-.004l-.01-.003-.003-.001v.225l.004.001.009.002m0 0 .004.001V1.12h-.004l-.01-.003-.003-.001v.225l.004.001Z" style="fill:none;stroke:#000;stroke-width:.14019;stroke-linecap:butt;stroke-linejoin:round;stroke-miterlimit:10;stroke-dasharray:none;stroke-opacity:1"/></g><g clip-path="url(#aF)"><path d="m3.99 1.283.004.002V1.06l-.004-.002-.009-.002h-.004v.224l.004.001.009.002m0 0 .004.002V1.06l-.004-.002-.009-.002h-.004v.224l.004.001Z" style="fill:none;stroke:#000;stroke-width:.14019;stroke-linecap:butt;stroke-linejoin:round;stroke-miterlimit:10;stroke-dasharray:none;stroke-opacity:1"/></g><g clip-path="url(#aG)"><path d="M3.755 1.225h.004v-.224L3.755 1 3.746.998 3.742.997v.224l.004.002.009.002m0 0h.004v-.224L3.755 1 3.746.998 3.742.997v.224l.004.002Z" style="fill:none;stroke:#000;stroke-width:.14019;stroke-linecap:butt;stroke-linejoin:round;stroke-miterlimit:10;stroke-dasharray:none;stroke-opacity:1"/></g><g clip-path="url(#aH)"><path d="M5.13 2.935v.005l.005.001.21.053h.005V2.977h-.004l-.211-.053-.005-.001v.014m0 0v.004l.005.001.21.053h.005V2.977h-.004l-.211-.053-.005-.001v.004z" style="fill:none;stroke:#000;stroke-width:.14019;stroke-linecap:butt;stroke-linejoin:round;stroke-miterlimit:10;stroke-dasharray:none;stroke-opacity:1"/></g><g clip-path="url(#aI)"><path d="M5.137 2.69v.004l.004.001.205.052h.004V2.73l-.004-.001-.205-.052h-.004v.014m0 0v.004l.004.001.205.052h.004V2.73l-.004-.001-.205-.052h-.004v.004z" style="fill:none;stroke:#000;stroke-width:.14019;stroke-linecap:butt;stroke-linejoin:round;stroke-miterlimit:10;stroke-dasharray:none;stroke-opacity:1"/></g><g clip-path="url(#aJ)"><path d="M5.127 2.444v.005h.005l.214.054.004.001v-.018l-.004-.001-.214-.054h-.005v.013m0 0v.005h.005l.214.054.004.001v-.018l-.004-.001-.214-.054h-.005v.004z" style="fill:none;stroke:#000;stroke-width:.14019;stroke-linecap:butt;stroke-linejoin:round;stroke-miterlimit:10;stroke-dasharray:none;stroke-opacity:1"/></g><g clip-path="url(#aK)"><path d="M5.13 2.197v.005l.005.001.21.053h.005V2.239h-.004l-.211-.054H5.13v.014m0 0v.004l.005.001.21.053h.005V2.239h-.004l-.211-.054H5.13v.004Z" style="fill:none;stroke:#000;stroke-width:.14019;stroke-linecap:butt;stroke-linejoin:round;stroke-miterlimit:10;stroke-dasharray:none;stroke-opacity:1"/></g><g clip-path="url(#aL)"><path d="M5.137 1.947v.005h.004l.205.052h.004V1.987l-.004-.001-.205-.051-.004-.001V1.947m0 0v.005h.004l.205.052h.004V1.987l-.004-.001-.205-.051-.004-.001v.005z" style="fill:none;stroke:#000;stroke-width:.14019;stroke-linecap:butt;stroke-linejoin:round;stroke-miterlimit:10;stroke-dasharray:none;stroke-opacity:1"/></g><g clip-path="url(#aM)"><path d="M5.13 1.702v.005h.005l.21.053.005.002v-.019l-.004-.001-.211-.053H5.13v.014m0 0v.004h.005l.21.053.005.002v-.019l-.004-.001-.211-.053H5.13v.004Z" style="fill:none;stroke:#000;stroke-width:.14019;stroke-linecap:butt;stroke-linejoin:round;stroke-miterlimit:10;stroke-dasharray:none;stroke-opacity:1"/></g><g clip-path="url(#aN)"><path d="M3.36 2.509v.004l.005.001.212.053V2.554L3.365 2.5 3.361 2.5v.009m0 0v.004l.004.001.212.053V2.554L3.365 2.5 3.361 2.5z" style="fill:none;stroke:#000;stroke-width:.14019;stroke-linecap:butt;stroke-linejoin:round;stroke-miterlimit:10;stroke-dasharray:none;stroke-opacity:1"/></g><g clip-path="url(#aO)"><path d="M3.36 2.26v.005l.005.001.208.052h.004v-.017h-.004l-.208-.053h-.004v.013m0 0v.004l.004.001.208.052h.004v-.017h-.004l-.208-.053h-.004v.004z" style="fill:none;stroke:#000;stroke-width:.14019;stroke-linecap:butt;stroke-linejoin:round;stroke-miterlimit:10;stroke-dasharray:none;stroke-opacity:1"/></g><g clip-path="url(#aP)"><path d="M3.36 2.017v.004l.005.001.208.052.004.001v-.017l-.004-.001-.208-.052-.004-.001v.013m0 0v.004l.004.001.208.052.004.001v-.017l-.004-.001-.208-.052-.004-.001v.004Z" style="fill:none;stroke:#000;stroke-width:.14019;stroke-linecap:butt;stroke-linejoin:round;stroke-miterlimit:10;stroke-dasharray:none;stroke-opacity:1"/></g><g clip-path="url(#aQ)"><path d="M3.36 1.769v.004l.005.001.208.052.004.001V1.81l-.004-.001-.208-.052-.004-.001v.013m0 0v.004l.004.001.208.052.004.001V1.81l-.004-.001-.208-.052-.004-.001v.004Z" style="fill:none;stroke:#000;stroke-width:.14019;stroke-linecap:butt;stroke-linejoin:round;stroke-miterlimit:10;stroke-dasharray:none;stroke-opacity:1"/></g><g clip-path="url(#aR)"><path d="M3.36 1.516v.005h.005l.208.053h.004v-.017h-.004l-.208-.053h-.004v.013m0 0v.004h.004l.208.053h.004v-.017h-.004l-.208-.053h-.004v.004z" style="fill:none;stroke:#000;stroke-width:.14019;stroke-linecap:butt;stroke-linejoin:round;stroke-miterlimit:10;stroke-dasharray:none;stroke-opacity:1"/></g><g clip-path="url(#aS)"><path d="M3.36 1.273v.004l.005.001.208.052.004.001v-.017l-.004-.002-.208-.051-.004-.001v.013m0 0v.004l.004.001.208.052.004.001v-.017l-.004-.002-.208-.051-.004-.001v.004Z" style="fill:none;stroke:#000;stroke-width:.14019;stroke-linecap:butt;stroke-linejoin:round;stroke-miterlimit:10;stroke-dasharray:none;stroke-opacity:1"/></g><g clip-path="url(#aT)"><path d="m4.946 3.097.166-.02.063-.149v-1.2l-.055-.155-.145-.1-1.209-.298-.154.03-.072.144v1.196l.063.163.137.091ZM3.78 2.685l.02.009-.113-.075.022.028-.052-.135.004.022v-1.17l-.006.026.052-.105-.042.032.113-.022H3.75l1.185.292-.02-.009.12.083-.023-.03.045.127-.003-.02v1.178l.005-.024-.045.105.048-.035-.12.015h.021z" style="fill:#000;fill-opacity:1;fill-rule:nonzero;stroke:none"/></g><g clip-path="url(#aU)"><path d="M4.336 1.856a.228.228 0 0 0-.003-.043.07.07 0 0 0-.014-.028.4.4 0 0 0-.13-.085.452.452 0 0 0-.21-.035.203.203 0 0 0-.106.044.23.23 0 0 0-.066.101.58.58 0 0 0 .002.334c.017.053.04.1.071.142a.427.427 0 0 0 .363.173.202.202 0 0 0 .045-.008.086.086 0 0 0 .027-.012.04.04 0 0 0 .01-.01.04.04 0 0 0 .005-.012.246.246 0 0 0-.002-.096.04.04 0 0 0-.006-.012.018.018 0 0 0-.01-.006c-.005-.002-.013 0-.021.004a.213.213 0 0 1-.035.014.2.2 0 0 1-.12.003.212.212 0 0 1-.08-.038.245.245 0 0 1-.059-.067.322.322 0 0 1-.036-.09.459.459 0 0 1 0-.222.168.168 0 0 1 .039-.07.117.117 0 0 1 .06-.031.195.195 0 0 1 .08.004.282.282 0 0 1 .12.061.525.525 0 0 1 .035.03.06.06 0 0 0 .022.014h.009l.006-.008a.343.343 0 0 0 .005-.051Z" style="fill:#000;fill-opacity:1;fill-rule:nonzero;stroke:none"/></g><g clip-path="url(#aV)"><path d="M4.962 2.012a.26.26 0 0 0-.004-.043.061.061 0 0 0-.004-.014.09.09 0 0 0-.01-.014.398.398 0 0 0-.13-.085.46.46 0 0 0-.21-.035.203.203 0 0 0-.105.044.23.23 0 0 0-.066.101.579.579 0 0 0 .002.334.429.429 0 0 0 .434.315.201.201 0 0 0 .044-.008.082.082 0 0 0 .027-.012.039.039 0 0 0 .011-.01.037.037 0 0 0 .005-.012.28.28 0 0 0-.002-.096.037.037 0 0 0-.007-.012.018.018 0 0 0-.009-.006c-.006-.002-.013 0-.022.004a.218.218 0 0 1-.085.024.202.202 0 0 1-.069-.007.214.214 0 0 1-.08-.038.245.245 0 0 1-.059-.067.318.318 0 0 1-.037-.09.462.462 0 0 1 0-.223.166.166 0 0 1 .04-.069.116.116 0 0 1 .06-.032.197.197 0 0 1 .08.005.278.278 0 0 1 .12.06.501.501 0 0 1 .035.03.06.06 0 0 0 .021.015h.01c.002-.001.004-.004.005-.008a.389.389 0 0 0 .005-.051Z" style="fill:#000;fill-opacity:1;fill-rule:nonzero;stroke:none"/></g></g></g><path d="M132.72 9.6h32.16v17.76h-32.16z" style="fill:#fff;fill-opacity:1;fill-rule:evenodd;stroke:none" transform="matrix(1.33333 0 0 -1.33333 0 124.64)"/><g clip-path="url(#aW)" transform="matrix(1.33333 0 0 -1.33333 0 124.64)"><text transform="matrix(1 0 0 -1 113.52 20.016)" style="font-style:italic;font-variant:normal;font-weight:400;font-size:9.984px;font-family:Calibri;-inkscape-font-specification:Calibri-Italic;writing-mode:lr-tb;fill:#000;fill-opacity:1;fill-rule:nonzero;stroke:none"><tspan x="0 5.1617279 7.4580479 12.589824 16.443647 20.287489 22.583809 26.75712 31.888897" y="0">Classical</tspan></text></g><g clip-path="url(#aX)" transform="matrix(1.33333 0 0 -1.33333 0 124.64)"><text transform="matrix(1 0 0 -1 147.74 20.016)" style="font-style:italic;font-variant:normal;font-weight:400;font-size:9.984px;font-family:Calibri;-inkscape-font-specification:Calibri-Italic;writing-mode:lr-tb;fill:#000;fill-opacity:1;fill-rule:nonzero;stroke:none"><tspan x="0" y="0">-</tspan></text></g><g clip-path="url(#aY)" transform="matrix(1.33333 0 0 -1.33333 0 124.64)"><text transform="matrix(1 0 0 -1 150.74 20.016)" style="font-style:italic;font-variant:normal;font-weight:400;font-size:9.984px;font-family:Calibri;-inkscape-font-specification:Calibri-Italic;writing-mode:lr-tb;fill:#000;fill-opacity:1;fill-rule:nonzero;stroke:none"><tspan x="0 6.6293759 11.761152 16.892927 22.074623 25.419264 30.580992 38.478336" y="0">Quantum </tspan></text></g><g clip-path="url(#aZ)" transform="matrix(1.33333 0 0 -1.33333 0 124.64)"><text transform="matrix(1 0 0 -1 133.22 10.392)" style="font-style:italic;font-variant:normal;font-weight:400;font-size:9.96px;font-family:Calibri;-inkscape-font-specification:Calibri-Italic;writing-mode:lr-tb;fill:#000;fill-opacity:1;fill-rule:nonzero;stroke:none"><tspan x="0 2.5099199 7.6691999 11.0058 15.81648 19.173 22.170959 27.32028 31.513439" y="0">Interface</tspan></text></g></svg>
