<svg xml:space="preserve" width="396.8" height="124.64" xmlns="http://www.w3.org/2000/svg"><defs><clipPath clipPathUnits="userSpaceOnUse" id="a"><path d="M0 0h297.6v93.48H0Z" clip-rule="evenodd"/></clipPath><clipPath clipPathUnits="userSpaceOnUse" id="b"><path d="M0 0h297.6v93.48H0Z" clip-rule="evenodd"/></clipPath><clipPath clipPathUnits="userSpaceOnUse" id="c"><path d="M0 0h297.6v93.48H0Z" clip-rule="evenodd"/></clipPath><clipPath clipPathUnits="userSpaceOnUse" id="d"><path d="M120.36 29.28h44.28v44.16h-44.28z" clip-rule="evenodd"/></clipPath><clipPath clipPathUnits="userSpaceOnUse" id="e"><path d="M0 0h27.357v27.375H0Z"/></clipPath><clipPath clipPathUnits="userSpaceOnUse" id="f"><path d="M.085.05h27.24v27.24H.085z" clip-rule="evenodd"/></clipPath><clipPath clipPathUnits="userSpaceOnUse" id="g"><path d="M.085 27.29h27.24V.05H.085v16.344z" clip-rule="evenodd"/></clipPath><clipPath clipPathUnits="userSpaceOnUse" id="h"><path d="M.085 27.29h27.24V.05H.085z" clip-rule="evenodd"/></clipPath><clipPath clipPathUnits="userSpaceOnUse" id="i"><path d="M.085.05h27.24v27.24H.085z" clip-rule="evenodd"/></clipPath><clipPath clipPathUnits="userSpaceOnUse" id="j"><path d="M.085 27.29h27.24V.05H.085z" clip-rule="evenodd"/></clipPath><clipPath clipPathUnits="userSpaceOnUse" id="k"><path d="M.085 27.29h27.24V.05H.085z" clip-rule="evenodd"/></clipPath><clipPath clipPathUnits="userSpaceOnUse" id="l"><path d="M.085 27.29h27.24V.05H.085z" clip-rule="evenodd"/></clipPath><clipPath clipPathUnits="userSpaceOnUse" id="m"><path d="M0 0h297.6v93.48H0Z" clip-rule="evenodd"/></clipPath><clipPath clipPathUnits="userSpaceOnUse" id="n"><path d="M0 0h297.6v93.48H0Z" clip-rule="evenodd"/></clipPath><clipPath clipPathUnits="userSpaceOnUse" id="q"><path d="M0 0h297.6v93.48H0Z" clip-rule="evenodd"/></clipPath><clipPath clipPathUnits="userSpaceOnUse" id="r"><path d="M0 0h297.6v93.48H0Z" clip-rule="evenodd"/></clipPath><clipPath clipPathUnits="userSpaceOnUse" id="u"><path d="M0 93.48h297.6V0H0" clip-rule="evenodd"/></clipPath><clipPath clipPathUnits="userSpaceOnUse" id="v"><path d="M0 93.48h297.6V0H0" clip-rule="evenodd"/></clipPath><clipPath clipPathUnits="userSpaceOnUse" id="w"><path d="M0 93.48h297.6V0H0" clip-rule="evenodd"/></clipPath><clipPath clipPathUnits="userSpaceOnUse" id="x"><path d="M0 93.48h297.6V0H0" clip-rule="evenodd"/></clipPath><clipPath clipPathUnits="userSpaceOnUse" id="y"><path d="M40.56 54.96h13.68V63H40.56Z" clip-rule="evenodd"/></clipPath><clipPath clipPathUnits="userSpaceOnUse" id="z"><path d="M0 0h8.52v4.931H0Z"/></clipPath><clipPath clipPathUnits="userSpaceOnUse" id="A"><path d="M.085.046h8.4v4.8h-8.4z" clip-rule="evenodd"/></clipPath><clipPath clipPathUnits="userSpaceOnUse" id="B"><path d="M.085 4.846h8.4v-4.8h-8.4" clip-rule="evenodd"/></clipPath><clipPath clipPathUnits="userSpaceOnUse" id="C"><path d="M40.56 46.2h13.68v7.92H40.56Z" clip-rule="evenodd"/></clipPath><clipPath clipPathUnits="userSpaceOnUse" id="D"><path d="M0 0h8.52v4.931H0Z"/></clipPath><clipPath clipPathUnits="userSpaceOnUse" id="E"><path d="M.085.046h8.4v4.8h-8.4z" clip-rule="evenodd"/></clipPath><clipPath clipPathUnits="userSpaceOnUse" id="F"><path d="M.085 4.846h8.4v-4.8h-8.4" clip-rule="evenodd"/></clipPath><clipPath clipPathUnits="userSpaceOnUse" id="G"><path d="M40.56 37.32h13.68v7.92H40.56Z" clip-rule="evenodd"/></clipPath><clipPath clipPathUnits="userSpaceOnUse" id="H"><path d="M0 0h8.52v4.931H0Z"/></clipPath><clipPath clipPathUnits="userSpaceOnUse" id="I"><path d="M.085.046h8.4v4.8h-8.4z" clip-rule="evenodd"/></clipPath><clipPath clipPathUnits="userSpaceOnUse" id="J"><path d="M.085 4.846h8.4v-4.8h-8.4" clip-rule="evenodd"/></clipPath><clipPath clipPathUnits="userSpaceOnUse" id="K"><path d="M270.12 55.32h13.56v7.92h-13.56z" clip-rule="evenodd"/></clipPath><clipPath clipPathUnits="userSpaceOnUse" id="L"><path d="M0 0h8.52v4.931H0Z"/></clipPath><clipPath clipPathUnits="userSpaceOnUse" id="M"><path d="M.085.046h8.4v4.8h-8.4z" clip-rule="evenodd"/></clipPath><clipPath clipPathUnits="userSpaceOnUse" id="N"><path d="M.085 4.846h8.4v-4.8h-8.4" clip-rule="evenodd"/></clipPath><clipPath clipPathUnits="userSpaceOnUse" id="O"><path d="M270.12 46.44h13.56v8.04h-13.56z" clip-rule="evenodd"/></clipPath><clipPath clipPathUnits="userSpaceOnUse" id="P"><path d="M0 0h8.52v4.931H0Z"/></clipPath><clipPath clipPathUnits="userSpaceOnUse" id="Q"><path d="M.085.046h8.4v4.8h-8.4z" clip-rule="evenodd"/></clipPath><clipPath clipPathUnits="userSpaceOnUse" id="R"><path d="M.085 4.846h8.4v-4.8h-8.4" clip-rule="evenodd"/></clipPath><clipPath clipPathUnits="userSpaceOnUse" id="S"><path d="M270.12 37.56h13.56v8.04h-13.56z" clip-rule="evenodd"/></clipPath><clipPath clipPathUnits="userSpaceOnUse" id="T"><path d="M0 0h8.52v4.931H0Z"/></clipPath><clipPath clipPathUnits="userSpaceOnUse" id="U"><path d="M.085.046h8.4v4.8h-8.4z" clip-rule="evenodd"/></clipPath><clipPath clipPathUnits="userSpaceOnUse" id="V"><path d="M.085 4.846h8.4v-4.8h-8.4" clip-rule="evenodd"/></clipPath><radialGradient fx="0" fy="0" cx="0" cy="0" r="1" gradientUnits="userSpaceOnUse" gradientTransform="translate(35.04 49.56) scale(26.537)" spreadMethod="pad" id="o"><stop style="stop-opacity:1;stop-color:#dbdbdb" offset="0"/><stop style="stop-opacity:1;stop-color:#a9a9a9" offset=".46"/><stop style="stop-opacity:1;stop-color:#636363" offset="1"/></radialGradient><radialGradient fx="0" fy="0" cx="0" cy="0" r="1" gradientUnits="userSpaceOnUse" gradientTransform="translate(35.04 49.56) scale(26.537)" spreadMethod="pad" id="p"><stop style="stop-opacity:1;stop-color:#b0b0b0" offset="0"/><stop style="stop-opacity:1;stop-color:#888" offset=".46"/><stop style="stop-opacity:1;stop-color:#505050" offset="1"/></radialGradient><linearGradient x1="255.9" y1="99.6" x2="255.9" y2="32.88" gradientUnits="userSpaceOnUse" spreadMethod="pad" id="s"><stop style="stop-opacity:1;stop-color:#e5e5e5" offset="0"/><stop style="stop-opacity:1;stop-color:#e5e5e5" offset="1"/></linearGradient><linearGradient x1="255.9" y1="66.24" x2="255.9" y2="32.88" gradientUnits="userSpaceOnUse" spreadMethod="pad" id="t"><stop style="stop-opacity:1;stop-color:#cdcdcd" offset="0"/><stop style="stop-opacity:1;stop-color:#b8b8b8" offset="1"/></linearGradient></defs><g clip-path="url(#a)" transform="matrix(1.33333 0 0 -1.33333 0 124.64)"><path d="M0 0h297.6v93.48H0Z" style="fill:#fff;fill-opacity:1;fill-rule:evenodd;stroke:none"/></g><path d="M209.2 53.52h-27.28v-4.56h27.28zm-2.28-9.12 13.68 6.84-13.68 6.84zM91.239 53.52H63.96v-4.56h27.279zm-2.28-9.12 13.681 6.84-13.681 6.84z" style="fill:#000;fill-opacity:1;fill-rule:nonzero;stroke:none" transform="matrix(1.33333 0 0 -1.33333 0 124.64)"/><g clip-path="url(#b)" transform="matrix(1.33333 0 0 -1.33333 0 124.64)"><text transform="matrix(1 0 0 -1 108.82 22.008)" style="font-variant:normal;font-weight:400;font-size:9.984px;font-family:Calibri;-inkscape-font-specification:Calibri;writing-mode:lr-tb;fill:#000;fill-opacity:1;fill-rule:nonzero;stroke:none"><tspan x="0 6.7192321 11.990784 16.773121 22.06464 25.409281 30.690817 38.608128 40.864513 46.185986 48.452351 51.936768 56.16 61.4016 63.697922 67.042557" y="0">Quantum Circuit </tspan></text></g><g clip-path="url(#c)" transform="matrix(1.33333 0 0 -1.33333 0 124.64)"><text transform="matrix(1 0 0 -1 121.66 12.384)" style="font-variant:normal;font-weight:400;font-size:9.96px;font-family:Calibri;-inkscape-font-specification:Calibri;writing-mode:lr-tb;fill:#000;fill-opacity:1;fill-rule:nonzero;stroke:none"><tspan x="0 4.8007202 8.2767601 13.06752 18.336361 22.18092 24.47172 29.242559 32.609039 37.87788" y="0">Translator</tspan></text></g><g clip-path="url(#d)" transform="matrix(1.33333 0 0 -1.33333 0 124.64)"><g clip-path="url(#e)" transform="matrix(1.61862 0 0 1.61318 120.36 29.28)"><path d="M.085.05h27.24v27.24H.085z" style="fill:#fff;fill-opacity:1;fill-rule:evenodd;stroke:none"/><path d="M2.054 21.52c0 .762.618 1.38 1.38 1.38h5.52a1.38 1.38 0 0 0 1.379-1.38V5.82a1.38 1.38 0 0 0-1.38-1.38h-5.52a1.38 1.38 0 0 0-1.38 1.38z" style="fill:#fff;fill-opacity:1;fill-rule:evenodd;stroke:none"/><path d="M2.235 21.517v-.019l.03.277-.008-.034.082.262-.014-.033.128.233-.018-.027.165.202-.023-.023.202.172-.032-.021.24.127-.034-.014.255.075-.031-.006.277.03-.019-.001h5.52l-.02.001.278-.03-.03.006.263-.075-.038.015.233-.127-.03.02.202-.172-.02.02.172-.202-.02.03.127-.233-.015.038.075-.263-.006.03.03-.277-.001.019V5.812l.001.02-.03-.278.006.031-.075-.255.014.034-.127-.24.021.032-.172-.202.023.023-.202-.165.027.018-.233-.128.033.014-.263-.082.035.007-.277-.03.019.001h-5.52.02l-.278.03.036-.009-.255.083.029-.012-.24.127.03-.02-.203.166.026-.026-.165.202.019-.029-.128.24.013-.029-.083.255.008-.036-.03.277.001-.019Zm-.36-15.715.033-.305L2 5.209l.143-.27.188-.23.23-.188.27-.143.288-.093.305-.033h5.54l.305.033.296.093.263.144.227.186.196.23.146.273.084.288.033.303v15.725l-.033.302-.084.297-.146.266-.194.228-.228.194-.266.146-.297.084-.302.033h-5.54l-.303-.033-.288-.084-.273-.146-.23-.195-.186-.228-.144-.263-.093-.296-.033-.305Z" style="fill:#000;fill-opacity:1;fill-rule:nonzero;stroke:none"/><path d="M5.122 18.697v-.015l.023.548-.002-.02.075.503-.004-.018.12.465-.007-.022.158.398-.01-.023.187.33-.02-.028.217.255-.038-.034.24.158L6 21.168l.255.053H6.18l.255-.053-.062.026.24-.158-.039.034.218-.255-.02.028.188-.33-.01.023.157-.398-.007.022.12-.465-.004.018.075-.503-.002.02.023-.548v.015l-.023-.548.002.02-.075-.503.004.019-.12-.465.007.021-.158-.398.01.023-.187-.33.02.028-.217-.255.038.034-.24-.158.062.026-.255-.053h.073l-.255.053.062-.026-.24.158.039-.034-.218.255.02-.028-.188.33.01-.023-.157.398.007-.021-.12.465.004-.019-.075.503.002-.02zm-.337-.572.078-.521.125-.485.167-.42.202-.356.245-.287.29-.191.325-.067.326.067.29.191.245.287.202.356.167.42.125.485.078.521.023.565-.023.564-.078.521-.125.485-.167.42-.202.356-.245.288-.29.19-.325.067-.325-.067-.29-.19-.246-.288-.202-.356-.167-.42-.125-.485-.078-.521-.023-.564Z" style="fill:#000;fill-opacity:1;fill-rule:nonzero;stroke:none"/><g clip-path="url(#g)"><path d="m5.698 19.639-.015-.008.51.255-.012-.006.495.203-.019-.007.472.135-.021-.004.435.067-.021-.002.39.015-.036.002.323-.052-.048.015.255-.12-.056.041.173-.188-.042.075.068-.248-.006.067-.03-.278.012.047-.12-.308.016.031-.21-.33.017.023-.293-.33.012.012-.36-.338.016.014-.427-.315.011.008-.48-.3.015.008-.51-.255.012.006-.495-.203.019.007-.472-.135.018.004-.435-.075.028.003-.39-.008.031-.002-.33.052.049-.014-.255.12.056-.042-.173.188.04-.073-.067.24.006-.068.03.285-.011-.046.12.307-.019-.035.218.322-.012-.015.285.337-.017-.017.367.33-.011-.01.427.322-.013-.009zm-.678.002-.44-.332-.382-.344-.3-.354-.234-.347-.136-.349-.036-.343.089-.315.225-.245.31-.146.372-.059.42.008.457.079.492.14.51.209.524.262.493.308.441.325.374.351.308.347.227.357.135.346.036.335-.088.323-.226.245-.31.146-.365.06-.418-.016-.457-.071-.493-.141-.51-.209-.524-.262Z" style="fill:#000;fill-opacity:1;fill-rule:nonzero;stroke:none"/></g><g clip-path="url(#h)"><path d="m6.725 19.558-.015.009.473-.315-.013.01.42-.338-.014.012.353-.345-.014.016.277-.345-.013.018.203-.33-.017.034.113-.315-.01.046.023-.278.009.074-.083-.24.04.066-.172-.18.06.041-.263-.113.046.013-.33-.045.035.001-.382.023.026-.004-.435.09.018-.004-.473.15.017-.007-.488.21.014-.006-.502.27.014-.009-.472.315.014-.011-.412.338.012-.011-.353.345.014-.016-.277.345.013-.018-.202.33.014-.03-.12.315.012-.05-.023.278-.01-.073.083.24-.04-.067.173.18-.06-.04.263.112-.047-.013.33.045-.034-.001.39-.023-.027.004.427-.09-.017.004.473-.15-.017.007.487-.21-.014.006zm-.34.591-.502.217-.49.155-.45.095-.42.024-.371-.05-.32-.137-.224-.235-.108-.313.028-.341.135-.354.217-.354.291-.363.366-.358.426-.348.487-.325.517-.277.503-.217.49-.155.456-.095.413-.024.372.05.319.137.225.235.108.313-.028.339-.127.355-.218.356-.291.362-.367.358-.433.348-.486.325z" style="fill:#000;fill-opacity:1;fill-rule:nonzero;stroke:none"/></g><path d="M5.646 18.674c0 .275.245.499.548.499.302 0 .547-.224.547-.499s-.245-.5-.547-.5c-.303 0-.548.225-.548.5z" style="fill:#000;fill-opacity:1;fill-rule:evenodd;stroke:none"/><path d="M5.823 18.708v-.081l.045.195-.032-.069.12.157-.045-.041.172.112-.066-.026.21.037h-.063l.218-.037-.068.026.173-.112-.049.046.113-.158-.029.065.045-.195v.081l-.045-.195.029.064-.113-.158.053.049-.172-.105.063.024-.218-.037.063-.001-.21.038.062-.024-.173.105.05-.044-.12.157.032-.068zm-.297-.314.164-.216.23-.14.275-.049.282.049.233.142.155.217.062.27-.062.271-.153.214-.232.151-.286.049-.277-.049-.229-.15-.162-.213-.063-.273Z" style="fill:#000;fill-opacity:1;fill-rule:nonzero;stroke:none"/><path d="M17.038 21.517c0 .764.619 1.383 1.383 1.383h5.532c.764 0 1.384-.619 1.384-1.383V5.822c0-.764-.62-1.383-1.384-1.383h-5.532c-.764 0-1.383.62-1.383 1.383z" style="fill:#fff;fill-opacity:1;fill-rule:evenodd;stroke:none"/><path d="m17.22 21.517-.001-.019.03.277-.008-.036.083.255-.012-.029.127.24-.019-.029.165.202-.029-.028.21.165-.024-.016.232.128-.033-.014.263.082-.035-.007.278.03-.02-.001h5.528l-.019.001.277-.03-.035.007.263-.082-.033.014.233-.128-.025.016.21-.165-.028.028.165-.202-.02.029.128-.24-.012.029.082-.255-.008.036.03-.277-.001.019V5.82l.001.019-.03-.278.008.035-.083-.262.014.032-.127-.232.016.024-.165-.21.03.03-.21-.164.025.016-.233-.127.033.013-.263-.082.035.007-.277-.03.019.001h-5.528.02l-.278.03.035-.008-.263.082.033-.013-.232.127.024-.016-.21.165.031-.03-.165.21.016-.025-.128.232.014-.032-.082.262.007-.035-.03.278.001-.02ZM16.86 5.81l.033-.305.093-.296.143-.262.188-.238.238-.188.262-.143.296-.093.305-.033h5.547l.305.033.296.093.261.143.239.188.187.238.143.262.094.296.033.305v15.717l-.033.305-.094.288-.143.27-.189.231-.237.187-.261.143-.296.093-.305.033h-5.547l-.305-.033-.296-.093-.262-.143-.237-.187-.189-.231-.143-.27-.093-.288-.033-.305Z" style="fill:#000;fill-opacity:1;fill-rule:nonzero;stroke:none"/><path d="M20.122 18.697v-.015l.023.548-.002-.02.075.503-.004-.018.12.465-.007-.022.158.398-.011-.023.188.33-.018-.025.21.255-.04-.037.24.158-.063-.026.255.053h-.072l.255-.053-.063.026.24-.158-.04.037.21-.255-.018.025.188-.33-.011.023.158-.398-.007.022.12-.465-.004.018.075-.503-.002.02.023-.548v.015l-.023-.548.002.02-.075-.503.004.019-.12-.465.007.021-.158-.398.011.023-.188-.33.018.026-.21-.255.04.036-.24-.158.063.026-.255-.053h.072l-.255.053.063-.026-.24.158.04-.036-.21.255.018-.026-.188.33.011-.023-.158.398.007-.021-.12.465.004-.019-.075.503.002-.02zm-.337-.572.078-.521.125-.485.167-.42.201-.354.237-.289.292-.191.325-.067.325.067.292.191.237.289.201.354.167.42.125.485.078.521.023.565-.023.564-.078.521-.125.485-.167.42-.201.355-.237.288-.292.191-.325.067-.325-.067-.292-.191-.237-.288-.201-.355-.167-.42-.125-.485-.078-.521-.023-.564z" style="fill:#000;fill-opacity:1;fill-rule:nonzero;stroke:none"/><g clip-path="url(#j)"><path d="m20.69 19.639-.014-.008.51.255-.013-.006.495.203-.019-.007.473.135-.022-.004.435.067-.021-.002.39.015-.035.002.33-.052-.048.015.255-.12-.056.041.172-.188-.041.075.068-.248-.006.067-.03-.278.012.047-.12-.308.017.034-.217-.33.014.018-.285-.33.014.015-.367-.337.015.012-.428-.315.012.008-.48-.3.014.008-.51-.255.013.006-.495-.203.019.007-.473-.135.019.004-.435-.075.027.003-.39-.008.032-.002-.322.052.048-.014-.255.12.056-.042-.173.188.039-.068-.075.24.008-.073.03.285-.013-.05.127.308-.015-.03.21.323-.013-.018.285.337-.018-.017.368.33-.012-.01.427.322-.013-.009zm-.677.002-.44-.332-.383-.344-.3-.355-.225-.346-.144-.347-.037-.348.099-.314.223-.243.31-.146.364-.059.42.008.458.079.491.14.51.209.524.262.493.308.441.325.382.351.3.347.234.355.136.348.036.335-.088.323-.226.245-.31.146-.373.06-.418-.016-.456-.071-.493-.141-.51-.209-.524-.262z" style="fill:#000;fill-opacity:1;fill-rule:nonzero;stroke:none"/></g><g clip-path="url(#k)"><path d="m21.725 19.558-.015.009.473-.315-.015.011.413-.338-.012.011.353-.345-.015.016.278-.345-.014.018.203-.33-.016.034.112-.315-.01.046.023-.278.008.069-.075-.24.044.073-.18-.18.055.038-.255-.113.048.014-.33-.045.035.001-.39.023.026-.004-.435.09.019-.005-.465.15.015-.005-.495.21.016-.008-.495.27.013-.008-.472.315.013-.01-.42.338.013-.012-.353.345.015-.016-.278.345.013-.018-.202.33.016-.034-.112.315.01-.046-.023.278-.009-.073.082.24-.04-.067.173.18-.06-.04.263.112-.047-.013.33.045-.034-.001.39-.023-.027.004.427-.09-.017.004.473-.15-.017.007.487-.21-.014.006zm-.339.591-.503.217-.49.155-.449.095-.421.024-.372-.05-.318-.137-.225-.235-.108-.313.027-.339.127-.355.218-.355.292-.363.366-.358.433-.348.486-.324.51-.278.511-.217.481-.155.458-.095.421-.024.372.051.309.136.235.235.099.316-.027.336-.127.355-.218.356-.292.362-.366.358-.425.348-.487.325z" style="fill:#000;fill-opacity:1;fill-rule:nonzero;stroke:none"/></g><path d="M20.63 18.674c0 .275.25.499.557.499.308 0 .557-.224.557-.499s-.249-.5-.557-.5c-.307 0-.557.225-.557.5z" style="fill:#000;fill-opacity:1;fill-rule:evenodd;stroke:none"/><path d="M20.808 18.708v-.081l.045.195-.032-.069.12.157-.045-.041.172.112-.067-.026.217.037h-.061l.217-.037-.064.024.18-.112-.048.043.12-.157-.032.069.045-.195v.081l-.045-.195.032.068-.12-.157.052.046-.18-.105.06.022-.217-.037h.061l-.217.037.063-.024-.173.105.05-.044-.12.157.032-.068zm-.297-.314.164-.216.231-.14.281-.049.281.049.239.139.165.217.063.273-.063.273-.164.215-.238.149-.283.048-.284-.049-.23-.15-.162-.213-.063-.273z" style="fill:#000;fill-opacity:1;fill-rule:nonzero;stroke:none"/><path d="M9.565 17.771 18 9.547" style="fill:none;stroke:#000;stroke-width:.48025;stroke-linecap:round;stroke-linejoin:round;stroke-miterlimit:10;stroke-dasharray:none;stroke-opacity:1"/><g clip-path="url(#l)"><path d="M17.865 17.886 9.642 9.451" style="fill:none;stroke:#000;stroke-width:.48025;stroke-linecap:round;stroke-linejoin:round;stroke-miterlimit:10;stroke-dasharray:none;stroke-opacity:1"/></g></g></g><path d="M109.2 31.8h66.12v39.12H109.2Z" style="fill:none;stroke:#000;stroke-width:.96;stroke-linecap:butt;stroke-linejoin:miter;stroke-miterlimit:10;stroke-dasharray:none;stroke-opacity:1" transform="matrix(1.33333 0 0 -1.33333 0 124.64)"/><g clip-path="url(#m)" transform="matrix(1.33333 0 0 -1.33333 0 124.64)"><text transform="matrix(1 0 0 -1 15.792 22.344)" style="font-style:italic;font-variant:normal;font-weight:400;font-size:9.984px;font-family:Calibri;-inkscape-font-specification:Calibri-Italic;writing-mode:lr-tb;fill:#000;fill-opacity:1;fill-rule:nonzero;stroke:none"><tspan x="0 6.6293759 11.761152 16.892927 22.074623 25.419264 30.580992 38.478336" y="0">Quantum </tspan></text></g><g clip-path="url(#n)" transform="matrix(1.33333 0 0 -1.33333 0 124.64)"><text transform="matrix(1 0 0 -1 22.152 12.72)" style="font-style:italic;font-variant:normal;font-weight:400;font-size:9.96px;font-family:Calibri;-inkscape-font-specification:Calibri-Italic;writing-mode:lr-tb;fill:#000;fill-opacity:1;fill-rule:nonzero;stroke:none"><tspan x="0 5.1592798 7.4500799 10.79664 14.9898 20.13912 22.42992" y="0">Circuit</tspan></text></g><path d="M14.4 66.24h41.28V36.23l-3.35-3.35H14.4Z" style="fill:url(#o);fill-opacity:1;fill-rule:evenodd;stroke:none" transform="matrix(1.33333 0 0 -1.33333 0 124.64)"/><path d="m52.33 32.88.67 2.68 2.68.67z" style="fill:url(#p);fill-opacity:1;fill-rule:evenodd;stroke:none" transform="matrix(1.33333 0 0 -1.33333 0 124.64)"/><path d="m52.33 32.88.67 2.68 2.68.67-3.35-3.35H14.4v33.36h41.28V36.23" style="fill:none;stroke:#262626;stroke-width:.96;stroke-linecap:butt;stroke-linejoin:miter;stroke-miterlimit:10;stroke-dasharray:none;stroke-opacity:1" transform="matrix(1.33333 0 0 -1.33333 0 124.64)"/><g clip-path="url(#q)" transform="matrix(1.33333 0 0 -1.33333 0 124.64)"><text transform="matrix(1 0 0 -1 236.66 22.32)" style="font-style:italic;font-variant:normal;font-weight:400;font-size:9.96px;font-family:Calibri;-inkscape-font-specification:Calibri-Italic;writing-mode:lr-tb;fill:#000;fill-opacity:1;fill-rule:nonzero;stroke:none"><tspan x="0 6.61344 11.73288 16.912081 22.061399 25.398001 30.56724 38.475479" y="0">Quantum </tspan></text></g><g clip-path="url(#r)" transform="matrix(1.33333 0 0 -1.33333 0 124.64)"><text transform="matrix(1 0 0 -1 243.02 12.72)" style="font-style:italic;font-variant:normal;font-weight:400;font-size:9.984px;font-family:Calibri;-inkscape-font-specification:Calibri-Italic;writing-mode:lr-tb;fill:#000;fill-opacity:1;fill-rule:nonzero;stroke:none"><tspan x="0 5.1617279 7.4580479 10.802688 14.995968 20.127745 22.424065" y="0">Circuit</tspan></text></g><path d="M225.96 66.24h59.88V36.23l-3.35-3.35h-56.53z" style="fill:url(#s);fill-opacity:1;fill-rule:evenodd;stroke:none" transform="matrix(1.33333 0 0 -1.33333 0 124.64)"/><path d="m282.49 32.88.67 2.68 2.68.67z" style="fill:url(#t);fill-opacity:1;fill-rule:evenodd;stroke:none" transform="matrix(1.33333 0 0 -1.33333 0 124.64)"/><path d="m282.49 32.88.67 2.68 2.68.67-3.35-3.35h-56.53v33.36h59.88V36.23" style="fill:none;stroke:#262626;stroke-width:.96;stroke-linecap:butt;stroke-linejoin:miter;stroke-miterlimit:10;stroke-dasharray:none;stroke-opacity:1" transform="matrix(1.33333 0 0 -1.33333 0 124.64)"/><path d="M22.92 41.244V58.92" style="fill:none;stroke:#000;stroke-width:.48;stroke-linecap:butt;stroke-linejoin:miter;stroke-miterlimit:10;stroke-dasharray:none;stroke-opacity:1" transform="matrix(1.33333 0 0 -1.33333 0 124.64)"/><g clip-path="url(#u)" transform="matrix(1.33333 0 0 -1.33333 0 124.64)"><path d="m20.876 43.131 3.959-3.96" style="fill:none;stroke:#000;stroke-width:.5;stroke-linecap:butt;stroke-linejoin:miter;stroke-miterlimit:10;stroke-dasharray:none;stroke-opacity:1"/></g><g clip-path="url(#v)" transform="matrix(1.33333 0 0 -1.33333 0 124.64)"><path d="m20.851 39.147 4.009 4.008" style="fill:none;stroke:#000;stroke-width:.5;stroke-linecap:butt;stroke-linejoin:miter;stroke-miterlimit:10;stroke-dasharray:none;stroke-opacity:1"/></g><g clip-path="url(#w)" transform="matrix(1.33333 0 0 -1.33333 0 124.64)"><path d="m20.876 60.904 3.959-3.96" style="fill:none;stroke:#000;stroke-width:.5;stroke-linecap:butt;stroke-linejoin:miter;stroke-miterlimit:10;stroke-dasharray:none;stroke-opacity:1"/></g><g clip-path="url(#x)" transform="matrix(1.33333 0 0 -1.33333 0 124.64)"><path d="m20.851 56.92 4.009 4.008" style="fill:none;stroke:#000;stroke-width:.5;stroke-linecap:butt;stroke-linejoin:miter;stroke-miterlimit:10;stroke-dasharray:none;stroke-opacity:1"/></g><path d="M15.96 49.68h24.896M15.96 41.04h24.576M15.96 58.92h24.576" style="fill:none;stroke:#000;stroke-width:.48;stroke-linecap:butt;stroke-linejoin:miter;stroke-miterlimit:10;stroke-dasharray:none;stroke-opacity:1" transform="matrix(1.33333 0 0 -1.33333 0 124.64)"/><path d="M29.88 37.44h7.32V45h-7.32z" style="fill:#fff;fill-opacity:1;fill-rule:evenodd;stroke:none" transform="matrix(1.33333 0 0 -1.33333 0 124.64)"/><path d="M29.88 37.44h7.32V45h-7.32z" style="fill:none;stroke:#000;stroke-width:.72;stroke-linecap:butt;stroke-linejoin:miter;stroke-miterlimit:10;stroke-dasharray:none;stroke-opacity:1" transform="matrix(1.33333 0 0 -1.33333 0 124.64)"/><g clip-path="url(#y)" transform="matrix(1.33333 0 0 -1.33333 0 124.64)"><g clip-path="url(#z)" transform="matrix(1.60561 0 0 1.6305 40.56 54.96)"><path d="M.205.166h8.16v4.56H.205z" style="fill:#fff;fill-opacity:1;fill-rule:nonzero;stroke:none"/><g clip-path="url(#A)"><path d="M.085 4.846h8.4v-4.8h-8.4Zm.24-4.68-.12.12h8.16l-.12-.12v4.56l.12-.12H.205l.12.12z" style="fill:#000;fill-opacity:1;fill-rule:nonzero;stroke:none"/></g><path d="m1.65.774.054.521.15.495.244.449.322.393.393.322.448.244.495.149.534.055.534-.055.495-.15.449-.244.385-.322.322-.392.251-.448.15-.496.053-.521-.238-.025-.053.51.005-.022-.143.472.01-.024-.24.427.012-.017-.307.375.016-.016-.368.308.02-.014-.428.233.023-.01-.473.143.023-.005-.51.053h.024l-.51-.053.023.005-.473-.143.023.01-.428-.233.02.013-.376-.308.017.017-.308-.375.013.019-.233-.427.01.022-.143-.472.005.022-.053-.51Z" style="fill:#000;fill-opacity:1;fill-rule:nonzero;stroke:none"/><g clip-path="url(#B)"><path d="m4.116.752 2.005 2.39-.276.231.908.335-.172-.952-.276.231L4.3.597Z" style="fill:#000;fill-opacity:1;fill-rule:nonzero;stroke:none"/></g></g></g><path d="M40.56 54.96h13.68V63H40.56Z" style="fill:none;stroke:#262626;stroke-width:.96;stroke-linecap:butt;stroke-linejoin:miter;stroke-miterlimit:10;stroke-dasharray:none;stroke-opacity:1" transform="matrix(1.33333 0 0 -1.33333 0 124.64)"/><g clip-path="url(#C)" transform="matrix(1.33333 0 0 -1.33333 0 124.64)"><g clip-path="url(#D)" transform="matrix(1.6056 0 0 1.6061 40.56 46.2)"><path d="M.205.166h8.16v4.56H.205z" style="fill:#fff;fill-opacity:1;fill-rule:nonzero;stroke:none"/><g clip-path="url(#E)"><path d="M.085 4.846h8.4v-4.8h-8.4Zm.24-4.68-.12.12h8.16l-.12-.12v4.56l.12-.12H.205l.12.12z" style="fill:#000;fill-opacity:1;fill-rule:nonzero;stroke:none"/></g><path d="m1.65.774.054.521.15.495.244.449.322.393.393.322.448.244.495.149.534.055.534-.055.495-.15.449-.244.385-.322.322-.392.251-.448.15-.496.053-.521-.238-.025-.053.51.005-.022-.143.472.01-.024-.24.427.012-.017-.307.375.016-.016-.368.308.02-.014-.428.233.023-.01-.473.143.023-.005-.51.053h.024l-.51-.053.023.005-.473-.143.023.01-.428-.233.02.013-.376-.308.017.017-.308-.375.013.019-.233-.427.01.022-.143-.472.005.022-.053-.51Z" style="fill:#000;fill-opacity:1;fill-rule:nonzero;stroke:none"/><g clip-path="url(#F)"><path d="m4.116.752 2.005 2.39-.276.231.908.335-.172-.952-.276.231L4.3.597Z" style="fill:#000;fill-opacity:1;fill-rule:nonzero;stroke:none"/></g></g></g><path d="M40.56 46.2h13.68v7.92H40.56Z" style="fill:none;stroke:#262626;stroke-width:.96;stroke-linecap:butt;stroke-linejoin:miter;stroke-miterlimit:10;stroke-dasharray:none;stroke-opacity:1" transform="matrix(1.33333 0 0 -1.33333 0 124.64)"/><g clip-path="url(#G)" transform="matrix(1.33333 0 0 -1.33333 0 124.64)"><g clip-path="url(#H)" transform="matrix(1.6056 0 0 1.6061 40.56 37.32)"><path d="M.205.166h8.16v4.56H.205z" style="fill:#fff;fill-opacity:1;fill-rule:nonzero;stroke:none"/><g clip-path="url(#I)"><path d="M.085 4.846h8.4v-4.8h-8.4Zm.24-4.68-.12.12h8.16l-.12-.12v4.56l.12-.12H.205l.12.12z" style="fill:#000;fill-opacity:1;fill-rule:nonzero;stroke:none"/></g><path d="m1.65.774.054.521.15.495.244.449.322.393.393.322.448.244.495.149.534.055.534-.055.495-.15.449-.244.385-.322.322-.392.251-.448.15-.496.053-.521-.238-.025-.053.51.005-.022-.143.472.01-.024-.24.427.012-.017-.307.375.016-.016-.368.308.02-.014-.428.233.023-.01-.473.143.023-.005-.51.053h.024l-.51-.053.023.005-.473-.143.023.01-.428-.233.02.013-.376-.308.017.017-.308-.375.013.019-.233-.427.01.022-.143-.472.005.022-.053-.51Z" style="fill:#000;fill-opacity:1;fill-rule:nonzero;stroke:none"/><g clip-path="url(#J)"><path d="m4.116.752 2.005 2.39-.276.231.908.335-.172-.952-.276.231L4.3.597Z" style="fill:#000;fill-opacity:1;fill-rule:nonzero;stroke:none"/></g></g></g><path d="M40.56 37.32h13.68v7.92H40.56Z" style="fill:none;stroke:#262626;stroke-width:.96;stroke-linecap:butt;stroke-linejoin:miter;stroke-miterlimit:10;stroke-dasharray:none;stroke-opacity:1" transform="matrix(1.33333 0 0 -1.33333 0 124.64)"/><path d="M227.52 49.68h42.43M227.52 41.04h42.41M227.52 58.92h42.41M231.12 41.16c0 1.856 1.5 3.36 3.36 3.36 1.86 0 3.36-1.504 3.36-3.36 0-1.856-1.5-3.36-3.36-3.36a3.357 3.357 0 0 0-3.36 3.36z" style="fill:none;stroke:#000;stroke-width:.48;stroke-linecap:butt;stroke-linejoin:miter;stroke-miterlimit:10;stroke-dasharray:none;stroke-opacity:1" transform="matrix(1.33333 0 0 -1.33333 0 124.64)"/><path d="M232.32 58.62c0 1.226.99 2.22 2.22 2.22 1.23 0 2.22-.994 2.22-2.22 0-1.226-.99-2.22-2.22-2.22-1.23 0-2.22.994-2.22 2.22z" style="fill:#000;fill-opacity:1;fill-rule:evenodd;stroke:none" transform="matrix(1.33333 0 0 -1.33333 0 124.64)"/><path d="m234.48 37.775.13 18.625" style="fill:none;stroke:#000;stroke-width:.48;stroke-linecap:butt;stroke-linejoin:miter;stroke-miterlimit:10;stroke-dasharray:none;stroke-opacity:1" transform="matrix(1.33333 0 0 -1.33333 0 124.64)"/><path d="M258.36 37.44h7.32V45h-7.32z" style="fill:#fff;fill-opacity:1;fill-rule:evenodd;stroke:none" transform="matrix(1.33333 0 0 -1.33333 0 124.64)"/><path d="M258.36 37.44h7.32V45h-7.32z" style="fill:none;stroke:#000;stroke-width:.72;stroke-linecap:butt;stroke-linejoin:miter;stroke-miterlimit:10;stroke-dasharray:none;stroke-opacity:1" transform="matrix(1.33333 0 0 -1.33333 0 124.64)"/><path d="M248.04 41.1c0 1.889 1.5 3.42 3.36 3.42 1.86 0 3.36-1.531 3.36-3.42s-1.5-3.42-3.36-3.42c-1.86 0-3.36 1.531-3.36 3.42z" style="fill:none;stroke:#000;stroke-width:.48;stroke-linecap:butt;stroke-linejoin:miter;stroke-miterlimit:10;stroke-dasharray:none;stroke-opacity:1" transform="matrix(1.33333 0 0 -1.33333 0 124.64)"/><path d="M249.36 58.62c0 1.226.99 2.22 2.22 2.22 1.23 0 2.22-.994 2.22-2.22 0-1.226-.99-2.22-2.22-2.22-1.23 0-2.22.994-2.22 2.22z" style="fill:#000;fill-opacity:1;fill-rule:evenodd;stroke:none" transform="matrix(1.33333 0 0 -1.33333 0 124.64)"/><path d="m251.4 37.775.13 18.625M246.36 59.04c0-1.856-1.5-3.36-3.36-3.36a3.357 3.357 0 0 0-3.36 3.36c0 1.856 1.5 3.36 3.36 3.36 1.86 0 3.36-1.504 3.36-3.36z" style="fill:none;stroke:#000;stroke-width:.48;stroke-linecap:butt;stroke-linejoin:miter;stroke-miterlimit:10;stroke-dasharray:none;stroke-opacity:1" transform="matrix(1.33333 0 0 -1.33333 0 124.64)"/><path d="M245.04 41.46c0-1.226-.99-2.22-2.22-2.22-1.23 0-2.22.994-2.22 2.22 0 1.226.99 2.22 2.22 2.22 1.23 0 2.22-.994 2.22-2.22z" style="fill:#000;fill-opacity:1;fill-rule:evenodd;stroke:none" transform="matrix(1.33333 0 0 -1.33333 0 124.64)"/><path d="m243.01 62.4-.13-18.625" style="fill:none;stroke:#000;stroke-width:.48;stroke-linecap:butt;stroke-linejoin:miter;stroke-miterlimit:10;stroke-dasharray:none;stroke-opacity:1" transform="matrix(1.33333 0 0 -1.33333 0 124.64)"/><g clip-path="url(#K)" transform="matrix(1.33333 0 0 -1.33333 0 124.64)"><g clip-path="url(#L)" transform="matrix(1.5915 0 0 1.60611 270.12 55.32)"><path d="M.205.166h8.16v4.56H.205z" style="fill:#fff;fill-opacity:1;fill-rule:nonzero;stroke:none"/><g clip-path="url(#M)"><path d="M.085 4.846h8.4v-4.8h-8.4Zm.24-4.68-.12.12h8.16l-.12-.12v4.56l.12-.12H.205l.12.12z" style="fill:#000;fill-opacity:1;fill-rule:nonzero;stroke:none"/></g><path d="m1.65.774.054.521.15.495.244.449.322.393.393.322.448.244.495.149.534.055.534-.055.495-.15.449-.244.385-.322.322-.392.251-.448.15-.496.053-.521-.238-.025-.053.51.005-.022-.143.472.01-.024-.24.427.012-.017-.307.375.016-.016-.368.308.02-.014-.428.233.023-.01-.473.143.023-.005-.51.053h.024l-.51-.053.023.005-.473-.143.023.01-.428-.233.02.013-.376-.308.017.017-.308-.375.013.019-.233-.427.01.022-.143-.472.005.022-.053-.51Z" style="fill:#000;fill-opacity:1;fill-rule:nonzero;stroke:none"/><g clip-path="url(#N)"><path d="m4.116.752 2.005 2.39-.276.231.908.335-.172-.952-.276.231L4.3.597Z" style="fill:#000;fill-opacity:1;fill-rule:nonzero;stroke:none"/></g></g></g><path d="M270.12 55.32h13.56v7.92h-13.56z" style="fill:none;stroke:#262626;stroke-width:.96;stroke-linecap:butt;stroke-linejoin:miter;stroke-miterlimit:10;stroke-dasharray:none;stroke-opacity:1" transform="matrix(1.33333 0 0 -1.33333 0 124.64)"/><g clip-path="url(#O)" transform="matrix(1.33333 0 0 -1.33333 0 124.64)"><g clip-path="url(#P)" transform="matrix(1.5915 0 0 1.6305 270.12 46.44)"><path d="M.205.166h8.16v4.56H.205z" style="fill:#fff;fill-opacity:1;fill-rule:nonzero;stroke:none"/><g clip-path="url(#Q)"><path d="M.085 4.846h8.4v-4.8h-8.4Zm.24-4.68-.12.12h8.16l-.12-.12v4.56l.12-.12H.205l.12.12z" style="fill:#000;fill-opacity:1;fill-rule:nonzero;stroke:none"/></g><path d="m1.65.774.054.521.15.495.244.449.322.393.393.322.448.244.495.149.534.055.534-.055.495-.15.449-.244.385-.322.322-.392.251-.448.15-.496.053-.521-.238-.025-.053.51.005-.022-.143.472.01-.024-.24.427.012-.017-.307.375.016-.016-.368.308.02-.014-.428.233.023-.01-.473.143.023-.005-.51.053h.024l-.51-.053.023.005-.473-.143.023.01-.428-.233.02.013-.376-.308.017.017-.308-.375.013.019-.233-.427.01.022-.143-.472.005.022-.053-.51Z" style="fill:#000;fill-opacity:1;fill-rule:nonzero;stroke:none"/><g clip-path="url(#R)"><path d="m4.116.752 2.005 2.39-.276.231.908.335-.172-.952-.276.231L4.3.597Z" style="fill:#000;fill-opacity:1;fill-rule:nonzero;stroke:none"/></g></g></g><path d="M270.12 46.44h13.56v8.04h-13.56z" style="fill:none;stroke:#262626;stroke-width:.96;stroke-linecap:butt;stroke-linejoin:miter;stroke-miterlimit:10;stroke-dasharray:none;stroke-opacity:1" transform="matrix(1.33333 0 0 -1.33333 0 124.64)"/><g clip-path="url(#S)" transform="matrix(1.33333 0 0 -1.33333 0 124.64)"><g clip-path="url(#T)" transform="matrix(1.5915 0 0 1.6305 270.12 37.56)"><path d="M.205.166h8.16v4.56H.205z" style="fill:#fff;fill-opacity:1;fill-rule:nonzero;stroke:none"/><g clip-path="url(#U)"><path d="M.085 4.846h8.4v-4.8h-8.4Zm.24-4.68-.12.12h8.16l-.12-.12v4.56l.12-.12H.205l.12.12z" style="fill:#000;fill-opacity:1;fill-rule:nonzero;stroke:none"/></g><path d="m1.65.774.054.521.15.495.244.449.322.393.393.322.448.244.495.149.534.055.534-.055.495-.15.449-.244.385-.322.322-.392.251-.448.15-.496.053-.521-.238-.025-.053.51.005-.022-.143.472.01-.024-.24.427.012-.017-.307.375.016-.016-.368.308.02-.014-.428.233.023-.01-.473.143.023-.005-.51.053h.024l-.51-.053.023.005-.473-.143.023.01-.428-.233.02.013-.376-.308.017.017-.308-.375.013.019-.233-.427.01.022-.143-.472.005.022-.053-.51Z" style="fill:#000;fill-opacity:1;fill-rule:nonzero;stroke:none"/><g clip-path="url(#V)"><path d="m4.116.752 2.005 2.39-.276.231.908.335-.172-.952-.276.231L4.3.597Z" style="fill:#000;fill-opacity:1;fill-rule:nonzero;stroke:none"/></g></g></g><path d="M270.12 37.56h13.56v8.04h-13.56z" style="fill:none;stroke:#262626;stroke-width:.96;stroke-linecap:butt;stroke-linejoin:miter;stroke-miterlimit:10;stroke-dasharray:none;stroke-opacity:1" transform="matrix(1.33333 0 0 -1.33333 0 124.64)"/></svg>
